<svg fill="none" height="144" viewBox="0 0 648 144" width="648" xmlns="http://www.w3.org/2000/svg" xmlns:xlink="http://www.w3.org/1999/xlink"><clipPath id="a"><path d="m40 22h68.875v100h-68.875z"/></clipPath><rect height="142" rx="25" stroke="#f97c21" stroke-width="2" width="645.896" x="1" y="1"/><g clip-path="url(#a)"><path d="m48.2812 115.738c0 2.377-.0936 3.606-.2972 3.606h-2.8532c-.2036 0-2.3183-1.229-2.3183-3.606v-46.6222c0-2.3767 1.2825-4.3033 1.4861-4.3033h3.614c.2036 0 .3686 1.9266.3686 4.3033z" fill="#ececec"/><path d="m97.4265 46.1511c0 .0156.0009.0311.0009.047v-.0138c.0001-.011-.0009-.0221-.0009-.0332zm-.139-2.3096c.0123.1071.0209.2164.0317.3239-.0098-.1075-.0193-.2168-.0317-.3239zm-.2059-1.3217c.0284.15.0566.2994.0814.4496-.0242-.1508-.053-.2996-.0814-.4496zm-1.787 3.279v-.4288c0-7.8489-4.4892-14.7679-10.9259-18.8488 5.3919 2.6162 9.7557 7.1715 11.8006 12.699-3.2412-8.7847-12.3301-15.1227-22.1051-15.1227-12.2124 0-23.7814 9.8884-23.7814 22.0869v29.9349h5.307v-28.7009c0-9.3442 7.1546-16.9185 16.5086-16.9185 3.0119 0 5.0181.7894 7.4543 2.1665 6.3957 2.258 10.9793 4.5972 10.9793 11.7586v3.0675c0 1.0164.5577 1.9153 1.4139 2.4735 1.8654-.1215 3.3487-1.9375 3.3487-4.1672zm2.0845-.9385c.0078.1121.0145.2242.0204.3369-.0059-.1127-.0132-.2248-.0204-.3369zm-.5022-3.3133c.0393.1652.0741.3318.1106.4983-.0357-.1665-.0713-.3332-.1106-.4983z" fill="#ececec"/><path d="m55.5898 47.4185v28.7143h2.4243v-27.9439c0-9.084 6.9554-16.4481 16.05-16.4481 1.9485 0 3.8168.3401 5.5512.9605l-.0627-.0349c-2.4363-1.3771-4.4423-2.1665-7.4543-2.1665-9.3539 0-16.5085 7.5744-16.5085 16.9186zm41.8097-2.2213c-.0059-.1126-.0126-.2247-.0203-.3368-.0158-.232-.0357-.4637-.0599-.695-.0109-.1074-.0193-.2168-.0318-.3239-.0352-.2915-.0767-.5823-.1245-.872-.0248-.1502-.0532-.2997-.0814-.4496-.0296-.1585-.0609-.3167-.0941-.4746-.0365-.1665-.0713-.3331-.1106-.4983-.0292-.1197-.0615-.2389-.0925-.3584-.0871-.338-.1831-.6737-.288-1.0067-.0252-.0804-.0492-.1604-.0753-.2404-.0695-.2118-.1424-.4224-.2186-.6318-.0106-.03-.0224-.0597-.0332-.0894-2.0449-5.5275-6.4087-10.0829-11.8006-12.6991 6.4368 4.0809 10.926 11 10.926 18.8489v.4288c0 2.2295-1.4833 4.0455-3.3488 4.1671-.0058.0003-.0117.0016-.0178.0022.5736.3792 1.2819.6061 2.0518.6061 1.9041 0 3.4476-1.8191 3.4476-4.0631v-.313c0-.016-.0008-.0314-.0008-.047-.0014-.3182-.0104-.6362-.0272-.954z" fill="#a7a7a7"/><path d="m94.5996 51.1753c-2.539 0-4.6045-1.8922-4.6045-4.2179v.6321c0-8.6084-7.012-15.6118-15.6304-15.6118-7.788 0-13.9749 5.8892-14.7108 14.0031-.0551.6055-.5911 1.0508-1.1967.9967-.1441-.013-.2842-.0543-.4124-.1214-.1281-.0671-.2417-.1587-.3344-.2697s-.1625-.2391-.2056-.377c-.0431-.138-.0585-.2831-.0455-.427.8415-9.2744 7.9511-16.0058 16.9055-16.0058 9.8337 0 17.834 7.9908 17.834 17.8129v-.6321c0 1.1121 1.0772 2.0169 2.4009 2.0169 1.3251 0 2.4028-1.3589 2.4028-3.0289v-.3779c0-1.8685-.2749-3.7309-.8164-5.5357-.0416-.1384-.0555-.2837-.0408-.4275.0146-.1438.0575-.2832.1261-.4105.0687-.1272.1617-.2397.2739-.331.1121-.0913.2412-.1597.3798-.2012.5832-.1752 1.1967.1563 1.3716.738.6021 2.0009.9085 4.0788.9094 6.1681v.3778c-.0001 2.8835-2.0665 5.2298-4.6065 5.2298z" fill="#475569"/><path d="m59.5818 77.0843h-9.6211v-31.5169c0-9.182 6.1652-17.9178 15.3417-21.7383.2689-.1082.5697-.1062.8372.0056.2675.1119.48.3245.5916.5918s.1131.5678.0044.8363c-.1088.2685-.3191.4833-.5854.5979-8.3653 3.4827-13.9859 11.4023-13.9859 19.7067v29.3159h5.214v-22.8192c.0047-.2888.1229-.5641.329-.7667.2061-.2025.4836-.316.7728-.316.2891 0 .5666.1135.7727.316.2061.2026.3243.4779.329.7667zm29.6107-47.7189c-.2435.0003-.4802-.0805-.6727-.2294-4.1037-3.1664-9.131-4.9101-14.1552-4.9101-1.0818 0-2.1654.081-3.2208.241-.5994.0905-1.1632-.322-1.2546-.9231-.0438-.2886.0289-.5828.2022-.8178s.433-.3916.7219-.4354c1.1755-.1773 2.3626-.2662 3.5513-.2659 5.509 0 11.0146 1.9069 15.5023 5.3691.1819.1405.3153.3343.3814.5543.0662.22.0617.4551-.0126.6725-.0744.2173-.2149.406-.402.5396s-.4113.2053-.6412.2052zm5.3862 5.7781c-.1829.0002-.363-.0451-.5239-.1318-.161-.0867-.2978-.2121-.3981-.3648-.123-.1873-.2453-.3749-.3671-.5629-.6841-1.0531-.9143-1.4078-1.9724-2.4073-.2115-.2008-.3346-.4771-.3424-.7684-.0078-.2914.1005-.5739.3009-.7856.2005-.2117.4769-.3354.7685-.3439.2917-.0084.5748.099.7872.2987 1.2494 1.1801 1.5808 1.6906 2.307 2.8089.1081.1668.2268.3494.3602.5522.0794.1208.1342.256.1613.398s.0259.2879-.0035.4294c-.0293.1415-.0863.2759-.1677.3954s-.1855.2218-.3065.3011c-.179.1182-.3889.1812-.6035.181z" fill="#475569"/><path d="m107.487 116.182c0 2.457-1.837 4.45-4.103 4.45h-52.6718c-2.2666 0-4.1044-1.993-4.1044-4.45v-48.2037c0-2.4574 1.8378-4.4492 4.1044-4.4492h52.6718c2.266 0 4.103 1.9918 4.103 4.4492z" fill="#fdd72c"/><path d="m103.033 63.5291h-11.5079c2.46 0 4.4546 1.9918 4.4546 4.4492v48.2037c0 2.457-1.9945 4.45-4.4546 4.45h11.5079c2.46 0 4.454-1.993 4.454-4.45v-48.2037c0-2.4574-1.994-4.4492-4.454-4.4492z" fill="#f97c21"/><g fill="#475569"><path d="m62.75 94.5827c0 .5901.2347 1.1559.6524 1.5732.4177.4172.9842.6516 1.5749.6516s1.1572-.2344 1.5749-.6516c.4177-.4173.6524-.9831.6524-1.5732 0-.59-.2347-1.1558-.6524-1.5731-.4177-.4172-.9842-.6516-1.5749-.6516s-1.1572.2344-1.5749.6516c-.4177.4173-.6524.9831-.6524 1.5731z"/><path d="m84.2808 94.5827c0 .5901.2346 1.1559.6523 1.5732.4177.4172.9842.6516 1.5749.6516.5908 0 1.1573-.2344 1.575-.6516.4177-.4173.6523-.9831.6523-1.5732 0-.59-.2346-1.1558-.6523-1.5731-.4177-.4172-.9842-.6516-1.575-.6516-.5907 0-1.1572.2344-1.5749.6516-.4177.4173-.6523.9831-.6523 1.5731z"/><path d="m80.5265 98.025c.0366-.3291-.2357-.5987-.5677-.5987h-9.6068c-.3313 0-.6033.2696-.5673.5987.2983 2.699 2.589 4.799 5.3713 4.799 2.782 0 5.0727-2.1 5.3705-4.799z"/></g><path d="m76.8981 101.188c0 .487-.8121.883-1.8135.883-1.002 0-1.8143-.396-1.8143-.883s.8123-.882 1.8143-.882c1.0014 0 1.8135.395 1.8135.882z" fill="#fd631f"/><path d="m100.805 122.046h-52.7125c-4.4655 0-8.0986-3.629-8.0986-8.089v-43.754c0-4.4603 3.6331-8.089 8.0986-8.089h52.7125c4.466 0 8.099 3.6287 8.099 8.089v18.7239c0 .7815-.635 1.415-1.417 1.415s-1.417-.6335-1.417-1.415v-18.7239c0-2.8999-2.361-5.2591-5.265-5.2591h-52.7125c-2.9034 0-5.2654 2.3592-5.2654 5.2591v43.754c0 2.9 2.362 5.26 5.2654 5.26h52.7125c2.904 0 5.266-2.36 5.266-5.26v-6.49c0-.782.634-1.415 1.416-1.415.783 0 1.417.633 1.417 1.415v6.49c0 4.46-3.633 8.089-8.099 8.089z" fill="#475569"/><path d="m107.487 102.949c-.376 0-.736-.149-1.002-.415-.265-.265-.414-.625-.414-1v-6.4888c0-.7816.634-1.4151 1.416-1.4151.783 0 1.417.6335 1.417 1.4151v6.4888c0 .781-.634 1.415-1.417 1.415z" fill="#475569"/></g><g fill="#f97c21"><path d="m595.26 46.6442c2.208 0 4.096.48 5.664 1.44 1.6.96 2.816 2.32 3.648 4.08.864 1.728 1.296 3.76 1.296 6.096v2.544h-17.616c.064 2.912.8 5.136 2.208 6.672 1.44 1.504 3.44 2.256 6 2.256 1.632 0 3.072-.144 4.32-.432 1.28-.32 2.592-.768 3.936-1.344v3.696c-1.312.576-2.608.992-3.888 1.248-1.28.288-2.8.432-4.56.432-2.432 0-4.592-.496-6.48-1.488-1.856-.992-3.312-2.464-4.368-4.416-1.024-1.984-1.536-4.4-1.536-7.248 0-2.816.464-5.232 1.392-7.248.96-2.016 2.288-3.568 3.984-4.656 1.728-1.088 3.728-1.632 6-1.632zm-.048 3.456c-2.016 0-3.616.656-4.8 1.968-1.152 1.28-1.84 3.072-2.064 5.376h13.104c0-1.472-.224-2.752-.672-3.84s-1.136-1.936-2.064-2.544c-.896-.64-2.064-.96-3.504-.96z"/><path d="m564.913 73.3322c-3.2 0-5.76-1.104-7.68-3.312-1.92-2.24-2.88-5.568-2.88-9.984s.96-7.744 2.88-9.984c1.952-2.272 4.528-3.408 7.728-3.408 1.344 0 2.512.176 3.504.528.992.32 1.856.768 2.592 1.344s1.36 1.216 1.872 1.92h.288c-.032-.416-.096-1.024-.192-1.824-.064-.832-.096-1.488-.096-1.968v-10.272h4.224v36.48h-3.408l-.624-3.456h-.192c-.512.736-1.136 1.408-1.872 2.016-.736.576-1.616 1.04-2.64 1.392-.992.352-2.16.528-3.504.528zm.672-3.504c2.72 0 4.624-.736 5.712-2.208 1.12-1.504 1.68-3.76 1.68-6.768v-.768c0-3.2-.528-5.648-1.584-7.344-1.056-1.728-3.008-2.592-5.856-2.592-2.272 0-3.984.912-5.136 2.736-1.12 1.792-1.68 4.208-1.68 7.248 0 3.072.56 5.456 1.68 7.152 1.152 1.696 2.88 2.544 5.184 2.544z"/><path d="m547.642 47.1242v25.728h-4.224v-25.728zm-2.064-9.648c.64 0 1.2.224 1.68.672.512.416.768 1.088.768 2.016 0 .896-.256 1.568-.768 2.016-.48.448-1.04.672-1.68.672-.704 0-1.296-.224-1.776-.672s-.72-1.12-.72-2.016c0-.928.24-1.6.72-2.016.48-.448 1.072-.672 1.776-.672z"/><path d="m535.25 47.1241v25.728h-3.456l-.624-3.408h-.192c-.544.896-1.248 1.632-2.112 2.208s-1.808.992-2.832 1.248c-1.024.288-2.096.432-3.216.432-2.048 0-3.776-.32-5.184-.96-1.376-.672-2.416-1.696-3.12-3.072s-1.056-3.152-1.056-5.328v-16.848h4.272v16.56c0 2.048.464 3.584 1.392 4.608s2.368 1.536 4.32 1.536c1.92 0 3.424-.352 4.512-1.056 1.12-.736 1.904-1.792 2.352-3.168.48-1.408.72-3.104.72-5.088v-13.392z"/><path d="m493.335 46.6442c1.696 0 3.216.32 4.56.96 1.376.64 2.544 1.616 3.504 2.928h.24l.576-3.408h3.36v26.16c0 2.432-.416 4.464-1.248 6.096-.832 1.664-2.096 2.912-3.792 3.744s-3.856 1.248-6.48 1.248c-1.856 0-3.568-.144-5.136-.432-1.536-.256-2.912-.656-4.128-1.2v-3.888c.832.416 1.744.768 2.736 1.056.992.32 2.064.56 3.216.72s2.336.24 3.552.24c2.208 0 3.936-.656 5.184-1.968 1.28-1.28 1.92-3.04 1.92-5.28v-1.008c0-.384.016-.928.048-1.632.032-.736.064-1.248.096-1.536h-.192c-.896 1.312-2.016 2.288-3.36 2.928-1.312.64-2.848.96-4.608.96-3.328 0-5.936-1.168-7.824-3.504-1.856-2.336-2.784-5.6-2.784-9.792 0-2.752.416-5.12 1.248-7.104.864-2.016 2.08-3.568 3.648-4.656s3.456-1.632 5.664-1.632zm.576 3.552c-1.44 0-2.672.384-3.696 1.152-.992.768-1.76 1.888-2.304 3.36-.512 1.472-.768 3.264-.768 5.376 0 3.168.576 5.6 1.728 7.296 1.184 1.664 2.896 2.496 5.136 2.496 1.312 0 2.432-.16 3.36-.48.928-.352 1.696-.88 2.304-1.584.608-.736 1.056-1.664 1.344-2.784s.432-2.448.432-3.984v-1.008c0-2.336-.272-4.224-.816-5.664-.512-1.44-1.328-2.496-2.448-3.168s-2.544-1.008-4.272-1.008z"/><path d="m463.918 46.6442c.48 0 .992.032 1.536.096.576.032 1.072.096 1.488.192l-.528 3.888c-.416-.096-.88-.176-1.392-.24-.48-.064-.944-.096-1.392-.096-.992 0-1.936.208-2.832.624s-1.696 1.008-2.4 1.776c-.704.736-1.264 1.632-1.68 2.688-.384 1.056-.576 2.24-.576 3.552v13.728h-4.224v-25.728h3.456l.48 4.704h.192c.544-.96 1.2-1.824 1.968-2.592.768-.8 1.648-1.424 2.64-1.872.992-.48 2.08-.72 3.264-.72z"/><path d="m434.76 46.6442c2.208 0 4.096.48 5.664 1.44 1.6.96 2.816 2.32 3.648 4.08.864 1.728 1.296 3.76 1.296 6.096v2.544h-17.616c.064 2.912.8 5.136 2.208 6.672 1.44 1.504 3.44 2.256 6 2.256 1.632 0 3.072-.144 4.32-.432 1.28-.32 2.592-.768 3.936-1.344v3.696c-1.312.576-2.608.992-3.888 1.248-1.28.288-2.8.432-4.56.432-2.432 0-4.592-.496-6.48-1.488-1.856-.992-3.312-2.464-4.368-4.416-1.024-1.984-1.536-4.4-1.536-7.248 0-2.816.464-5.232 1.392-7.248.96-2.016 2.288-3.568 3.984-4.656 1.728-1.088 3.728-1.632 6-1.632zm-.048 3.456c-2.016 0-3.616.656-4.8 1.968-1.152 1.28-1.84 3.072-2.064 5.376h13.104c0-1.472-.224-2.752-.672-3.84s-1.136-1.936-2.064-2.544c-.896-.64-2.064-.96-3.504-.96z"/><path d="m418.607 65.7482c0 1.664-.416 3.056-1.248 4.176s-2.016 1.968-3.552 2.544-3.36.864-5.472.864c-1.792 0-3.344-.144-4.656-.432-1.28-.288-2.416-.688-3.408-1.2v-3.84c1.024.512 2.256.992 3.696 1.44 1.472.416 2.96.624 4.464.624 2.144 0 3.696-.336 4.656-1.008.96-.704 1.44-1.632 1.44-2.784 0-.64-.176-1.216-.528-1.728s-.992-1.024-1.92-1.536c-.896-.512-2.192-1.088-3.888-1.728-1.664-.64-3.088-1.28-4.272-1.92s-2.096-1.408-2.736-2.304-.96-2.048-.96-3.456c0-2.176.88-3.856 2.64-5.04 1.792-1.184 4.128-1.776 7.008-1.776 1.568 0 3.024.16 4.368.48 1.376.288 2.656.704 3.84 1.248l-1.44 3.36c-.704-.32-1.456-.592-2.256-.816-.768-.256-1.552-.448-2.352-.576-.8-.16-1.616-.24-2.448-.24-1.728 0-3.056.288-3.984.864-.896.544-1.344 1.296-1.344 2.256 0 .704.208 1.312.624 1.824.416.48 1.104.96 2.064 1.44.992.448 2.304.992 3.936 1.632 1.632.608 3.024 1.232 4.176 1.872s2.032 1.424 2.64 2.352c.608.896.912 2.032.912 3.408z"/><path d="m393.687 47.1241v25.728h-3.456l-.624-3.408h-.192c-.544.896-1.248 1.632-2.112 2.208s-1.808.992-2.832 1.248c-1.024.288-2.096.432-3.216.432-2.048 0-3.776-.32-5.184-.96-1.376-.672-2.416-1.696-3.12-3.072s-1.056-3.152-1.056-5.328v-16.848h4.272v16.56c0 2.048.464 3.584 1.392 4.608s2.368 1.536 4.32 1.536c1.92 0 3.424-.352 4.512-1.056 1.12-.736 1.904-1.792 2.352-3.168.48-1.408.72-3.104.72-5.088v-13.392z"/><path d="m342.557 46.6442c2.208 0 4.096.48 5.664 1.44 1.6.96 2.816 2.32 3.648 4.08.864 1.728 1.296 3.76 1.296 6.096v2.544h-17.616c.064 2.912.8 5.136 2.208 6.672 1.44 1.504 3.44 2.256 6 2.256 1.632 0 3.072-.144 4.32-.432 1.28-.32 2.592-.768 3.936-1.344v3.696c-1.312.576-2.608.992-3.888 1.248-1.28.288-2.8.432-4.56.432-2.432 0-4.592-.496-6.48-1.488-1.856-.992-3.312-2.464-4.368-4.416-1.024-1.984-1.536-4.4-1.536-7.248 0-2.816.464-5.232 1.392-7.248.96-2.016 2.288-3.568 3.984-4.656 1.728-1.088 3.728-1.632 6-1.632zm-.048 3.456c-2.016 0-3.616.656-4.8 1.968-1.152 1.28-1.84 3.072-2.064 5.376h13.104c0-1.472-.224-2.752-.672-3.84s-1.136-1.936-2.064-2.544c-.896-.64-2.064-.96-3.504-.96z"/><path d="m323.869 69.8762c.64 0 1.296-.048 1.968-.144.672-.128 1.216-.256 1.632-.384v3.216c-.448.224-1.088.4-1.92.528-.832.16-1.632.24-2.4.24-1.344 0-2.592-.224-3.744-.672-1.12-.48-2.032-1.296-2.736-2.448s-1.056-2.768-1.056-4.848v-14.976h-3.648v-2.016l3.696-1.68 1.68-5.472h2.496v5.904h7.44v3.264h-7.44v14.88c0 1.568.368 2.736 1.104 3.504.768.736 1.744 1.104 2.928 1.104z"/><path d="m298.119 46.6442c2.208 0 4.096.48 5.664 1.44 1.6.96 2.816 2.32 3.648 4.08.864 1.728 1.296 3.76 1.296 6.096v2.544h-17.616c.064 2.912.8 5.136 2.208 6.672 1.44 1.504 3.44 2.256 6 2.256 1.632 0 3.072-.144 4.32-.432 1.28-.32 2.592-.768 3.936-1.344v3.696c-1.312.576-2.608.992-3.888 1.248-1.28.288-2.8.432-4.56.432-2.432 0-4.592-.496-6.48-1.488-1.856-.992-3.312-2.464-4.368-4.416-1.024-1.984-1.536-4.4-1.536-7.248 0-2.816.464-5.232 1.392-7.248.96-2.016 2.288-3.568 3.984-4.656 1.728-1.088 3.728-1.632 6-1.632zm-.048 3.456c-2.016 0-3.616.656-4.8 1.968-1.152 1.28-1.84 3.072-2.064 5.376h13.104c0-1.472-.224-2.752-.672-3.84s-1.136-1.936-2.064-2.544c-.896-.64-2.064-.96-3.504-.96z"/><path d="m280.032 72.8522h-4.224v-36.48h4.224z"/><path d="m258.517 46.6442c3.168 0 5.712 1.104 7.632 3.312 1.952 2.208 2.928 5.536 2.928 9.984 0 2.912-.448 5.376-1.344 7.392-.864 1.984-2.096 3.488-3.696 4.512-1.568.992-3.424 1.488-5.568 1.488-1.312 0-2.48-.176-3.504-.528s-1.904-.8-2.64-1.344c-.704-.576-1.312-1.2-1.824-1.872h-.288c.064.544.128 1.232.192 2.064s.096 1.552.096 2.16v10.56h-4.224v-37.248h3.456l.576 3.504h.192c.512-.736 1.12-1.408 1.824-2.016.736-.608 1.6-1.088 2.592-1.44 1.024-.352 2.224-.528 3.6-.528zm-.768 3.552c-1.728 0-3.12.336-4.176 1.008-1.056.64-1.824 1.616-2.304 2.928s-.736 2.976-.768 4.992v.816c0 2.112.224 3.904.672 5.376s1.2 2.592 2.256 3.36c1.088.768 2.56 1.152 4.416 1.152 1.568 0 2.848-.432 3.84-1.296 1.024-.864 1.776-2.032 2.256-3.504.512-1.504.768-3.216.768-5.136 0-2.944-.576-5.296-1.728-7.056-1.12-1.76-2.864-2.64-5.232-2.64z"/><path d="m229.642 46.6442c2.912 0 5.088.752 6.528 2.256 1.44 1.472 2.16 3.872 2.16 7.2v16.752h-4.176v-16.56c0-2.016-.432-3.536-1.296-4.56-.832-1.024-2.144-1.536-3.936-1.536-2.496 0-4.288.72-5.376 2.16-1.056 1.44-1.584 3.536-1.584 6.288v14.208h-4.176v-16.56c0-1.344-.192-2.464-.576-3.36-.384-.928-.96-1.616-1.728-2.064s-1.76-.672-2.976-.672c-1.728 0-3.088.368-4.08 1.104-.992.704-1.712 1.744-2.16 3.12-.416 1.376-.624 3.072-.624 5.088v13.344h-4.224v-25.728h3.408l.624 3.504h.24c.544-.896 1.2-1.632 1.968-2.208.8-.608 1.68-1.056 2.64-1.344s1.952-.432 2.976-.432c1.984 0 3.632.352 4.944 1.056 1.344.704 2.32 1.792 2.928 3.264h.24c.864-1.472 2.032-2.56 3.504-3.264 1.504-.704 3.088-1.056 4.752-1.056z"/><path d="m194.723 59.9402c0 2.144-.288 4.048-.864 5.712-.544 1.632-1.344 3.024-2.4 4.176-1.024 1.152-2.288 2.032-3.792 2.64-1.472.576-3.12.864-4.944.864-1.696 0-3.264-.288-4.704-.864-1.44-.608-2.688-1.488-3.744-2.64s-1.888-2.544-2.496-4.176c-.576-1.664-.864-3.568-.864-5.712 0-2.848.48-5.248 1.44-7.2.96-1.984 2.336-3.488 4.128-4.512 1.792-1.056 3.92-1.584 6.384-1.584 2.336 0 4.384.528 6.144 1.584 1.792 1.024 3.184 2.528 4.176 4.512 1.024 1.952 1.536 4.352 1.536 7.2zm-19.44 0c0 2.016.256 3.776.768 5.28.544 1.472 1.376 2.608 2.496 3.408s2.544 1.2 4.272 1.2 3.152-.4 4.272-1.2 1.936-1.936 2.448-3.408c.544-1.504.816-3.264.816-5.28 0-2.048-.272-3.792-.816-5.232s-1.376-2.544-2.496-3.312c-1.088-.8-2.512-1.2-4.272-1.2-2.624 0-4.528.864-5.712 2.592s-1.776 4.112-1.776 7.152z"/><path d="m157.291 41.8922c-1.824 0-3.472.32-4.944.96-1.472.608-2.72 1.52-3.744 2.736-1.024 1.184-1.808 2.64-2.352 4.368-.544 1.696-.816 3.616-.816 5.76 0 2.816.432 5.264 1.296 7.344.896 2.08 2.208 3.68 3.936 4.8 1.76 1.12 3.952 1.68 6.576 1.68 1.504 0 2.928-.128 4.272-.384s2.656-.576 3.936-.96v3.744c-1.28.48-2.608.832-3.984 1.056-1.344.224-2.96.336-4.848.336-3.488 0-6.4-.72-8.736-2.16s-4.096-3.488-5.28-6.144c-1.152-2.656-1.728-5.776-1.728-9.36 0-2.592.352-4.96 1.056-7.104.736-2.144 1.792-4 3.168-5.568 1.408-1.568 3.136-2.768 5.184-3.6 2.048-.864 4.4-1.296 7.056-1.296 1.76 0 3.456.176 5.088.528s3.088.848 4.368 1.488l-1.728 3.648c-1.056-.48-2.24-.912-3.552-1.296-1.28-.384-2.688-.576-4.224-.576z"/><path d="m593.577 107.372v-10.9089h1.62v1.7045h.142c.227-.5824.594-1.0345 1.101-1.3565.506-.3267 1.115-.4901 1.825-.4901.72 0 1.319.1634 1.797.4901.483.322.859.7741 1.129 1.3565h.114c.279-.5634.698-1.0109 1.257-1.3423.558-.3362 1.228-.5043 2.01-.5043.975 0 1.773.3054 2.393.9162.62.6061.931 1.5507.931 2.8338v7.301h-1.677v-7.301c0-.8049-.22-1.3802-.66-1.7258-.44-.3457-.959-.5185-1.555-.5185-.768 0-1.362.232-1.783.696-.422.4593-.632 1.0417-.632 1.7473v7.102h-1.705v-7.4714c0-.6203-.201-1.1198-.603-1.4986-.403-.3835-.921-.5753-1.556-.5753-.435 0-.843.116-1.221.348-.375.232-.678.554-.91.9659-.227.4072-.34.8784-.34 1.4134v6.818z"/><path d="m588.831 102.912v-6.4489h1.676v10.9089h-1.676v-1.846h-.113c-.256.554-.654 1.025-1.194 1.413-.539.384-1.221.575-2.045.575-.682 0-1.288-.149-1.818-.447-.53-.303-.947-.758-1.25-1.364-.303-.611-.455-1.38-.455-2.308v-6.9319h1.676v6.8179c0 .796.223 1.43.668 1.904.45.473 1.023.71 1.719.71.416 0 .84-.107 1.271-.32.436-.213.8-.539 1.094-.98.298-.44.447-1.001.447-1.683z"/><path d="m577.21 107.372v-10.9089h1.676v10.9089zm.852-12.7271c-.326 0-.608-.1112-.845-.3338-.232-.2225-.348-.49-.348-.8025s.116-.5801.348-.8026c.237-.2225.519-.3338.845-.3338.327 0 .607.1113.839.3338.236.2225.355.4901.355.8026s-.119.58-.355.8025c-.232.2226-.512.3338-.839.3338z"/><path d="m574.689 96.4631v1.4205h-5.653v-1.4205zm-4.006-2.6136h1.676v10.3975c0 .474.069.829.206 1.066.142.232.322.388.54.468.223.076.457.114.703.114.185 0 .336-.01.455-.028.118-.024.213-.043.284-.057l.341 1.505c-.114.043-.272.086-.476.128-.204.048-.462.071-.774.071-.474 0-.938-.102-1.392-.305-.45-.204-.824-.514-1.122-.931-.294-.416-.441-.942-.441-1.576z"/><path d="m562.878 107.599c-1.051 0-1.958-.232-2.72-.696-.758-.468-1.343-1.122-1.755-1.96-.407-.843-.61-1.823-.61-2.94 0-1.118.203-2.1024.61-2.9547.412-.857.985-1.5246 1.719-2.0028.739-.483 1.601-.7245 2.585-.7245.569 0 1.13.0947 1.684.2841s1.058.4972 1.512.9233c.455.4214.817.9801 1.087 1.6762.27.696.405 1.5534.405 2.5714v.71h-8.409v-1.449h6.704c0-.616-.123-1.1648-.369-1.6478-.241-.4829-.587-.8641-1.037-1.1434-.445-.2794-.971-.4191-1.577-.4191-.667 0-1.245.1657-1.733.4972-.483.3267-.854.7528-1.115 1.2784-.26.5257-.39 1.0887-.39 1.6907v.966c0 .823.142 1.522.426 2.095.289.568.689 1.001 1.2 1.299.512.294 1.106.441 1.783.441.44 0 .838-.062 1.193-.185.36-.128.67-.317.93-.568.261-.256.462-.573.604-.952l1.619.455c-.17.549-.456 1.032-.859 1.449-.402.412-.9.734-1.491.966-.592.227-1.258.34-1.996.34z"/><path d="m551.195 107.372v-10.9089h1.619v1.6477h.114c.198-.5398.558-.9778 1.079-1.3139.521-.3362 1.108-.5043 1.761-.5043.124 0 .277.0024.462.0071s.324.0118.419.0213v1.7046c-.057-.0142-.187-.0356-.39-.064-.199-.0331-.41-.0497-.633-.0497-.53 0-1.003.1113-1.42.3338-.412.2178-.739.5209-.98.9091-.237.3835-.355.8215-.355 1.3142v6.903z"/><path d="m544.455 107.599c-1.023 0-1.904-.241-2.643-.724-.738-.483-1.306-1.148-1.704-1.996-.398-.847-.597-1.816-.597-2.905 0-1.108.204-2.0852.611-2.9328.412-.8523.985-1.5175 1.719-1.9957.739-.483 1.6-.7245 2.585-.7245.767 0 1.458.1421 2.074.4262.615.2841 1.12.6818 1.513 1.1932.393.5113.637 1.1079.731 1.7897h-1.676c-.128-.4971-.412-.9375-.852-1.321-.436-.3882-1.023-.5824-1.761-.5824-.654 0-1.227.1705-1.719.5114-.488.3362-.869.812-1.144 1.4275-.27.6104-.405 1.3284-.405 2.1524 0 .842.133 1.576.398 2.201.27.625.649 1.111 1.137 1.456.492.346 1.07.519 1.733.519.435 0 .83-.076 1.186-.228.355-.151.655-.369.902-.653.246-.284.421-.625.525-1.023h1.676c-.094.644-.329 1.224-.703 1.74-.369.512-.859.919-1.47 1.222-.606.298-1.312.447-2.116.447z"/><path d="m532.956 107.599c-1.051 0-1.958-.232-2.72-.696-.758-.468-1.343-1.122-1.754-1.96-.408-.843-.611-1.823-.611-2.94 0-1.118.203-2.1024.611-2.9547.411-.857.984-1.5246 1.718-2.0028.739-.483 1.601-.7245 2.585-.7245.569 0 1.13.0947 1.684.2841s1.058.4972 1.513.9233c.454.4214.816.9801 1.086 1.6762.27.696.405 1.5534.405 2.5714v.71h-8.409v-1.449h6.704c0-.616-.123-1.1648-.369-1.6478-.241-.4829-.587-.8641-1.037-1.1434-.445-.2794-.97-.4191-1.577-.4191-.667 0-1.245.1657-1.732.4972-.483.3267-.855.7528-1.116 1.2784-.26.5257-.39 1.0887-.39 1.6907v.966c0 .823.142 1.522.426 2.095.289.568.689 1.001 1.2 1.299.512.294 1.106.441 1.783.441.44 0 .838-.062 1.193-.185.36-.128.67-.317.931-.568.26-.256.461-.573.603-.952l1.62.455c-.171.549-.457 1.032-.86 1.449-.402.412-.899.734-1.491.966-.592.227-1.257.34-1.996.34z"/><path d="m523.81 96.4632c-.085-.7197-.431-1.2785-1.037-1.6762s-1.349-.5966-2.23-.5966c-.644 0-1.207.1042-1.69.3125-.479.2084-.853.4948-1.123.8594-.265.3646-.397.7789-.397 1.2429 0 .3883.092.7221.277 1.0014.189.2746.431.5043.724.6889.294.18.602.3291.923.4475.322.1136.618.206.888.277l1.478.3977c.378.0994.8.2367 1.264.4119.468.1754.916.4144 1.342.7174.431.298.786.682 1.065 1.151.28.468.419 1.044.419 1.725 0 .786-.206 1.497-.617 2.131-.408.635-1.004 1.139-1.79 1.513-.781.374-1.731.561-2.848.561-1.042 0-1.944-.168-2.706-.504-.758-.337-1.354-.805-1.79-1.407-.431-.601-.675-1.299-.732-2.095h1.819c.047.549.232 1.004.554 1.364.326.355.738.62 1.235.795.502.171 1.042.256 1.62.256.672 0 1.276-.109 1.811-.327.535-.222.959-.53 1.271-.923.313-.398.469-.862.469-1.392 0-.483-.135-.876-.405-1.179s-.625-.549-1.065-.739c-.441-.189-.916-.355-1.428-.497l-1.79-.511c-1.136-.327-2.036-.7932-2.698-1.3993-.663-.6061-.995-1.3992-.995-2.3793 0-.8144.22-1.5246.661-2.1307.445-.6107 1.041-1.0842 1.789-1.4204.753-.3409 1.594-.5114 2.522-.5114.937 0 1.771.1681 2.5.5043.729.3314 1.307.786 1.733 1.3636.431.5777.658 1.2335.682 1.9674z"/><path d="m502.936 107.599c-1.051 0-1.957-.232-2.72-.696-.757-.468-1.342-1.122-1.754-1.96-.407-.843-.611-1.823-.611-2.94 0-1.118.204-2.1024.611-2.9547.412-.857.985-1.5246 1.719-2.0028.738-.483 1.6-.7245 2.585-.7245.568 0 1.129.0947 1.683.2841s1.058.4972 1.513.9233c.455.4214.817.9801 1.087 1.6762.27.696.404 1.5534.404 2.5714v.71h-8.409v-1.449h6.705c0-.616-.123-1.1648-.369-1.6478-.242-.4829-.588-.8641-1.037-1.1434-.445-.2794-.971-.4191-1.577-.4191-.668 0-1.245.1657-1.733.4972-.483.3267-.855.7528-1.115 1.2784-.26.5257-.391 1.0887-.391 1.6907v.966c0 .823.142 1.522.426 2.095.289.568.689 1.001 1.201 1.299.511.294 1.105.441 1.782.441.441 0 .838-.062 1.194-.185.359-.128.67-.317.93-.568.26-.256.462-.573.604-.952l1.619.455c-.17.549-.457 1.032-.859 1.449-.403.412-.9.734-1.492.966-.592.227-1.257.34-1.996.34z"/><path d="m488.222 100.81v6.562h-1.676v-14.5452h1.676v5.3409h.142c.256-.5635.64-1.0109 1.151-1.3423.516-.3362 1.203-.5043 2.06-.5043.743 0 1.394.1491 1.953.4474.558.2936.992.7458 1.299 1.3566.313.606.469 1.3778.469 2.3149v6.932h-1.676v-6.818c0-.8664-.225-1.5364-.675-2.0099-.445-.4782-1.063-.7173-1.853-.7173-.55 0-1.042.116-1.478.348-.431.232-.771.5705-1.022 1.0156-.247.4451-.37.9846-.37 1.6196z"/><path d="m483.79 96.4631v1.4205h-5.653v-1.4205zm-4.005-2.6136h1.676v10.3975c0 .474.069.829.206 1.066.142.232.322.388.54.468.222.076.457.114.703.114.184 0 .336-.01.454-.028.119-.024.213-.043.284-.057l.341 1.505c-.113.043-.272.086-.475.128-.204.048-.462.071-.775.071-.473 0-.937-.102-1.392-.305-.449-.204-.824-.514-1.122-.931-.293-.416-.44-.942-.44-1.576z"/><path d="m466.354 107.599c-1.051 0-1.957-.232-2.72-.696-.757-.468-1.342-1.122-1.754-1.96-.407-.843-.611-1.823-.611-2.94 0-1.118.204-2.1024.611-2.9547.412-.857.985-1.5246 1.719-2.0028.738-.483 1.6-.7245 2.585-.7245.568 0 1.129.0947 1.683.2841s1.058.4972 1.513.9233c.454.4214.817.9801 1.087 1.6762.269.696.404 1.5534.404 2.5714v.71h-8.409v-1.449h6.705c0-.616-.123-1.1648-.369-1.6478-.242-.4829-.588-.8641-1.037-1.1434-.445-.2794-.971-.4191-1.577-.4191-.668 0-1.245.1657-1.733.4972-.483.3267-.855.7528-1.115 1.2784-.261.5257-.391 1.0887-.391 1.6907v.966c0 .823.142 1.522.426 2.095.289.568.689 1.001 1.201 1.299.511.294 1.105.441 1.782.441.441 0 .838-.062 1.194-.185.359-.128.67-.317.93-.568.26-.256.462-.573.604-.952l1.619.455c-.17.549-.457 1.032-.859 1.449-.403.412-.9.734-1.492.966-.592.227-1.257.34-1.996.34z"/><path d="m459.059 98.9063-1.506.4261c-.095-.2509-.234-.4948-.419-.7315-.18-.2415-.426-.4404-.739-.5966-.312-.1563-.712-.2344-1.2-.2344-.668 0-1.224.1539-1.669.4617-.44.303-.661.6889-.661 1.1576 0 .4167.152.7458.455.9868.303.242.776.443 1.42.604l1.62.398c.975.237 1.702.599 2.18 1.087.478.482.717 1.105.717 1.867 0 .625-.179 1.184-.539 1.677-.355.492-.853.88-1.492 1.164s-1.382.426-2.23.426c-1.113 0-2.034-.241-2.763-.724s-1.19-1.188-1.385-2.116l1.591-.398c.152.587.438 1.027.86 1.321.426.293.982.44 1.669.44.781 0 1.401-.166 1.86-.497.465-.336.697-.739.697-1.207 0-.379-.133-.696-.398-.952-.265-.26-.673-.455-1.222-.582l-1.818-.427c-.999-.236-1.733-.603-2.202-1.1-.464-.502-.696-1.13-.696-1.8825 0-.6156.173-1.1601.519-1.6336.35-.4735.826-.8451 1.427-1.115.606-.2699 1.293-.4049 2.06-.4049 1.08 0 1.927.2368 2.543.7103.62.4735 1.06 1.0985 1.321 1.875z"/><path d="m446.585 102.912v-6.4489h1.676v10.9089h-1.676v-1.846h-.113c-.256.554-.654 1.025-1.194 1.413-.539.384-1.221.575-2.045.575-.682 0-1.288-.149-1.818-.447-.531-.303-.947-.758-1.25-1.364-.303-.611-.455-1.38-.455-2.308v-6.9319h1.676v6.8179c0 .796.223 1.43.668 1.904.45.473 1.023.71 1.719.71.416 0 .84-.107 1.271-.32.436-.213.8-.539 1.094-.98.298-.44.447-1.001.447-1.683z"/><path d="m426.583 107.599c-.984 0-1.849-.234-2.592-.703-.739-.468-1.316-1.124-1.733-1.967-.412-.843-.618-1.828-.618-2.955 0-1.136.206-2.1279.618-2.9754.417-.8475.994-1.5057 1.733-1.9744.743-.4688 1.608-.7032 2.592-.7032.985 0 1.847.2344 2.586.7032.743.4687 1.321 1.1269 1.733 1.9744.416.8475.625 1.8394.625 2.9754 0 1.127-.209 2.112-.625 2.955-.412.843-.99 1.499-1.733 1.967-.739.469-1.601.703-2.586.703zm0-1.505c.749 0 1.364-.192 1.847-.576.483-.383.84-.887 1.072-1.512s.348-1.302.348-2.032c0-.729-.116-1.408-.348-2.0379-.232-.6297-.589-1.1387-1.072-1.527-.483-.3882-1.098-.5824-1.847-.5824-.748 0-1.363.1942-1.846.5824-.483.3883-.841.8973-1.073 1.527-.232.6299-.348 1.3089-.348 2.0379 0 .73.116 1.407.348 2.032s.59 1.129 1.073 1.512c.483.384 1.098.576 1.846.576z"/><path d="m419.748 96.4631v1.4205h-5.654v-1.4205zm-4.006-2.6136h1.676v10.3975c0 .474.069.829.206 1.066.142.232.322.388.54.468.222.076.457.114.703.114.185 0 .336-.01.454-.028.119-.024.213-.043.284-.057l.341 1.505c-.113.043-.272.086-.475.128-.204.048-.462.071-.775.071-.473 0-.937-.102-1.392-.305-.449-.204-.824-.514-1.122-.931-.293-.416-.44-.942-.44-1.576z"/><path d="m395.6 107.372-3.324-10.9089h1.761l2.358 8.3519h.114l2.329-8.3519h1.79l2.301 8.3239h.114l2.358-8.3239h1.761l-3.324 10.9089h-1.647l-2.387-8.3805h-.17l-2.387 8.3805z"/><path d="m385.998 107.599c-.985 0-1.849-.234-2.593-.703-.738-.468-1.316-1.124-1.733-1.967-.412-.843-.618-1.828-.618-2.955 0-1.136.206-2.1279.618-2.9754.417-.8475.995-1.5057 1.733-1.9744.744-.4688 1.608-.7032 2.593-.7032.984 0 1.846.2344 2.585.7032.743.4687 1.321 1.1269 1.733 1.9744.416.8475.625 1.8394.625 2.9754 0 1.127-.209 2.112-.625 2.955-.412.843-.99 1.499-1.733 1.967-.739.469-1.601.703-2.585.703zm0-1.505c.748 0 1.363-.192 1.846-.576.483-.383.841-.887 1.073-1.512s.348-1.302.348-2.032c0-.729-.116-1.408-.348-2.0379-.232-.6297-.59-1.1387-1.073-1.527-.483-.3882-1.098-.5824-1.846-.5824-.749 0-1.364.1942-1.847.5824-.483.3883-.841.8973-1.073 1.527-.232.6299-.348 1.3089-.348 2.0379 0 .73.116 1.407.348 2.032s.59 1.129 1.073 1.512c.483.384 1.098.576 1.847.576z"/><path d="m371.425 100.81v6.562h-1.676v-14.5452h1.676v5.3409h.142c.256-.5635.64-1.0109 1.151-1.3423.516-.3362 1.203-.5043 2.06-.5043.743 0 1.394.1491 1.953.4474.559.2936.992.7458 1.3 1.3566.312.606.468 1.3778.468 2.3149v6.932h-1.676v-6.818c0-.8664-.225-1.5364-.675-2.0099-.445-.4782-1.063-.7173-1.853-.7173-.55 0-1.042.116-1.478.348-.43.232-.771.5705-1.022 1.0156-.246.4451-.37.9846-.37 1.6196z"/><path d="m354.101 100.81v6.562h-1.676v-10.9089h1.619v1.7045h.142c.256-.5539.644-.999 1.165-1.3352.521-.3409 1.193-.5114 2.017-.5114.739 0 1.385.1516 1.939.4546.554.2983.985.7528 1.293 1.3636.308.6061.461 1.3731.461 2.3008v6.932h-1.676v-6.818c0-.857-.222-1.5246-.667-2.0028-.445-.483-1.056-.7245-1.833-.7245-.535 0-1.013.116-1.434.348-.417.232-.746.5706-.988 1.0157-.241.445-.362.9846-.362 1.6196z"/><path d="m344.923 107.599c-.985 0-1.849-.234-2.592-.703-.739-.468-1.316-1.124-1.733-1.967-.412-.843-.618-1.828-.618-2.955 0-1.136.206-2.1279.618-2.9754.417-.8475.994-1.5057 1.733-1.9744.743-.4688 1.607-.7032 2.592-.7032s1.847.2344 2.586.7032c.743.4687 1.321 1.1269 1.732 1.9744.417.8475.625 1.8394.625 2.9754 0 1.127-.208 2.112-.625 2.955-.411.843-.989 1.499-1.732 1.967-.739.469-1.601.703-2.586.703zm0-1.505c.748 0 1.364-.192 1.847-.576.483-.383.84-.887 1.072-1.512s.348-1.302.348-2.032c0-.729-.116-1.408-.348-2.0379-.232-.6297-.589-1.1387-1.072-1.527-.483-.3882-1.099-.5824-1.847-.5824s-1.363.1942-1.846.5824c-.483.3883-.841.8973-1.073 1.527-.232.6299-.348 1.3089-.348 2.0379 0 .73.116 1.407.348 2.032s.59 1.129 1.073 1.512c.483.384 1.098.576 1.846.576z"/><path d="m332.145 98.9063-1.506.4261c-.095-.2509-.234-.4948-.419-.7315-.18-.2415-.426-.4404-.739-.5966-.312-.1563-.712-.2344-1.2-.2344-.668 0-1.224.1539-1.669.4617-.44.303-.661.6889-.661 1.1576 0 .4167.152.7458.455.9868.303.242.776.443 1.42.604l1.62.398c.975.237 1.702.599 2.18 1.087.478.482.717 1.105.717 1.867 0 .625-.18 1.184-.539 1.677-.355.492-.853.88-1.492 1.164s-1.382.426-2.23.426c-1.113 0-2.034-.241-2.763-.724s-1.191-1.188-1.385-2.116l1.591-.398c.152.587.438 1.027.86 1.321.426.293.982.44 1.669.44.781 0 1.401-.166 1.86-.497.464-.336.696-.739.696-1.207 0-.379-.132-.696-.397-.952-.265-.26-.673-.455-1.222-.582l-1.818-.427c-.999-.236-1.733-.603-2.202-1.1-.464-.502-.696-1.13-.696-1.8825 0-.6156.173-1.1601.519-1.6336.35-.4735.826-.8451 1.427-1.115.606-.2699 1.293-.4049 2.06-.4049 1.079 0 1.927.2368 2.543.7103.62.4735 1.06 1.0985 1.321 1.875z"/><path d="m314.394 100.81v6.562h-1.676v-10.9089h1.619v1.7045h.142c.256-.5539.644-.999 1.165-1.3352.521-.3409 1.193-.5114 2.017-.5114.739 0 1.385.1516 1.939.4546.554.2983.985.7528 1.293 1.3636.307.6061.461 1.3731.461 2.3008v6.932h-1.676v-6.818c0-.857-.222-1.5246-.667-2.0028-.445-.483-1.056-.7245-1.833-.7245-.535 0-1.013.116-1.434.348-.417.232-.746.5706-.988 1.0157-.241.445-.362.9846-.362 1.6196z"/><path d="m305.216 107.599c-.985 0-1.849-.234-2.592-.703-.739-.468-1.316-1.124-1.733-1.967-.412-.843-.618-1.828-.618-2.955 0-1.136.206-2.1279.618-2.9754.417-.8475.994-1.5057 1.733-1.9744.743-.4688 1.607-.7032 2.592-.7032s1.847.2344 2.585.7032c.744.4687 1.322 1.1269 1.733 1.9744.417.8475.625 1.8394.625 2.9754 0 1.127-.208 2.112-.625 2.955-.411.843-.989 1.499-1.733 1.967-.738.469-1.6.703-2.585.703zm0-1.505c.748 0 1.364-.192 1.847-.576.483-.383.84-.887 1.072-1.512s.348-1.302.348-2.032c0-.729-.116-1.408-.348-2.0379-.232-.6297-.589-1.1387-1.072-1.527-.483-.3882-1.099-.5824-1.847-.5824s-1.363.1942-1.846.5824c-.483.3883-.841.8973-1.073 1.527-.232.6299-.348 1.3089-.348 2.0379 0 .73.116 1.407.348 2.032s.59 1.129 1.073 1.512c.483.384 1.098.576 1.846.576z"/><path d="m296.038 107.372v-10.9089h1.676v10.9089zm.853-12.7271c-.327 0-.609-.1112-.846-.3338-.232-.2225-.348-.49-.348-.8025s.116-.5801.348-.8026c.237-.2225.519-.3338.846-.3338.326 0 .606.1113.838.3338.236.2225.355.4901.355.8026s-.119.58-.355.8025c-.232.2226-.512.3338-.838.3338z"/><path d="m293.517 96.4631v1.4205h-5.653v-1.4205zm-4.006-2.6136h1.677v10.3975c0 .474.068.829.205 1.066.143.232.322.388.54.468.223.076.457.114.703.114.185 0 .337-.01.455-.028.118-.024.213-.043.284-.057l.341 1.505c-.114.043-.272.086-.476.128-.204.048-.462.071-.774.071-.474 0-.938-.102-1.392-.305-.45-.204-.824-.514-1.122-.931-.294-.416-.441-.942-.441-1.576z"/><path d="m282.033 107.599c-1.023 0-1.904-.241-2.642-.724-.739-.483-1.307-1.148-1.705-1.996-.398-.847-.597-1.816-.597-2.905 0-1.108.204-2.0852.611-2.9328.412-.8523.985-1.5175 1.719-1.9957.739-.483 1.6-.7245 2.585-.7245.767 0 1.459.1421 2.074.4262.616.2841 1.12.6818 1.513 1.1932.393.5113.637 1.1079.731 1.7897h-1.676c-.128-.4971-.412-.9375-.852-1.321-.436-.3882-1.023-.5824-1.761-.5824-.654 0-1.227.1705-1.719.5114-.488.3362-.869.812-1.144 1.4275-.269.6104-.404 1.3284-.404 2.1524 0 .842.132 1.576.397 2.201.27.625.649 1.111 1.137 1.456.492.346 1.07.519 1.733.519.435 0 .831-.076 1.186-.228.355-.151.656-.369.902-.653s.421-.625.525-1.023h1.676c-.094.644-.329 1.224-.703 1.74-.369.512-.859.919-1.47 1.222-.606.298-1.311.447-2.116.447z"/><path d="m272.855 102.912v-6.4489h1.676v10.9089h-1.676v-1.846h-.114c-.256.554-.653 1.025-1.193 1.413-.54.384-1.222.575-2.046.575-.681 0-1.287-.149-1.818-.447-.53-.303-.947-.758-1.25-1.364-.303-.611-.454-1.38-.454-2.308v-6.9319h1.676v6.8179c0 .796.222 1.43.667 1.904.45.473 1.023.71 1.719.71.417 0 .841-.107 1.272-.32.435-.213.8-.539 1.093-.98.299-.44.448-1.001.448-1.683z"/><path d="m258.538 107.372v-10.9089h1.62v1.6477h.113c.199-.5398.559-.9778 1.08-1.3139.521-.3362 1.108-.5043 1.761-.5043.123 0 .277.0024.462.0071s.324.0118.419.0213v1.7046c-.057-.0142-.187-.0356-.391-.064-.199-.0331-.409-.0497-.632-.0497-.53 0-1.004.1113-1.42.3338-.412.2178-.739.5209-.98.9091-.237.3835-.356.8215-.356 1.3142v6.903z"/><path d="m256.017 96.4631v1.4205h-5.653v-1.4205zm-4.006-2.6136h1.677v10.3975c0 .474.068.829.205 1.066.143.232.322.388.54.468.223.076.457.114.703.114.185 0 .337-.01.455-.028.118-.024.213-.043.284-.057l.341 1.505c-.114.043-.272.086-.476.128-.204.048-.462.071-.774.071-.474 0-.938-.102-1.392-.305-.45-.204-.824-.514-1.122-.931-.294-.416-.441-.942-.441-1.576z"/><path d="m248.551 98.9063-1.506.4261c-.095-.2509-.234-.4948-.419-.7315-.18-.2415-.426-.4404-.739-.5966-.312-.1563-.712-.2344-1.2-.2344-.667 0-1.224.1539-1.669.4617-.44.303-.66.6889-.66 1.1576 0 .4167.151.7458.454.9868.303.242.777.443 1.421.604l1.619.398c.975.237 1.702.599 2.18 1.087.479.482.718 1.105.718 1.867 0 .625-.18 1.184-.54 1.677-.355.492-.852.88-1.492 1.164-.639.284-1.382.426-2.23.426-1.112 0-2.033-.241-2.762-.724-.73-.483-1.191-1.188-1.385-2.116l1.59-.398c.152.587.438 1.027.86 1.321.426.293.982.44 1.669.44.781 0 1.401-.166 1.861-.497.464-.336.696-.739.696-1.207 0-.379-.133-.696-.398-.952-.265-.26-.672-.455-1.222-.582l-1.818-.427c-.999-.236-1.733-.603-2.201-1.1-.465-.502-.697-1.13-.697-1.8825 0-.6156.173-1.1601.519-1.6336.35-.4735.826-.8451 1.428-1.115.606-.2699 1.292-.4049 2.059-.4049 1.08 0 1.927.2368 2.543.7103.62.4735 1.06 1.0985 1.321 1.875z"/><path d="m230.8 100.81v6.562h-1.676v-10.9089h1.62v1.7045h.142c.255-.5539.644-.999 1.164-1.3352.521-.3409 1.194-.5114 2.017-.5114.739 0 1.385.1516 1.939.4546.554.2983.985.7528 1.293 1.3636.308.6061.462 1.3731.462 2.3008v6.932h-1.677v-6.818c0-.857-.222-1.5246-.667-2.0028-.445-.483-1.056-.7245-1.833-.7245-.535 0-1.013.116-1.434.348-.417.232-.746.5706-.987 1.0157-.242.445-.363.9846-.363 1.6196z"/><path d="m224.378 107.372v-10.9089h1.676v10.9089zm.853-12.7271c-.327 0-.609-.1112-.846-.3338-.232-.2225-.348-.49-.348-.8025s.116-.5801.348-.8026c.237-.2225.519-.3338.846-.3338.326 0 .606.1113.838.3338.236.2225.355.4901.355.8026s-.119.58-.355.8025c-.232.2226-.512.3338-.838.3338z"/><path d="m210.451 107.6c-.909 0-1.712-.23-2.408-.689-.696-.464-1.241-1.118-1.634-1.961-.393-.847-.589-1.849-.589-3.004 0-1.146.196-2.1401.589-2.9829s.94-1.4938 1.641-1.9531 1.51-.6889 2.429-.6889c.71 0 1.271.1184 1.683.3551.417.232.734.4972.952.7955.223.2935.395.535.518.7244h.142v-5.3693h1.677v14.5452h-1.62v-1.676h-.199c-.123.199-.298.45-.525.753-.227.298-.552.566-.973.802-.422.233-.983.349-1.683.349zm.227-1.506c.672 0 1.24-.175 1.704-.526.464-.355.817-.845 1.059-1.47.241-.63.362-1.356.362-2.18 0-.815-.118-1.527-.355-2.1381-.237-.6155-.587-1.0937-1.051-1.4347-.464-.3456-1.037-.5184-1.719-.5184-.71 0-1.302.1823-1.776.5469-.468.3598-.821.8499-1.058 1.4701-.232.6152-.348 1.3072-.348 2.0742 0 .776.118 1.482.355 2.116.242.63.597 1.132 1.066 1.506.473.369 1.06.554 1.761.554z"/><path d="m199.265 107.599c-1.052 0-1.958-.232-2.721-.696-.757-.468-1.342-1.122-1.754-1.96-.407-.843-.611-1.823-.611-2.94 0-1.118.204-2.1024.611-2.9547.412-.857.985-1.5246 1.719-2.0028.739-.483 1.6-.7245 2.585-.7245.568 0 1.129.0947 1.683.2841s1.059.4972 1.513.9233c.455.4214.817.9801 1.087 1.6762.27.696.405 1.5534.405 2.5714v.71h-8.409v-1.449h6.704c0-.616-.123-1.1648-.369-1.6478-.242-.4829-.587-.8641-1.037-1.1434-.445-.2794-.971-.4191-1.577-.4191-.668 0-1.245.1657-1.733.4972-.483.3267-.855.7528-1.115 1.2784-.26.5257-.391 1.0887-.391 1.6907v.966c0 .823.143 1.522.427 2.095.288.568.689 1.001 1.2 1.299.511.294 1.105.441 1.783.441.44 0 .838-.062 1.193-.185.36-.128.67-.317.93-.568.261-.256.462-.573.604-.952l1.619.455c-.17.549-.457 1.032-.859 1.449-.403.412-.9.734-1.492.966-.592.227-1.257.34-1.995.34z"/><path d="m191.621 92.8268v14.5452h-1.676v-14.5452z"/><path d="m185.198 107.372v-10.9089h1.677v10.9089zm.853-12.7271c-.327 0-.609-.1112-.845-.3338-.232-.2225-.348-.49-.348-.8025s.116-.5801.348-.8026c.236-.2225.518-.3338.845-.3338.326 0 .606.1113.838.3338.237.2225.355.4901.355.8026s-.118.58-.355.8025c-.232.2226-.512.3338-.838.3338z"/><path d="m177.139 107.628c-.691 0-1.318-.13-1.882-.391-.563-.265-1.011-.646-1.342-1.143-.332-.502-.497-1.108-.497-1.818 0-.625.123-1.132.369-1.52.246-.393.575-.701.987-.924.412-.222.867-.388 1.364-.497.502-.113 1.006-.203 1.513-.27.662-.085 1.2-.149 1.612-.191.416-.048.719-.126.909-.235.194-.109.291-.298.291-.568v-.057c0-.7005-.192-1.245-.575-1.6333-.379-.3883-.954-.5824-1.726-.5824-.8 0-1.428.1752-1.882.5256-.455.3504-.774.7244-.959 1.1221l-1.591-.5681c.284-.6629.663-1.179 1.136-1.5483.479-.3741 1-.6345 1.563-.7813.568-.1515 1.127-.2273 1.676-.2273.35 0 .753.0427 1.207.1279.46.0805.902.2486 1.329.5042.43.2557.788.6416 1.072 1.1577s.426 1.2074.426 2.0742v7.187h-1.676v-1.477h-.085c-.114.237-.303.49-.568.76-.266.27-.618.499-1.059.689-.44.189-.977.284-1.612.284zm.256-1.506c.663 0 1.221-.13 1.676-.39.459-.261.805-.597 1.037-1.009.237-.412.355-.845.355-1.3v-1.534c-.071.085-.227.164-.469.235-.236.066-.511.125-.824.177-.307.048-.608.09-.902.128-.288.033-.523.062-.703.085-.435.057-.842.149-1.221.277-.374.123-.677.31-.909.561-.228.247-.341.583-.341 1.009 0 .582.215 1.023.646 1.321.436.293.987.44 1.655.44z"/><path d="m171.408 96.4631v1.4205h-5.654v-1.4205zm-4.006-2.6136h1.676v10.3975c0 .474.069.829.206 1.066.142.232.322.388.54.468.222.076.457.114.703.114.185 0 .336-.01.455-.028.118-.024.213-.043.284-.057l.341 1.505c-.114.043-.273.086-.476.128-.204.048-.462.071-.774.071-.474 0-.938-.102-1.392-.305-.45-.204-.824-.514-1.123-.931-.293-.416-.44-.942-.44-1.576z"/><path d="m159.597 107.599c-1.052 0-1.958-.232-2.721-.696-.757-.468-1.342-1.122-1.754-1.96-.407-.843-.611-1.823-.611-2.94 0-1.118.204-2.1024.611-2.9547.412-.857.985-1.5246 1.719-2.0028.739-.483 1.6-.7245 2.585-.7245.568 0 1.129.0947 1.683.2841s1.059.4972 1.513.9233c.455.4214.817.9801 1.087 1.6762.27.696.405 1.5534.405 2.5714v.71h-8.409v-1.449h6.704c0-.616-.123-1.1648-.369-1.6478-.242-.4829-.587-.8641-1.037-1.1434-.445-.2794-.971-.4191-1.577-.4191-.667 0-1.245.1657-1.733.4972-.483.3267-.854.7528-1.115 1.2784-.26.5257-.391 1.0887-.391 1.6907v.966c0 .823.143 1.522.427 2.095.288.568.689 1.001 1.2 1.299.511.294 1.105.441 1.783.441.44 0 .838-.062 1.193-.185.36-.128.67-.317.93-.568.261-.256.462-.573.604-.952l1.619.455c-.17.549-.457 1.032-.859 1.449-.403.412-.9.734-1.492.966-.592.227-1.257.34-1.995.34z"/><path d="m145.364 107.372h-4.489v-14.5452h4.687c1.411 0 2.619.2912 3.623.8736 1.003.5776 1.773 1.4086 2.308 2.4929.535 1.0795.802 2.3721.802 3.8777 0 1.515-.269 2.82-.809 3.913-.54 1.089-1.326 1.928-2.358 2.515-1.032.582-2.287.873-3.764.873zm-2.728-1.562h2.614c1.203 0 2.199-.232 2.99-.696s1.38-1.125 1.769-1.982c.388-.857.582-1.877.582-3.061 0-1.1741-.192-2.185-.575-3.0326-.384-.8522-.957-1.5057-1.719-1.9602-.762-.4593-1.712-.6889-2.848-.6889h-2.813z"/></g></svg>