<svg fill="none" height="224" viewBox="0 0 772 224" width="772" xmlns="http://www.w3.org/2000/svg" xmlns:xlink="http://www.w3.org/1999/xlink"><clipPath id="a"><path d="m16 32h110.2v160h-110.2z"/></clipPath><g clip-path="url(#a)"><path d="m29.25 181.981c0 3.802-.1498 5.769-.4755 5.769h-4.5653c-.3257 0-3.7092-1.966-3.7092-5.769v-74.596c0-3.803 2.0519-6.885 2.3777-6.885h5.7825c.3257 0 .5898 3.082.5898 6.885z" fill="#ececec"/><path d="m107.882 70.6418c0 .025.002.0497.002.0752v-.0222c0-.0175-.002-.0353-.002-.053zm-.222-3.6955c.02.1714.034.3464.051.5183-.016-.1719-.031-.3469-.051-.5183zm-.329-2.1145c.045.2398.09.479.13.7193-.039-.2413-.085-.4795-.13-.7193zm-2.86 5.2463v-.686c0-12.5583-7.1823-23.6288-17.4811-30.1582 8.627 4.1859 15.6091 11.4744 18.8811 20.3184-5.186-14.0555-19.7282-24.1963-35.3682-24.1963-19.5399 0-38.0502 15.8215-38.0502 35.339v47.896h8.4911v-45.9215c0-14.9508 11.4474-27.0697 26.4138-27.0697 4.819 0 8.0289 1.263 11.9269 3.4664 10.2331 3.6128 17.5669 7.3555 17.5669 18.8138v4.908c0 1.6262.8922 3.0644 2.2622 3.9575 2.9845-.1943 5.3575-3.0999 5.3575-6.6674zm3.336-1.5016c.012.1794.023.3587.032.539-.009-.1803-.021-.3596-.032-.539zm-.804-5.3014c.063.2644.119.5309.177.7974-.057-.2665-.114-.5332-.177-.7974z" fill="#ececec"/><path d="m40.9438 72.6695v45.9425h3.8788v-44.7098c0-14.5344 11.1287-26.317 25.68-26.317 3.1175 0 6.1069.5442 8.8819 1.5368l-.1003-.0558c-3.898-2.2034-7.1077-3.4664-11.9269-3.4664-14.9662 0-26.4135 12.1189-26.4135 27.0697zm66.8952-3.554c-.009-.1803-.02-.3596-.032-.539-.025-.3712-.057-.7419-.096-1.1119-.017-.1719-.031-.3469-.051-.5183-.056-.4664-.123-.9316-.199-1.3952-.04-.2403-.085-.4795-.13-.7193-.048-.2537-.098-.5068-.151-.7593-.058-.2665-.114-.533-.177-.7974-.047-.1915-.098-.3823-.148-.5733-.139-.5409-.293-1.0781-.461-1.6108-.04-.1287-.078-.2567-.12-.3847-.111-.3388-.228-.6758-.35-1.0108-.017-.0481-.036-.0955-.053-.1432-3.272-8.8438-10.254-16.1325-18.8811-20.3184 10.2989 6.5294 17.4811 17.5999 17.4811 30.1582v.686c0 3.5673-2.373 6.4729-5.3575 6.6674-.0093.0005-.0187.0026-.0285.0035.918.6068 2.051.9697 3.283.9697 3.046 0 5.516-2.9105 5.516-6.5008v-.5009c0-.0255-.001-.0502-.001-.0752-.002-.509-.017-1.0179-.044-1.5263z" fill="#a7a7a7"/><path d="m103.359 78.6805c-4.0621 0-7.3669-3.0275-7.3669-6.7487v1.0114c0-13.7734-11.2192-24.9789-25.0087-24.9789-12.4607 0-22.3597 9.4228-23.5373 22.4049-.0881.9688-.9458 1.6814-1.9147 1.5947-.2305-.0208-.4547-.0867-.6597-.1941s-.3869-.254-.5351-.4316c-.1483-.1775-.2601-.3825-.329-.6032-.0689-.2208-.0936-.4529-.0727-.6832 1.3463-14.8391 12.7216-25.6092 27.0487-25.6092 15.734 0 28.5345 12.7852 28.5345 28.5006v-1.0114c0 1.7795 1.7239 3.227 3.8419 3.227 2.12 0 3.844-2.1741 3.844-4.8462v-.6045c0-2.9897-.44-5.9696-1.306-8.8572-.067-.2215-.089-.4539-.066-.684.024-.23.092-.4532.202-.6568s.259-.3836.438-.5297c.18-.1461.386-.2555.608-.3218.933-.2803 1.915.2501 2.195 1.1808.963 3.2013 1.453 6.526 1.455 9.8689v.6046c0 4.6135-3.307 8.3676-7.371 8.3676z" fill="#475569"/><path d="m47.3308 120.135h-15.3937v-50.4272c0-14.6912 9.8644-28.6685 24.5466-34.7812.4303-.1732.9116-.17 1.3396.0089s.7681.5191.9466.9468c.1785.4278.181.9085.007 1.3381s-.5105.7733-.9366.9567c-13.3845 5.5723-22.3775 18.2436-22.3775 31.5307v46.9052h8.3425v-36.5105c.0075-.4621.1966-.9026.5263-1.2267.3298-.324.7739-.5056 1.2365-.5056s.9066.1816 1.2364.5056c.3298.3241.5188.7646.5263 1.2267zm47.3771-76.3503c-.3896.0003-.7683-.1288-1.0763-.3672-6.5659-5.0662-14.6095-7.8562-22.6482-7.8562-1.731 0-3.4648.1297-5.1534.3856-.9589.1448-1.861-.5152-2.0074-1.4769-.0701-.4618.0464-.9324.3237-1.3084s.6927-.6266 1.155-.6967c1.8807-.2837 3.78-.4259 5.6821-.4255 8.8143 0 17.6232 3.0511 24.8036 8.5907.2911.2248.5044.5349.6103.8868.1058.352.0987.7282-.0202 1.076-.119.3478-.3439.6496-.6432.8633s-.6581.3286-1.026.3285zm8.6181 9.2448c-.293.0003-.581-.0722-.838-.2109-.258-.1387-.477-.3393-.637-.5836-.197-.2996-.393-.5998-.588-.9006-1.094-1.6851-1.4625-2.2526-3.1556-3.8517-.3383-.3212-.5353-.7634-.5478-1.2295-.0124-.4661.1608-.9182.4816-1.2569.3207-.3388.7629-.5366 1.2295-.5502s.9193.1583 1.2593.4778c1.999 1.8883 2.529 2.705 3.691 4.4942.173.267.363.5591.577.8835.127.1933.214.4097.258.6369.043.2271.041.4606-.006.687-.047.2265-.138.4414-.268.6326s-.297.3549-.491.4818c-.286.1892-.622.2899-.965.2896z" fill="#475569"/><path d="m123.98 182.691c0 3.931-2.94 7.119-6.566 7.119h-84.2745c-3.6265 0-6.5671-3.188-6.5671-7.119v-77.126c0-3.932 2.9406-7.1186 6.5671-7.1186h84.2745c3.626 0 6.566 3.1866 6.566 7.1186z" fill="#fdd72c"/><path d="m116.852 98.4464h-18.4118c3.9358 0 7.1268 3.1866 7.1268 7.1186v77.126c0 3.931-3.191 7.119-7.1268 7.119h18.4118c3.936 0 7.128-3.188 7.128-7.119v-77.126c0-3.932-3.192-7.1186-7.128-7.1186z" fill="#f97c21"/><g fill="#475569"><path d="m52.4 148.132c0 .944.3755 1.85 1.0438 2.517.6683.668 1.5747 1.043 2.5199 1.043.9451 0 1.8515-.375 2.5199-1.043.6683-.667 1.0437-1.573 1.0437-2.517s-.3754-1.849-1.0437-2.517c-.6684-.667-1.5748-1.042-2.5199-1.042-.9452 0-1.8516.375-2.5199 1.042-.6683.668-1.0438 1.573-1.0438 2.517z"/><path d="m86.8491 148.132c0 .944.3755 1.85 1.0438 2.517.6683.668 1.5747 1.043 2.5199 1.043.9451 0 1.8515-.375 2.5199-1.043.6683-.667 1.0437-1.573 1.0437-2.517s-.3754-1.849-1.0437-2.517c-.6684-.667-1.5748-1.042-2.5199-1.042-.9452 0-1.8516.375-2.5199 1.042-.6683.668-1.0438 1.573-1.0438 2.517z"/><path d="m80.8424 153.64c.0585-.527-.3771-.958-.9083-.958h-15.3709c-.5301 0-.9652.431-.9077.958.4772 4.319 4.1424 7.678 8.5941 7.678 4.4512 0 8.1163-3.359 8.5928-7.678z"/></g><path d="m75.0371 158.701c0 .779-1.2993 1.412-2.9017 1.412-1.6031 0-2.9029-.633-2.9029-1.412s1.2998-1.411 2.9029-1.411c1.6024 0 2.9017.632 2.9017 1.411z" fill="#fd631f"/><path d="m113.289 192.074h-84.3409c-7.1448 0-12.9578-5.806-12.9578-12.943v-70.006c0-7.137 5.813-12.9426 12.9578-12.9426h84.3409c7.144 0 12.957 5.8056 12.957 12.9426v29.958c0 1.25-1.015 2.264-2.267 2.264s-2.266-1.014-2.266-2.264v-29.958c0-4.64-3.779-8.415-8.425-8.415h-84.3399c-4.6455 0-8.4247 3.775-8.4247 8.415v70.006c0 4.64 3.7792 8.415 8.4247 8.415h84.3409c4.645 0 8.424-3.775 8.424-8.415v-10.384c0-1.251 1.015-2.264 2.267-2.264 1.251 0 2.266 1.013 2.266 2.264v10.384c0 7.137-5.812 12.943-12.957 12.943z" fill="#475569"/><path d="m123.98 161.518c-.602 0-1.178-.239-1.603-.663-.425-.425-.664-1.001-.664-1.601v-10.382c0-1.25 1.015-2.264 2.267-2.264 1.251 0 2.266 1.014 2.266 2.264v10.382c0 1.251-1.015 2.264-2.266 2.264z" fill="#475569"/></g><g fill="#f97c21"><path d="m732.816 88.64c7.765 0 13.568 2.0053 17.408 6.016 3.84 3.9253 5.76 10.325 5.76 19.2v44.672h-11.136v-44.16c0-5.376-1.152-9.429-3.456-12.16-2.219-2.7307-5.717-4.096-10.496-4.096-6.656 0-11.435 1.92-14.336 5.76-2.816 3.84-4.224 9.429-4.224 16.768v37.888h-11.136v-44.16c0-3.584-.512-6.571-1.536-8.96-1.024-2.475-2.56-4.309-4.608-5.504-2.048-1.1947-4.693-1.792-7.936-1.792-4.608 0-8.235.9813-10.88 2.944-2.645 1.877-4.565 4.651-5.76 8.32-1.109 3.669-1.664 8.192-1.664 13.568v35.584h-11.264v-68.608h9.088l1.664 9.344h.64c1.451-2.3893 3.2-4.352 5.248-5.888 2.133-1.6213 4.48-2.816 7.04-3.584s5.205-1.152 7.936-1.152c5.291 0 9.685.9387 13.184 2.816 3.584 1.8773 6.187 4.7787 7.808 8.704h.64c2.304-3.9253 5.419-6.8267 9.344-8.704 4.011-1.8773 8.235-2.816 12.672-2.816z"/><path d="m635.771 89.92v68.608h-9.216l-1.664-9.088h-.512c-1.451 2.389-3.328 4.352-5.632 5.888s-4.821 2.645-7.552 3.328c-2.731.768-5.589 1.152-8.576 1.152-5.461 0-10.069-.853-13.824-2.56-3.669-1.792-6.443-4.523-8.32-8.192s-2.816-8.405-2.816-14.208v-44.928h11.392v44.16c0 5.461 1.237 9.557 3.712 12.288s6.315 4.096 11.52 4.096c5.12 0 9.131-.939 12.032-2.816 2.987-1.963 5.077-4.779 6.272-8.448 1.28-3.755 1.92-8.277 1.92-13.568v-35.712z"/><path d="m556.691 89.92v68.608h-11.264v-68.608zm-5.504-25.728c1.707 0 3.2.5973 4.48 1.792 1.365 1.1094 2.048 2.9014 2.048 5.376 0 2.3893-.683 4.1813-2.048 5.376-1.28 1.1947-2.773 1.792-4.48 1.792-1.877 0-3.456-.5973-4.736-1.792s-1.92-2.9867-1.92-5.376c0-2.4746.64-4.2666 1.92-5.376 1.28-1.1947 2.859-1.792 4.736-1.792z"/><path d="m522.089 150.592c1.707 0 3.456-.128 5.248-.384 1.792-.341 3.243-.683 4.352-1.024v8.576c-1.195.597-2.901 1.067-5.12 1.408-2.219.427-4.352.64-6.4.64-3.584 0-6.912-.597-9.984-1.792-2.987-1.28-5.419-3.456-7.296-6.528s-2.816-7.381-2.816-12.928v-39.936h-9.728v-5.376l9.856-4.48 4.48-14.592h6.656v15.744h19.84v8.704h-19.84v39.68c0 4.181.981 7.296 2.944 9.344 2.048 1.963 4.651 2.944 7.808 2.944z"/><path d="m453.423 88.64c5.888 0 10.923 1.28 15.104 3.84 4.267 2.56 7.509 6.1867 9.728 10.88 2.304 4.608 3.456 10.027 3.456 16.256v6.784h-46.976c.171 7.765 2.133 13.696 5.888 17.792 3.84 4.011 9.173 6.016 16 6.016 4.352 0 8.192-.384 11.52-1.152 3.413-.853 6.912-2.048 10.496-3.584v9.856c-3.499 1.536-6.955 2.645-10.368 3.328-3.413.768-7.467 1.152-12.16 1.152-6.485 0-12.245-1.323-17.28-3.968-4.949-2.645-8.832-6.571-11.648-11.776-2.731-5.291-4.096-11.733-4.096-19.328 0-7.509 1.237-13.952 3.712-19.328 2.56-5.376 6.101-9.5147 10.624-12.416 4.608-2.9013 9.941-4.352 16-4.352zm-.128 9.216c-5.376 0-9.643 1.7493-12.8 5.248-3.072 3.413-4.907 8.192-5.504 14.336h34.944c0-3.925-.597-7.339-1.792-10.24s-3.029-5.163-5.504-6.784c-2.389-1.7067-5.504-2.56-9.344-2.56z"/><path d="m408.552 88.64c1.28 0 2.645.0853 4.096.256 1.536.0853 2.859.256 3.968.512l-1.408 10.368c-1.109-.256-2.347-.4693-3.712-.64-1.28-.1707-2.517-.256-3.712-.256-2.645 0-5.163.5547-7.552 1.664-2.389 1.109-4.523 2.688-6.4 4.736-1.877 1.963-3.371 4.352-4.48 7.168-1.024 2.816-1.536 5.973-1.536 9.472v36.608h-11.264v-68.608h9.216l1.28 12.544h.512c1.451-2.56 3.2-4.864 5.248-6.912 2.048-2.1333 4.395-3.7973 7.04-4.992 2.645-1.28 5.547-1.92 8.704-1.92z"/><path d="m342.572 159.808c-6.059 0-11.477-1.237-16.256-3.712-4.693-2.475-8.405-6.315-11.136-11.52-2.645-5.205-3.968-11.861-3.968-19.968 0-8.448 1.408-15.317 4.224-20.608 2.816-5.2907 6.613-9.1733 11.392-11.648 4.864-2.4747 10.368-3.712 16.512-3.712 3.499 0 6.869.384 10.112 1.152 3.243.6827 5.888 1.536 7.936 2.56l-3.456 9.344c-2.048-.768-4.437-1.493-7.168-2.176-2.731-.6827-5.291-1.024-7.68-1.024-4.608 0-8.405.9814-11.392 2.944-2.987 1.963-5.205 4.864-6.656 8.704s-2.176 8.619-2.176 14.336c0 5.461.725 10.112 2.176 13.952s3.627 6.741 6.528 8.704 6.528 2.944 10.88 2.944c3.755 0 7.04-.384 9.856-1.152 2.901-.768 5.547-1.707 7.936-2.816v9.984c-2.304 1.195-4.864 2.091-7.68 2.688-2.731.683-6.059 1.024-9.984 1.024z"/><path d="m269.298 88.64c5.888 0 10.923 1.28 15.104 3.84 4.267 2.56 7.509 6.1867 9.728 10.88 2.304 4.608 3.456 10.027 3.456 16.256v6.784h-46.976c.171 7.765 2.133 13.696 5.888 17.792 3.84 4.011 9.173 6.016 16 6.016 4.352 0 8.192-.384 11.52-1.152 3.413-.853 6.912-2.048 10.496-3.584v9.856c-3.499 1.536-6.955 2.645-10.368 3.328-3.413.768-7.467 1.152-12.16 1.152-6.485 0-12.245-1.323-17.28-3.968-4.949-2.645-8.832-6.571-11.648-11.776-2.731-5.291-4.096-11.733-4.096-19.328 0-7.509 1.237-13.952 3.712-19.328 2.56-5.376 6.101-9.5147 10.624-12.416 4.608-2.9013 9.941-4.352 16-4.352zm-.128 9.216c-5.376 0-9.643 1.7493-12.8 5.248-3.072 3.413-4.907 8.192-5.504 14.336h34.944c0-3.925-.597-7.339-1.792-10.24s-3.029-5.163-5.504-6.784c-2.389-1.7067-5.504-2.56-9.344-2.56z"/><path d="m225.928 134.08c0 5.461-1.323 10.112-3.968 13.952-2.645 3.755-6.443 6.656-11.392 8.704-4.864 2.048-10.624 3.072-17.28 3.072-3.413 0-6.699-.171-9.856-.512-3.072-.341-5.888-.811-8.448-1.408-2.56-.683-4.821-1.493-6.784-2.432v-11.008c3.072 1.365 6.869 2.603 11.392 3.712 4.608 1.109 9.344 1.664 14.208 1.664 4.523 0 8.32-.597 11.392-1.792s5.376-2.901 6.912-5.12 2.304-4.821 2.304-7.808-.64-5.504-1.92-7.552-3.499-3.925-6.656-5.632c-3.072-1.792-7.381-3.669-12.928-5.632-3.925-1.451-7.381-2.987-10.368-4.608-2.901-1.707-5.333-3.627-7.296-5.76s-3.456-4.565-4.48-7.296c-.939-2.7306-1.408-5.888-1.408-9.472 0-4.864 1.237-9.0026 3.712-12.416 2.475-3.4986 5.888-6.1866 10.24-8.064 4.437-1.8773 9.515-2.816 15.232-2.816 5.035 0 9.643.4694 13.824 1.408 4.181.9387 7.979 2.176 11.392 3.712l-3.584 9.856c-3.157-1.3653-6.613-2.5173-10.368-3.456-3.669-.9386-7.509-1.408-11.52-1.408-3.84 0-7.04.5547-9.6 1.664-2.56 1.1094-4.48 2.688-5.76 4.736-1.28 1.9627-1.92 4.2667-1.92 6.912 0 3.072.64 5.632 1.92 7.68s3.371 3.883 6.272 5.504 6.827 3.371 11.776 5.248c5.376 1.963 9.899 4.096 13.568 6.4 3.755 2.219 6.571 4.907 8.448 8.064 1.963 3.157 2.944 7.125 2.944 11.904z"/></g></svg>