<svg fill="none" height="800" viewBox="0 0 800 800" width="800" xmlns="http://www.w3.org/2000/svg" xmlns:xlink="http://www.w3.org/1999/xlink"><clipPath id="a"><path d="m180 80h440.8v640h-440.8z"/></clipPath><g clip-path="url(#a)"><path d="m547.53 234.567c0 .1.005.199.005.301v-.089c.001-.07-.005-.141-.005-.212zm-.89-14.782c.079.686.134 1.386.203 2.073-.062-.687-.123-1.387-.203-2.073zm-1.318-8.458c.182.959.362 1.916.521 2.877-.155-.965-.339-1.918-.521-2.877zm-11.436 20.986v-2.745c0-50.233-28.731-94.515-69.926-120.632 34.508 16.743 62.436 45.897 75.524 81.273-20.744-56.222-78.913-96.7849-141.473-96.7849-78.159 0-152.201 63.2859-152.201 141.3559v191.583h33.965v-183.685c0-59.803 45.789-108.279 105.655-108.279 19.276 0 32.115 5.052 47.708 13.866 40.932 14.451 70.267 29.422 70.267 75.255v19.632c0 6.505 3.569 12.258 9.049 15.83 11.939-.777 21.432-12.4 21.432-26.669zm13.341-6.007c.049.717.092 1.435.13 2.156-.038-.721-.084-1.439-.13-2.156zm-3.215-21.205c.252 1.057.474 2.123.708 3.189-.228-1.066-.456-2.133-.708-3.189z" fill="#ececec"/><path d="m279.775 242.678v183.771h15.515v-178.84c0-58.138 44.515-105.268 102.72-105.268 12.47 0 24.428 2.176 35.528 6.147l-.401-.223c-15.592-8.814-28.431-13.866-47.708-13.866-59.864 0-105.654 48.476-105.654 108.279zm267.582-14.216c-.038-.721-.081-1.439-.13-2.156-.101-1.485-.229-2.968-.384-4.448-.069-.687-.123-1.387-.203-2.073-.225-1.866-.491-3.726-.796-5.581-.159-.961-.341-1.918-.521-2.877-.19-1.015-.391-2.027-.603-3.037-.234-1.066-.456-2.132-.708-3.19-.187-.766-.394-1.529-.592-2.293-.557-2.164-1.172-4.312-1.843-6.443-.161-.515-.315-1.027-.482-1.539-.444-1.355-.911-2.703-1.399-4.043-.067-.192-.143-.382-.212-.573-13.088-35.375-41.016-64.53-75.524-81.273 41.195 26.117 69.926 70.399 69.926 120.632v2.744c0 14.269-9.493 25.892-21.432 26.67-.037.002-.075.01-.114.014 3.671 2.427 8.204 3.879 13.131 3.879 12.187 0 22.065-11.642 22.065-26.004v-2.003c0-.102-.005-.201-.005-.301-.009-2.036-.067-4.072-.174-6.105z" fill="#a7a7a7"/><path d="m529.437 266.722c-16.249 0-29.469-12.11-29.469-26.995v4.046c0-55.094-44.876-99.916-100.034-99.916-49.843 0-89.439 37.691-94.149 89.62-.353 3.875-3.784 6.725-7.659 6.379-.923-.084-1.819-.347-2.639-.777-.82-.429-1.548-1.016-2.141-1.726s-1.04-1.53-1.316-2.413c-.275-.883-.374-1.812-.291-2.733 5.386-59.356 50.887-102.437 108.195-102.437 62.936 0 114.138 51.141 114.138 114.003v-4.046c0 7.118 6.894 12.908 15.366 12.908 8.48 0 15.378-8.696 15.378-19.385v-2.418c0-11.959-1.759-23.878-5.226-35.428-.266-.886-.354-1.816-.26-2.736.093-.921.368-1.813.807-2.628.439-.814 1.035-1.534 1.752-2.118.718-.585 1.544-1.022 2.431-1.288 3.733-1.121 7.659 1.001 8.779 4.723 3.853 12.806 5.814 26.105 5.82 39.476v2.418c-.001 18.455-13.226 33.471-29.482 33.471z" fill="#475569"/><path d="m305.323 432.539h-61.575v-201.708c0-58.765 39.458-114.674 98.187-139.1249 1.721-.6927 3.646-.6798 5.358.0359s3.072 2.0764 3.786 3.7873.724 3.6339.028 5.3527c-.696 1.718-2.042 3.093-3.746 3.826-53.538 22.289-89.51 72.975-89.51 126.123v187.622h33.37v-146.043c.03-1.848.786-3.61 2.105-4.907 1.319-1.296 3.096-2.022 4.946-2.022 1.851 0 3.627.726 4.946 2.022 1.319 1.297 2.075 3.059 2.105 4.907zm189.509-305.4c-1.559.001-3.074-.516-4.306-1.469-26.263-20.265-58.438-31.4247-90.593-31.4247-6.924 0-13.859.5185-20.613 1.5424-3.836.5792-7.444-2.0609-8.03-5.9079-.28-1.847.186-3.7295 1.295-5.2336 1.109-1.504 2.771-2.5064 4.62-2.7865 7.523-1.1348 15.12-1.7038 22.728-1.7022 35.258 0 70.493 12.2045 99.215 34.3625 1.164.899 2.018 2.14 2.441 3.548s.395 2.912-.081 4.303c-.476 1.392-1.375 2.599-2.572 3.454-1.198.855-2.633 1.314-4.104 1.314zm34.471 36.979c-1.17.001-2.322-.289-3.353-.844-1.03-.554-1.905-1.357-2.548-2.334-.786-1.199-1.569-2.399-2.349-3.602-4.378-6.741-5.851-9.011-12.623-15.407-1.354-1.285-2.142-3.054-2.192-4.918-.049-1.865.643-3.673 1.927-5.028 1.283-1.355 3.051-2.146 4.918-2.201 1.866-.054 3.678.633 5.038 1.912 7.996 7.553 10.117 10.82 14.764 17.976.692 1.068 1.452 2.237 2.306 3.535.508.773.859 1.638 1.032 2.547.174.909.166 1.842-.022 2.748s-.553 1.766-1.074 2.53c-.52.765-1.187 1.42-1.961 1.928-1.146.756-2.489 1.159-3.863 1.158z" fill="#475569"/><path d="m611.918 682.763c0 15.726-11.759 28.479-26.263 28.479h-337.097c-14.506 0-26.268-12.752-26.268-28.479v-308.502c0-15.727 11.762-28.475 26.268-28.475h337.097c14.504 0 26.263 12.748 26.263 28.475z" fill="#fdd72c"/><path d="m583.409 345.786h-73.648c15.743 0 28.509 12.748 28.509 28.475v308.502c0 15.726-12.765 28.479-28.509 28.479h73.648c15.744 0 28.51-12.752 28.51-28.479v-308.502c0-15.727-12.765-28.475-28.51-28.475z" fill="#f97c21"/><g fill="#475569"><path d="m325.6 544.53c0 3.776 1.502 7.397 4.175 10.067 2.673 2.671 6.299 4.171 10.08 4.171 3.78 0 7.406-1.5 10.079-4.171 2.673-2.67 4.175-6.291 4.175-10.067 0-3.777-1.502-7.398-4.175-10.068-2.673-2.671-6.299-4.171-10.079-4.171-3.781 0-7.407 1.5-10.08 4.171-2.673 2.67-4.175 6.291-4.175 10.068z"/><path d="m463.396 544.53c0 3.776 1.502 7.397 4.175 10.067 2.674 2.671 6.3 4.171 10.08 4.171 3.781 0 7.406-1.5 10.08-4.171 2.673-2.67 4.175-6.291 4.175-10.067 0-3.777-1.502-7.398-4.175-10.068-2.674-2.671-6.299-4.171-10.08-4.171-3.78 0-7.406 1.5-10.08 4.171-2.673 2.67-4.175 6.291-4.175 10.068z"/><path d="m439.37 566.56c.234-2.106-1.509-3.832-3.634-3.832h-61.483c-2.12 0-3.861 1.726-3.631 3.832 1.909 17.275 16.569 30.713 34.376 30.713 17.805-.001 32.466-13.438 34.372-30.713z"/></g><path d="m416.148 586.805c0 3.115-5.197 5.647-11.606 5.647-6.413 0-11.612-2.531-11.612-5.647 0-3.118 5.199-5.646 11.612-5.646 6.409.001 11.606 2.528 11.606 5.646z" fill="#fd631f"/><g fill="#475569"><path d="m569.154 720.297h-337.361c-28.58 0-51.832-23.225-51.832-51.772v-280.026c0-28.546 23.252-51.769 51.832-51.769h337.361c28.58 0 51.83 23.223 51.83 51.769v119.833c0 5.002-4.059 9.056-9.067 9.056-5.007 0-9.066-4.054-9.066-9.056v-119.833c0-18.559-15.116-33.658-33.697-33.658h-337.361c-18.583 0-33.7 15.099-33.7 33.658v280.026c0 18.56 15.117 33.661 33.7 33.661h337.361c18.582 0 33.698-15.101 33.698-33.661v-41.538c0-5.002 4.059-9.056 9.066-9.056 5.008 0 9.067 4.054 9.067 9.056v41.538c-.001 28.547-23.25 51.772-51.831 51.772z"/><path d="m611.918 598.072c-2.404 0-4.711-.954-6.411-2.653-1.7-1.698-2.655-4.002-2.655-6.404v-41.526c0-5.001 4.059-9.056 9.066-9.056 5.008 0 9.067 4.055 9.067 9.056v41.527c-.001 5.002-4.059 9.056-9.067 9.056z"/></g></g></svg>