<svg fill="none" height="156" viewBox="0 0 1379 156" width="1379" xmlns="http://www.w3.org/2000/svg" xmlns:xlink="http://www.w3.org/1999/xlink"><clipPath id="a"><path d="m58 18h82.65v120h-82.65z"/></clipPath><rect height="154" rx="25" stroke="#f97c21" stroke-width="2" width="1376.03" x="1" y="1"/><g clip-path="url(#a)"><path d="m67.9375 130.486c0 2.852-.1124 4.326-.3567 4.326h-3.4239c-.2443 0-2.7819-1.474-2.7819-4.326v-55.947c0-2.8521 1.539-5.164 1.7833-5.164h4.3368c.2443 0 .4424 2.3119.4424 5.164z" fill="#ececec"/><path d="m126.912 46.9813c0 .0187.001.0373.001.0564v-.0167c0-.0131-.001-.0264-.001-.0397zm-.167-2.7716c.015.1285.025.2597.038.3887-.012-.129-.023-.2602-.038-.3887zm-.247-1.586c.034.1799.068.3593.098.5395-.029-.1809-.064-.3596-.098-.5395zm-2.144 3.9348v-.5145c0-9.4187-5.387-17.7216-13.112-22.6186 6.471 3.1394 11.707 8.6057 14.161 15.2388-3.889-10.5417-14.796-18.1472-26.5259-18.1472-14.6549 0-28.5377 11.866-28.5377 26.5042v35.9219h6.3684v-34.4411c0-11.213 8.5855-20.3022 19.8103-20.3022 3.6139 0 6.0219.9473 8.9449 2.5998 7.675 2.7095 13.175 5.5166 13.175 14.1103v3.6811c0 1.2196.67 2.2983 1.697 2.9681 2.239-.1457 4.019-2.3249 4.019-5.0006zm2.501-1.1262c.009.1345.017.2691.024.4043-.007-.1352-.015-.2698-.024-.4043zm-.603-3.976c.047.1983.089.3981.133.598-.043-.1999-.086-.3999-.133-.598z" fill="#ececec"/><path d="m76.7078 48.5021v34.4571h2.9092v-33.5326c0-10.9007 8.3464-19.7377 19.2599-19.7377 2.3381 0 4.5801.4081 6.6611 1.1526l-.075-.0419c-2.923-1.6525-5.331-2.5998-8.9451-2.5998-11.2246 0-19.8101 9.0892-19.8101 20.3023zm50.1712-2.6655c-.007-.1352-.015-.2697-.024-.4042-.019-.2784-.043-.5565-.072-.834-.013-.1289-.023-.2601-.038-.3887-.042-.3498-.092-.6987-.149-1.0464-.03-.1803-.064-.3596-.098-.5395-.036-.1902-.073-.3801-.113-.5695-.044-.1998-.086-.3997-.133-.598-.035-.1436-.074-.2867-.111-.43-.104-.4057-.219-.8085-.345-1.2081-.031-.0965-.059-.1925-.091-.2885-.083-.2541-.17-.5068-.262-.7581-.013-.0361-.027-.0716-.04-.1074-2.454-6.6329-7.69-12.0993-14.161-15.2388 7.725 4.897 13.112 13.1999 13.112 22.6186v.5146c0 2.6754-1.78 4.8546-4.019 5.0005-.007.0004-.014.002-.021.0027.688.455 1.538.7272 2.462.7272 2.285 0 4.137-2.1828 4.137-4.8756v-.3757c0-.0191-.001-.0376-.001-.0564-.002-.3818-.012-.7634-.033-1.1447z" fill="#a7a7a7"/><path d="m123.519 53.0104c-3.046 0-5.525-2.2707-5.525-5.0615v.7585c0-10.3301-8.414-18.7342-18.7565-18.7342-9.3455 0-16.7698 7.0671-17.6529 16.8037-.0661.7266-.7094 1.261-1.4361 1.196-.1729-.0156-.341-.0651-.4948-.1456-.1537-.0805-.2901-.1905-.4013-.3236-.1112-.1332-.195-.287-.2467-.4525s-.0702-.3396-.0546-.5123c1.0098-11.1294 9.5413-19.207 20.2866-19.207 11.8003 0 21.4013 9.5889 21.4013 21.3755v-.7585c0 1.3345 1.292 2.4202 2.881 2.4202 1.59 0 2.883-1.6306 2.883-3.6346v-.4535c0-2.2422-.33-4.4771-.98-6.6428-.05-.1662-.066-.3405-.049-.513.018-.1726.069-.34.152-.4926.082-.1527.194-.2877.328-.3973.135-.1096.29-.1916.456-.2414.7-.2102 1.436.1876 1.646.8856.722 2.401 1.09 4.8946 1.091 7.4017v.4534c0 3.4602-2.48 6.2758-5.528 6.2758z" fill="#475569"/><path d="m81.4981 84.1011h-11.5453v-37.8202c0-11.0185 7.3983-21.5015 18.4099-26.086.3228-.1299.6838-.1275 1.0047.0067.321.1342.5761.3894.71.7102.1338.3207.1357.6813.0052 1.0035s-.3828.58-.7024.7175c-10.0384 4.1792-16.7831 13.6827-16.7831 23.6481v35.179h6.2568v-27.3831c.0057-.3465.1475-.6769.3948-.9199.2473-.2431.5804-.3793.9273-.3793.347 0 .68.1362.9273.3793.2474.243.3891.5734.3948.9199zm35.5329-57.2626c-.292.0003-.576-.0966-.807-.2754-4.925-3.7996-10.957-5.8921-16.9865-5.8921-1.2982 0-2.5986.0972-3.8651.2892-.7191.1086-1.3957-.3864-1.5055-1.1077-.0525-.3463.0348-.6993.2427-.9813.208-.282.5196-.47.8663-.5225 1.4105-.2128 2.8351-.3195 4.2616-.3192 6.6105 0 13.2175 2.2884 18.6025 6.4431.219.1685.379.4011.458.6651s.074.5461-.015.807c-.089.2608-.258.4872-.483.6475-.224.1603-.493.2464-.769.2463zm6.463 6.9336c-.219.0002-.435-.0541-.628-.1581-.193-.1041-.358-.2545-.478-.4378-.148-.2247-.294-.4498-.441-.6754-.82-1.2638-1.097-1.6894-2.366-2.8888-.254-.2409-.402-.5725-.411-.9221-.01-.3496.12-.6886.361-.9427.24-.2541.572-.4025.922-.4126.35-.0102.69.1187.945.3583 1.499 1.4162 1.897 2.0288 2.768 3.3707.13.2002.272.4193.432.6626.096.145.161.3073.194.4777.032.1703.031.3454-.004.5152-.036.1699-.104.3311-.202.4745-.097.1434-.222.2662-.367.3613-.215.1419-.467.2175-.725.2172z" fill="#475569"/><path d="m138.985 131.018c0 2.949-2.205 5.34-4.925 5.34h-63.2054c-2.7199 0-4.9253-2.391-4.9253-5.34v-57.844c0-2.9489 2.2054-5.3392 4.9253-5.3392h63.2054c2.72 0 4.925 2.3903 4.925 5.3392z" fill="#fdd72c"/><path d="m133.639 67.8348h-13.809c2.952 0 5.346 2.3903 5.346 5.3392v57.844c0 2.949-2.394 5.34-5.346 5.34h13.809c2.952 0 5.346-2.391 5.346-5.34v-57.844c0-2.9489-2.394-5.3392-5.346-5.3392z" fill="#f97c21"/><g fill="#475569"><path d="m85.3 105.099c0 .708.2816 1.387.7828 1.888.5013.501 1.1811.782 1.8899.782.7089 0 1.3887-.281 1.8899-.782.5013-.501.7829-1.18.7829-1.888s-.2816-1.387-.7829-1.887c-.5012-.501-1.181-.782-1.8899-.782-.7088 0-1.3886.281-1.8899.782-.5012.5-.7828 1.179-.7828 1.887z"/><path d="m111.137 105.099c0 .708.281 1.387.783 1.888.501.501 1.181.782 1.89.782.708 0 1.388-.281 1.889-.782.502-.501.783-1.18.783-1.888s-.281-1.387-.783-1.887c-.501-.501-1.181-.782-1.889-.782-.709 0-1.389.281-1.89.782-.502.5-.783 1.179-.783 1.887z"/><path d="m106.632 109.23c.044-.395-.283-.718-.681-.718h-11.5286c-.3976 0-.7239.323-.6808.718.358 3.239 3.1068 5.759 6.4454 5.759 3.339 0 6.087-2.52 6.445-5.759z"/></g><path d="m102.278 113.026c0 .584-.975 1.059-2.176 1.059-1.2028 0-2.1776-.475-2.1776-1.059 0-.585.9748-1.059 2.1776-1.059 1.201.001 2.176.474 2.176 1.059z" fill="#fd631f"/><path d="m130.966 138.056h-63.2549c-5.3586 0-9.7184-4.355-9.7184-9.707v-52.5053c0-5.3525 4.3598-9.7069 9.7184-9.7069h63.2549c5.359 0 9.719 4.3544 9.719 9.7069v22.4686c0 .9379-.762 1.6977-1.7 1.6977-.939 0-1.7-.7598-1.7-1.6977v-22.4686c0-3.48-2.835-6.311-6.319-6.311h-63.2549c-3.4841 0-6.3186 2.831-6.3186 6.311v52.5053c0 3.48 2.8345 6.311 6.3186 6.311h63.2549c3.484 0 6.319-2.831 6.319-6.311v-7.789c0-.938.761-1.698 1.7-1.698s1.7.76 1.7 1.698v7.789c0 5.352-4.36 9.707-9.719 9.707z" fill="#475569"/><path d="m138.985 115.138c-.451 0-.884-.178-1.202-.497-.319-.318-.498-.75-.498-1.201v-7.786c0-.938.761-1.698 1.7-1.698s1.7.76 1.7 1.698v7.787c-.001.937-.761 1.697-1.7 1.697z" fill="#475569"/></g><g fill="#f97c21"><path d="m606.112 60.4801c5.824 0 10.176 1.504 13.056 4.512 2.88 2.944 4.32 7.744 4.32 14.4v33.5039h-8.352v-33.1199c0-4.032-.864-7.072-2.592-9.12-1.664-2.048-4.288-3.072-7.872-3.072-4.992 0-8.576 1.44-10.752 4.32-2.112 2.88-3.168 7.072-3.168 12.576v28.4159h-8.352v-33.1199c0-2.688-.384-4.928-1.152-6.72-.768-1.856-1.92-3.232-3.456-4.128s-3.52-1.344-5.952-1.344c-3.456 0-6.176.736-8.16 2.208-1.984 1.408-3.424 3.488-4.32 6.24-.832 2.752-1.248 6.144-1.248 10.176v26.6879h-8.448v-51.4559h6.816l1.248 7.008h.48c1.088-1.792 2.4-3.264 3.936-4.416 1.6-1.216 3.36-2.112 5.28-2.688s3.904-.864 5.952-.864c3.968 0 7.264.704 9.888 2.112 2.688 1.408 4.64 3.584 5.856 6.528h.48c1.728-2.944 4.064-5.12 7.008-6.528 3.008-1.408 6.176-2.112 9.504-2.112z"/><path d="m533.328 61.4401v51.4559h-6.912l-1.248-6.816h-.384c-1.088 1.792-2.496 3.264-4.224 4.416s-3.616 1.984-5.664 2.496c-2.048.576-4.192.864-6.432.864-4.096 0-7.552-.64-10.368-1.92-2.752-1.344-4.832-3.392-6.24-6.144s-2.112-6.3039-2.112-10.6559v-33.696h8.544v33.12c0 4.096.928 7.1679 2.784 9.2159s4.736 3.072 8.64 3.072c3.84 0 6.848-.704 9.024-2.112 2.24-1.472 3.808-3.584 4.704-6.3359.96-2.816 1.44-6.208 1.44-10.176v-26.784z"/><path d="m474.018 61.44v51.456h-8.448v-51.456zm-4.128-19.296c1.28 0 2.4.448 3.36 1.344 1.024.832 1.536 2.176 1.536 4.032 0 1.792-.512 3.136-1.536 4.032-.96.896-2.08 1.344-3.36 1.344-1.408 0-2.592-.448-3.552-1.344s-1.44-2.24-1.44-4.032c0-1.856.48-3.2 1.44-4.032.96-.896 2.144-1.344 3.552-1.344z"/><path d="m448.067 106.944c1.28 0 2.592-.096 3.936-.288 1.344-.256 2.432-.512 3.264-.768v6.432c-.896.448-2.176.8-3.84 1.056-1.664.32-3.264.48-4.8.48-2.688 0-5.184-.448-7.488-1.344-2.24-.96-4.064-2.592-5.472-4.896s-2.112-5.536-2.112-9.6959v-29.952h-7.296v-4.032l7.392-3.36 3.36-10.944h4.992v11.808h14.88v6.528h-14.88v29.76c0 3.1359.736 5.4719 2.208 7.0079 1.536 1.472 3.488 2.208 5.856 2.208z"/><path d="m396.567 60.4801c4.416 0 8.192.96 11.328 2.88 3.2 1.92 5.632 4.64 7.296 8.16 1.728 3.456 2.592 7.52 2.592 12.192v5.088h-35.232c.128 5.824 1.6 10.272 4.416 13.3439 2.88 3.008 6.88 4.512 12 4.512 3.264 0 6.144-.288 8.64-.864 2.56-.64 5.184-1.536 7.872-2.688v7.392c-2.624 1.152-5.216 1.984-7.776 2.496-2.56.576-5.6.864-9.12.864-4.864 0-9.184-.992-12.96-2.976-3.712-1.984-6.624-4.928-8.736-8.832-2.048-3.9679-3.072-8.7999-3.072-14.4959 0-5.632.928-10.464 2.784-14.496 1.92-4.032 4.576-7.136 7.968-9.312 3.456-2.176 7.456-3.264 12-3.264zm-.096 6.912c-4.032 0-7.232 1.312-9.6 3.936-2.304 2.56-3.68 6.144-4.128 10.752h26.208c0-2.944-.448-5.504-1.344-7.68s-2.272-3.872-4.128-5.088c-1.792-1.28-4.128-1.92-7.008-1.92z"/><path d="m362.914 60.4801c.96 0 1.984.064 3.072.192 1.152.064 2.144.192 2.976.384l-1.056 7.776c-.832-.192-1.76-.352-2.784-.48-.96-.128-1.888-.192-2.784-.192-1.984 0-3.872.416-5.664 1.248s-3.392 2.016-4.8 3.552c-1.408 1.472-2.528 3.264-3.36 5.376-.768 2.112-1.152 4.48-1.152 7.104v27.4559h-8.448v-51.4559h6.912l.96 9.408h.384c1.088-1.92 2.4-3.648 3.936-5.184 1.536-1.6 3.296-2.848 5.28-3.744 1.984-.96 4.16-1.44 6.528-1.44z"/><path d="m313.429 113.856c-4.544 0-8.608-.928-12.192-2.784-3.52-1.856-6.304-4.736-8.352-8.64-1.984-3.9039-2.976-8.8959-2.976-14.9759 0-6.336 1.056-11.488 3.168-15.456s4.96-6.88 8.544-8.736c3.648-1.856 7.776-2.784 12.384-2.784 2.624 0 5.152.288 7.584.864 2.432.512 4.416 1.152 5.952 1.92l-2.592 7.008c-1.536-.576-3.328-1.12-5.376-1.632s-3.968-.768-5.76-.768c-3.456 0-6.304.736-8.544 2.208s-3.904 3.648-4.992 6.528-1.632 6.464-1.632 10.752c0 4.096.544 7.584 1.632 10.464 1.088 2.8799 2.72 5.0559 4.896 6.5279s4.896 2.208 8.16 2.208c2.816 0 5.28-.288 7.392-.864 2.176-.576 4.16-1.28 5.952-2.112v7.488c-1.728.896-3.648 1.568-5.76 2.016-2.048.512-4.544.768-7.488.768z"/><path d="m258.474 60.4801c4.416 0 8.191.96 11.327 2.88 3.2 1.92 5.633 4.64 7.297 8.16 1.728 3.456 2.591 7.52 2.591 12.192v5.088h-35.232c.128 5.824 1.6 10.272 4.416 13.3439 2.88 3.008 6.88 4.512 12 4.512 3.264 0 6.144-.288 8.64-.864 2.56-.64 5.184-1.536 7.872-2.688v7.392c-2.624 1.152-5.216 1.984-7.776 2.496-2.56.576-5.599.864-9.119.864-4.864 0-9.185-.992-12.961-2.976-3.712-1.984-6.624-4.928-8.736-8.832-2.048-3.9679-3.072-8.7999-3.072-14.4959 0-5.632.928-10.464 2.784-14.496 1.92-4.032 4.576-7.136 7.968-9.312 3.456-2.176 7.457-3.264 12.001-3.264zm-.096 6.912c-4.032 0-7.233 1.312-9.601 3.936-2.304 2.56-3.68 6.144-4.128 10.752h26.208c0-2.944-.448-5.504-1.344-7.68s-2.272-3.872-4.128-5.088c-1.792-1.28-4.127-1.92-7.007-1.92z"/><path d="m225.946 94.5601c0 4.096-.992 7.5839-2.976 10.4639-1.984 2.816-4.832 4.992-8.544 6.528-3.648 1.536-7.968 2.304-12.96 2.304-2.56 0-5.024-.128-7.392-.384-2.304-.256-4.416-.608-6.336-1.056-1.92-.512-3.616-1.12-5.088-1.824v-8.256c2.304 1.024 5.152 1.952 8.544 2.784 3.456.832 7.008 1.248 10.656 1.248 3.392 0 6.24-.448 8.544-1.344s4.032-2.176 5.184-3.84c1.152-1.6639 1.728-3.6159 1.728-5.8559s-.48-4.128-1.44-5.664-2.624-2.944-4.992-4.224c-2.304-1.344-5.536-2.752-9.696-4.224-2.944-1.088-5.536-2.24-7.776-3.456-2.176-1.28-4-2.72-5.472-4.32s-2.592-3.424-3.36-5.472c-.704-2.048-1.056-4.416-1.056-7.104 0-3.648.928-6.752 2.784-9.312 1.856-2.624 4.416-4.64 7.68-6.048 3.328-1.408 7.136-2.112 11.424-2.112 3.776 0 7.232.352 10.368 1.056s5.984 1.632 8.544 2.784l-2.688 7.392c-2.368-1.024-4.96-1.888-7.776-2.592-2.752-.704-5.632-1.056-8.64-1.056-2.88 0-5.28.416-7.2 1.248s-3.36 2.016-4.32 3.552c-.96 1.472-1.44 3.2-1.44 5.184 0 2.304.48 4.224 1.44 5.76s2.528 2.912 4.704 4.128 5.12 2.528 8.832 3.936c4.032 1.472 7.424 3.072 10.176 4.8 2.816 1.664 4.928 3.68 6.336 6.048 1.472 2.368 2.208 5.344 2.208 8.928z"/><path clip-rule="evenodd" d="m704.91 34.2921c.473.2842.64.9059.372 1.3887l-47.593 85.6672c-.269.483-.87.644-1.343.36-.474-.284-.641-.906-.372-1.389l47.593-85.6672c.268-.4828.869-.6438 1.343-.3597z" fill-rule="evenodd"/><path d="m1291.38 98.75c-.39 0-.72-.138-.99-.4141-.28-.276-.42-.6067-.42-.9921 0-.3855.14-.7162.42-.9922.27-.2761.6-.4141.99-.4141.38 0 .71.138.99.4141.28.276.41.6067.41.9922 0 .2552-.06.4895-.19.7031-.13.2135-.3.3854-.51.5156-.21.125-.44.1875-.7.1875z"/><path d="m1283.14 98.875c-1.16 0-2.15-.2552-2.99-.7656-.83-.5156-1.48-1.2344-1.93-2.1563-.45-.9271-.67-2.0052-.67-3.2343 0-1.2292.22-2.3126.67-3.25.45-.9428 1.08-1.6771 1.89-2.2032.81-.5312 1.76-.7968 2.84-.7968.63 0 1.25.1041 1.86.3124.6.2084 1.16.5469 1.66 1.0157.5.4635.9 1.0781 1.19 1.8437.3.7656.45 1.7084.45 2.8282v.7812h-9.25v-1.5938h7.37c0-.677-.13-1.2812-.4-1.8124-.27-.5313-.65-.9506-1.14-1.2579s-1.07-.4609-1.74-.4609c-.73 0-1.37.1823-1.9.5469-.53.3594-.94.8281-1.23 1.4062-.29.5782-.43 1.1979-.43 1.8594v1.0625c0 .9062.16 1.6745.47 2.3047.32.625.76 1.1015 1.32 1.4297.56.3229 1.22.4844 1.96.4844.49 0 .92-.0678 1.31-.2032.4-.1406.74-.3489 1.03-.625.28-.2812.5-.6302.66-1.0468l1.78.5c-.19.6041-.5 1.1354-.94 1.5937-.45.4531-.99.8073-1.64 1.0625-.65.25-1.39.375-2.2.375z"/><path d="m1276 89.3125-1.66.4687c-.1-.276-.26-.5442-.46-.8046-.2-.2657-.47-.4844-.81-.6563-.35-.1719-.79-.2578-1.32-.2578-.74 0-1.35.1693-1.84.5078-.48.3333-.73.7578-.73 1.2735 0 .4583.17.8203.5 1.0859.34.2656.86.487 1.57.6641l1.78.4374c1.07.2605 1.87.6589 2.4 1.1954.52.5312.78 1.2161.78 2.0546 0 .6876-.19 1.3021-.59 1.8438-.39.5417-.94.9688-1.64 1.2812-.7.3126-1.52.4688-2.45.4688-1.23 0-2.24-.2656-3.04-.7969-.8-.5312-1.31-1.3073-1.53-2.3281l1.75-.4375c.17.6458.49 1.1302.95 1.4531.47.3229 1.08.4844 1.84.4844.85 0 1.54-.1823 2.04-.5469.51-.3698.77-.8125.77-1.3281 0-.4167-.15-.7656-.44-1.0469-.29-.2864-.74-.5-1.34-.6406l-2-.4687c-1.1-.2605-1.91-.6641-2.43-1.211-.51-.5521-.76-1.2422-.76-2.0703 0-.6771.19-1.276.57-1.7969.39-.5208.91-.9297 1.57-1.2265.67-.2969 1.42-.4453 2.27-.4453 1.18 0 2.12.2604 2.79.7812.68.5208 1.17 1.2083 1.46 2.0625z"/><path d="m1257.35 91.4062v7.2188h-1.84v-12h1.78v1.875h.15c.29-.6094.71-1.099 1.29-1.4688.57-.375 1.31-.5624 2.21-.5624.82 0 1.53.1666 2.14.5.61.3281 1.08.8281 1.42 1.5.34.6666.51 1.5104.51 2.5312v7.625h-1.85v-7.5c0-.9427-.24-1.6771-.73-2.2031-.49-.5313-1.16-.7969-2.02-.7969-.59 0-1.11.1276-1.58.3828-.45.2552-.82.6276-1.08 1.1172-.27.4896-.4 1.0833-.4 1.7812z"/><path d="m1248.61 98.875c-1.15 0-2.15-.2552-2.99-.7656-.83-.5156-1.48-1.2344-1.93-2.1563-.45-.9271-.67-2.0052-.67-3.2343 0-1.2292.22-2.3126.67-3.25.45-.9428 1.08-1.6771 1.89-2.2032.81-.5312 1.76-.7968 2.85-.7968.62 0 1.24.1041 1.85.3124.61.2084 1.16.5469 1.66 1.0157.5.4635.9 1.0781 1.2 1.8437.29.7656.44 1.7084.44 2.8282v.7812h-9.25v-1.5938h7.38c0-.677-.14-1.2812-.41-1.8124-.27-.5313-.65-.9506-1.14-1.2579s-1.07-.4609-1.73-.4609c-.74 0-1.37.1823-1.91.5469-.53.3594-.94.8281-1.23 1.4062-.28.5782-.43 1.1979-.43 1.8594v1.0625c0 .9062.16 1.6745.47 2.3047.32.625.76 1.1015 1.32 1.4297.56.3229 1.22.4844 1.96.4844.49 0 .92-.0678 1.32-.2032.39-.1406.73-.3489 1.02-.625.29-.2812.51-.6302.66-1.0468l1.78.5c-.18.6041-.5 1.1354-.94 1.5937-.44.4531-.99.8073-1.64 1.0625-.65.25-1.38.375-2.2.375z"/><path d="m1237.05 98.875c-1.13 0-2.1-.2656-2.91-.7969-.81-.5312-1.44-1.263-1.87-2.1953-.44-.9323-.66-1.9974-.66-3.1953 0-1.2187.22-2.2943.67-3.2266.46-.9375 1.09-1.6692 1.89-2.1953.82-.5312 1.76-.7968 2.85-.7968.84 0 1.6.1562 2.28.4687.67.3125 1.23.75 1.66 1.3125s.7 1.2187.81 1.9688h-1.85c-.14-.5469-.45-1.0313-.93-1.4532-.48-.4271-1.13-.6406-1.94-.6406-.72 0-1.35.1875-1.89.5625-.54.3698-.96.8932-1.26 1.5703-.3.6719-.45 1.4609-.45 2.3672 0 .9271.15 1.7344.44 2.4219.3.6875.72 1.2213 1.25 1.6015.54.3802 1.18.5704 1.91.5704.48 0 .91-.0834 1.3-.25.39-.1667.72-.4063.99-.7188.28-.3125.47-.6875.58-1.125h1.85c-.11.7083-.37 1.3464-.78 1.9141-.4.5625-.94 1.0104-1.61 1.3437-.67.3281-1.45.4922-2.33.4922z"/><path d="m1227.83 98.625v-12h1.85v12zm.94-14c-.36 0-.67-.1224-.93-.3672s-.38-.539-.38-.8828.12-.638.38-.8828.57-.3672.93-.3672.67.1224.92.3672c.26.2448.39.539.39.8828s-.13.638-.39.8828c-.25.2448-.56.3672-.92.3672z"/><path d="m1225.34 82.625v16h-1.85v-16z"/><path d="m1210.5 98.8438c-1.18 0-2.18-.3204-3.01-.961-.82-.6458-1.46-1.5807-1.89-2.8047-.44-1.2291-.66-2.7135-.66-4.4531 0-1.7292.22-3.2057.66-4.4297.44-1.2292 1.07-2.1667 1.9-2.8125.83-.651 1.83-.9766 3-.9766s2.17.3256 2.99.9766c.84.6458 1.47 1.5833 1.91 2.8125.44 1.224.66 2.7005.66 4.4297 0 1.7396-.21 3.224-.65 4.4531-.44 1.224-1.07 2.1589-1.9 2.8047-.83.6406-1.83.961-3.01.961zm0-1.7188c1.17 0 2.07-.5625 2.72-1.6875s.97-2.7292.97-4.8125c0-1.3854-.15-2.5651-.45-3.5391-.29-.9739-.71-1.7161-1.26-2.2265s-1.21-.7656-1.98-.7656c-1.15 0-2.06.5703-2.71 1.7109-.65 1.1354-.98 2.7422-.98 4.8203 0 1.3854.15 2.5625.44 3.5312.29.9688.71 1.7058 1.26 2.211s1.22.7578 1.99.7578z"/><path d="m1202.04 98.75c-.39 0-.72-.138-.99-.4141-.28-.276-.42-.6067-.42-.9921 0-.3855.14-.7162.42-.9922.27-.2761.6-.4141.99-.4141.38 0 .71.138.99.4141.28.276.41.6067.41.9922 0 .2552-.06.4895-.19.7031-.13.2135-.3.3854-.51.5156-.21.125-.44.1875-.7.1875z"/><path d="m1188.22 98.625v-1.4062l5.28-5.7813c.62-.6771 1.13-1.2656 1.53-1.7656.41-.5052.7-.9792.9-1.4219.19-.4479.29-.9167.29-1.4062 0-.5625-.13-1.0495-.4-1.461-.27-.4114-.63-.7292-1.1-.9531-.46-.224-.98-.3359-1.56-.3359-.61 0-1.15.1276-1.61.3828-.45.25-.8.6015-1.05 1.0546-.25.4532-.37.9844-.37 1.5938h-1.85c0-.9375.22-1.7604.65-2.4688.44-.7083 1.02-1.2604 1.77-1.6562s1.59-.5938 2.52-.5938c.94 0 1.77.198 2.49.5938.73.3958 1.3.9297 1.71 1.6016.41.6718.61 1.4192.61 2.2422 0 .5885-.1 1.164-.32 1.7265-.2.5573-.57 1.1797-1.09 1.8672-.51.6823-1.23 1.5156-2.15 2.5l-3.59 3.8437v.125h7.44v1.7188z"/><path d="m1176.05 98.875c-1.15 0-2.15-.2552-2.99-.7656-.83-.5156-1.48-1.2344-1.93-2.1563-.45-.9271-.67-2.0052-.67-3.2343 0-1.2292.22-2.3126.67-3.25.45-.9428 1.08-1.6771 1.89-2.2032.81-.5312 1.76-.7968 2.85-.7968.62 0 1.24.1041 1.85.3124.61.2084 1.16.5469 1.66 1.0157.5.4635.9 1.0781 1.2 1.8437.29.7656.44 1.7084.44 2.8282v.7812h-9.25v-1.5938h7.38c0-.677-.14-1.2812-.41-1.8124-.27-.5313-.65-.9506-1.14-1.2579s-1.07-.4609-1.73-.4609c-.74 0-1.37.1823-1.91.5469-.53.3594-.94.8281-1.23 1.4062-.28.5782-.43 1.1979-.43 1.8594v1.0625c0 .9062.16 1.6745.47 2.3047.32.625.76 1.1015 1.32 1.4297.56.3229 1.22.4844 1.96.4844.49 0 .92-.0678 1.32-.2032.39-.1406.73-.3489 1.02-.625.28-.2812.51-.6302.66-1.0468l1.78.5c-.18.6041-.5 1.1354-.94 1.5937-.44.4531-.99.8073-1.64 1.0625-.65.25-1.38.375-2.2.375z"/><path d="m1160.75 91.4062v7.2188h-1.85v-16h1.85v5.875h.15c.28-.6198.71-1.112 1.27-1.4766.57-.3698 1.32-.5546 2.26-.5546.82 0 1.54.164 2.15.4921.62.323 1.09.8204 1.43 1.4922.35.6667.52 1.5156.52 2.5469v7.625h-1.85v-7.5c0-.9531-.24-1.6901-.74-2.2109-.49-.5261-1.17-.7891-2.04-.7891-.6 0-1.14.1276-1.62.3828s-.85.6276-1.13 1.1172c-.27.4896-.4 1.0833-.4 1.7812z"/><path d="m1152.37 98.875c-1.13 0-2.09-.2656-2.91-.7969-.81-.5312-1.43-1.263-1.87-2.1953s-.66-1.9974-.66-3.1953c0-1.2187.23-2.2943.67-3.2266.46-.9375 1.09-1.6692 1.89-2.1953.82-.5312 1.76-.7968 2.85-.7968.84 0 1.6.1562 2.28.4687s1.23.75 1.66 1.3125c.44.5625.7 1.2187.81 1.9688h-1.85c-.14-.5469-.45-1.0313-.93-1.4532-.48-.4271-1.13-.6406-1.94-.6406-.72 0-1.35.1875-1.89.5625-.54.3698-.96.8932-1.26 1.5703-.3.6719-.44 1.4609-.44 2.3672 0 .9271.14 1.7344.43 2.4219.3.6875.72 1.2213 1.25 1.6015.54.3802 1.18.5704 1.91.5704.48 0 .91-.0834 1.3-.25.39-.1667.73-.4063 1-.7188s.46-.6875.57-1.125h1.85c-.11.7083-.36 1.3464-.78 1.9141-.4.5625-.94 1.0104-1.61 1.3437-.67.3281-1.45.4922-2.33.4922z"/><path d="m1139.51 98.9062c-.76 0-1.45-.1432-2.07-.4296-.62-.2917-1.11-.711-1.48-1.2578-.36-.5521-.54-1.2188-.54-2 0-.6876.13-1.2448.4-1.6719.27-.4323.63-.7709 1.09-1.0157.45-.2447.95-.427 1.5-.5468.55-.125 1.1-.224 1.66-.2969.73-.0938 1.32-.1641 1.77-.2109.46-.0521.8-.1381 1-.2578.22-.1198.33-.3282.33-.625v-.0626c0-.7708-.22-1.3697-.64-1.7968-.41-.4271-1.05-.6406-1.9-.6406-.88 0-1.57.1927-2.07.5781s-.85.7969-1.05 1.2343l-1.75-.625c.31-.7291.73-1.2968 1.25-1.7031.53-.4114 1.1-.6979 1.72-.8593.62-.1667 1.24-.25 1.84-.25.39 0 .83.0468 1.33.1406.5.0885.99.2734 1.46.5547.47.2812.87.7057 1.18 1.2734s.47 1.3281.47 2.2813v7.9062h-1.84v-1.625h-.1c-.12.2604-.33.5391-.62.8359-.3.2969-.68.5495-1.17.7579-.48.2083-1.07.3124-1.77.3124zm.28-1.6562c.73 0 1.34-.1432 1.84-.4297.51-.2864.89-.6562 1.14-1.1094.27-.4531.4-.9297.4-1.4297v-1.6874c-.08.0937-.25.1796-.52.2578-.26.0729-.56.138-.91.1953-.34.0521-.67.0989-.99.1406-.32.0365-.57.0677-.77.0937-.48.0625-.93.1641-1.35.3047-.41.1355-.74.3412-1 .6172-.25.2709-.37.6406-.37 1.1094 0 .6406.24 1.125.71 1.4531.48.3229 1.09.4844 1.82.4844z"/><path d="m1123.45 103.125v-16.5h1.78v1.9062h.22c.14-.2083.32-.4739.56-.7968.25-.3281.6-.6198 1.05-.875.46-.2604 1.08-.3906 1.86-.3906 1.01 0 1.9.2526 2.67.7578s1.37 1.2213 1.81 2.1484c.43.9271.65 2.0208.65 3.2812 0 1.2709-.22 2.3724-.65 3.3047-.44.9271-1.03 1.6459-1.8 2.1563-.77.5052-1.65.7578-2.65.7578-.77 0-1.39-.1276-1.85-.3828-.46-.2604-.82-.5547-1.07-.8828-.25-.3334-.44-.6094-.58-.8282h-.15v6.3438zm1.81-10.5c0 .9063.14 1.7057.4 2.3984.27.6875.66 1.2266 1.17 1.6172.51.3854 1.13.5782 1.87.5782.77 0 1.42-.2032 1.93-.6094.52-.4115.91-.9636 1.17-1.6563.27-.6979.4-1.4739.4-2.3281 0-.8437-.13-1.6042-.39-2.2812-.25-.6823-.64-1.2214-1.16-1.6172-.52-.4011-1.17-.6016-1.95-.6016-.75 0-1.38.1901-1.89.5703-.51.375-.89.9011-1.16 1.5781-.26.6719-.39 1.4558-.39 2.3516z"/><path d="m1110.37 98.625h-2.03l5.87-16h2l5.88 16h-2.03l-4.78-13.4688h-.13zm.75-6.25h8.19v1.7188h-8.19z"/><path d="m1097.26 98.875c-1.15 0-2.15-.2552-2.99-.7656-.83-.5156-1.48-1.2344-1.93-2.1563-.45-.9271-.67-2.0052-.67-3.2343 0-1.2292.22-2.3126.67-3.25.45-.9428 1.08-1.6771 1.89-2.2032.81-.5312 1.76-.7968 2.85-.7968.62 0 1.24.1041 1.85.3124.61.2084 1.16.5469 1.66 1.0157.5.4635.9 1.0781 1.2 1.8437.29.7656.44 1.7084.44 2.8282v.7812h-9.25v-1.5938h7.38c0-.677-.14-1.2812-.41-1.8124-.26-.5313-.64-.9506-1.14-1.2579-.49-.3073-1.07-.4609-1.73-.4609-.74 0-1.37.1823-1.91.5469-.53.3594-.94.8281-1.23 1.4062-.28.5782-.43 1.1979-.43 1.8594v1.0625c0 .9062.16 1.6745.47 2.3047.32.625.76 1.1015 1.32 1.4297.56.3229 1.22.4844 1.96.4844.49 0 .93-.0678 1.32-.2032.39-.1406.73-.3489 1.02-.625.29-.2812.51-.6302.66-1.0468l1.78.5c-.18.6041-.5 1.1354-.94 1.5937-.44.4531-.99.8073-1.64 1.0625-.65.25-1.38.375-2.2.375z"/><path d="m1081.96 91.4062v7.2188h-1.85v-16h1.85v5.875h.15c.29-.6198.71-1.112 1.27-1.4766.57-.3698 1.32-.5546 2.27-.5546.81 0 1.53.164 2.14.4921.62.323 1.09.8204 1.43 1.4922.35.6667.52 1.5156.52 2.5469v7.625h-1.84v-7.5c0-.9531-.25-1.6901-.75-2.2109-.49-.5261-1.17-.7891-2.04-.7891-.6 0-1.14.1276-1.62.3828-.47.2552-.85.6276-1.13 1.1172-.27.4896-.4 1.0833-.4 1.7812z"/><path d="m1077.96 86.625v1.5625h-6.22v-1.5625zm-4.4-2.875h1.84v11.4375c0 .5208.08.9115.23 1.1719.15.2552.35.4271.59.5156.25.0833.5.125.77.125.21 0 .37-.0104.5-.0312.13-.0261.24-.0469.32-.0626l.37 1.6563c-.12.0469-.3.0937-.52.1406-.23.0521-.51.0781-.85.0781-.52 0-1.03-.1119-1.53-.3359-.5-.2239-.91-.5651-1.24-1.0234-.32-.4584-.48-1.0365-.48-1.7344z"/><path d="m1060.13 98.625v-12h1.78v1.8125h.13c.22-.5937.61-1.0755 1.18-1.4453.58-.3698 1.22-.5547 1.94-.5547.14 0 .31.0026.51.0078s.36.013.46.0235v1.875c-.06-.0157-.2-.0391-.43-.0704-.22-.0364-.45-.0546-.69-.0546-.59 0-1.11.1223-1.57.3671-.45.2396-.81.573-1.07 1-.27.4219-.4.9037-.4 1.4453v7.5938z"/><path d="m1053.24 98.875c-1.16 0-2.16-.2552-2.99-.7656-.84-.5156-1.48-1.2344-1.93-2.1563-.45-.9271-.68-2.0052-.68-3.2343 0-1.2292.23-2.3126.68-3.25.45-.9428 1.08-1.6771 1.89-2.2032.81-.5312 1.76-.7968 2.84-.7968.63 0 1.24.1041 1.85.3124.61.2084 1.17.5469 1.67 1.0157.5.4635.89 1.0781 1.19 1.8437s.45 1.7084.45 2.8282v.7812h-9.25v-1.5938h7.37c0-.677-.13-1.2812-.4-1.8124-.27-.5313-.65-.9506-1.15-1.2579-.49-.3073-1.06-.4609-1.73-.4609-.73 0-1.37.1823-1.91.5469-.53.3594-.94.8281-1.22 1.4062-.29.5782-.43 1.1979-.43 1.8594v1.0625c0 .9062.15 1.6745.47 2.3047.31.625.75 1.1015 1.32 1.4297.56.3229 1.21.4844 1.96.4844.48 0 .92-.0678 1.31-.2032.4-.1406.74-.3489 1.02-.625.29-.2812.51-.6302.67-1.0468l1.78.5c-.19.6041-.5 1.1354-.95 1.5937-.44.4531-.99.8073-1.64 1.0625-.65.25-1.38.375-2.19.375z"/><path d="m1039.95 98.875c-1 0-1.88-.2526-2.64-.7578-.77-.5104-1.37-1.2292-1.8-2.1563-.43-.9323-.65-2.0338-.65-3.3047 0-1.2604.22-2.3541.65-3.2812s1.03-1.6432 1.8-2.1484 1.66-.7578 2.67-.7578c.79 0 1.4.1302 1.86.3906.45.2552.8.5469 1.04.875.25.3229.44.5885.57.7968h.16v-5.9062h1.84v16h-1.78v-1.8438h-.22c-.13.2188-.32.4948-.57.8282-.25.3281-.61.6224-1.07.8828-.47.2552-1.09.3828-1.86.3828zm.25-1.6562c.74 0 1.37-.1928 1.88-.5782.51-.3906.9-.9297 1.16-1.6172.27-.6927.4-1.4921.4-2.3984 0-.8958-.13-1.6797-.39-2.3516-.26-.677-.65-1.2031-1.16-1.5781-.51-.3802-1.14-.5703-1.89-.5703-.78 0-1.43.2005-1.95.6016-.52.3958-.9.9349-1.16 1.6172-.26.677-.39 1.4375-.39 2.2812 0 .8542.13 1.6302.39 2.3281.27.6927.66 1.2448 1.18 1.6563.52.4062 1.16.6094 1.93.6094z"/><path d="m1025.28 91.4062v7.2188h-1.85v-12h1.78v1.875h.16c.28-.6094.71-1.099 1.28-1.4688.57-.375 1.31-.5624 2.22-.5624.81 0 1.52.1666 2.13.5.61.3281 1.09.8281 1.43 1.5.33.6666.5 1.5104.5 2.5312v7.625h-1.84v-7.5c0-.9427-.25-1.6771-.74-2.2031-.48-.5313-1.16-.7969-2.01-.7969-.59 0-1.12.1276-1.58.3828s-.82.6276-1.08 1.1172c-.27.4896-.4 1.0833-.4 1.7812z"/><path d="m1019.09 93.7188v-7.0938h1.85v12h-1.85v-2.0312h-.12c-.28.6093-.72 1.1276-1.32 1.5546-.59.4219-1.34.6328-2.25.6328-.75 0-1.41-.164-2-.4921-.58-.3334-1.04-.8334-1.37-1.5-.33-.6719-.5-1.5183-.5-2.5391v-7.625h1.84v7.5c0 .875.25 1.5729.74 2.0938.49.5208 1.12.7812 1.89.7812.46 0 .92-.1172 1.4-.3516.48-.2343.88-.5937 1.2-1.0781.33-.4844.49-1.1015.49-1.8515z"/><path d="m999.329 98.875c-1.156 0-2.154-.2552-2.992-.7656-.834-.5156-1.477-1.2344-1.93-2.1563-.448-.9271-.672-2.0052-.672-3.2343 0-1.2292.224-2.3126.672-3.25.453-.9428 1.083-1.6771 1.891-2.2032.812-.5312 1.76-.7968 2.843-.7968.625 0 1.239.1041 1.849.3124.61.2084 1.17.5469 1.67 1.0157.5.4635.9 1.0781 1.19 1.8437.3.7656.45 1.7084.45 2.8282v.7812h-9.252v-1.5938h7.372c0-.677-.13-1.2812-.4-1.8124-.27-.5313-.65-.9506-1.14-1.2579s-1.072-.4609-1.739-.4609c-.734 0-1.369.1823-1.906.5469-.531.3594-.94.8281-1.226 1.4062-.287.5782-.43 1.1979-.43 1.8594v1.0625c0 .9062.156 1.6745.469 2.3047.317.625.758 1.1015 1.32 1.4297.563.3229 1.216.4844 1.961.4844.484 0 .921-.0678 1.311-.2032.4-.1406.74-.3489 1.02-.625.29-.2812.51-.6302.67-1.0468l1.78.5c-.19.6041-.5 1.1354-.95 1.5937-.44.4531-.98.8073-1.64 1.0625-.65.25-1.38.375-2.191.375z"/><path d="m987.764 98.875c-1.125 0-2.094-.2656-2.907-.7969-.812-.5312-1.437-1.263-1.875-2.1953-.437-.9323-.656-1.9974-.656-3.1953 0-1.2187.224-2.2943.672-3.2266.453-.9375 1.083-1.6692 1.891-2.1953.812-.5312 1.76-.7968 2.843-.7968.844 0 1.605.1562 2.282.4687s1.231.75 1.664 1.3125c.432.5625.7 1.2187.804 1.9688h-1.843c-.141-.5469-.453-1.0313-.938-1.4532-.479-.4271-1.125-.6406-1.937-.6406-.719 0-1.349.1875-1.891.5625-.536.3698-.956.8932-1.258 1.5703-.297.6719-.445 1.4609-.445 2.3672 0 .9271.146 1.7344.437 2.4219.297.6875.714 1.2213 1.25 1.6015.542.3802 1.178.5704 1.907.5704.479 0 .914-.0834 1.304-.25.391-.1667.722-.4063.993-.7188.27-.3125.463-.6875.578-1.125h1.843c-.104.7083-.362 1.3464-.773 1.9141-.406.5625-.945 1.0104-1.617 1.3437-.667.3281-1.443.4922-2.328.4922z"/><path d="m975.948 98.625v-12h1.782v1.8125h.125c.218-.5937.614-1.0755 1.187-1.4453s1.219-.5547 1.938-.5547c.135 0 .304.0026.507.0078.204.0052.357.013.461.0235v1.875c-.062-.0157-.205-.0391-.429-.0704-.219-.0364-.451-.0546-.696-.0546-.583 0-1.104.1223-1.562.3671-.453.2396-.813.573-1.078 1-.261.4219-.391.9037-.391 1.4453v7.5938z"/><path d="m971.608 93.7188v-7.0938h1.843v12h-1.843v-2.0312h-.125c-.282.6093-.719 1.1276-1.313 1.5546-.594.4219-1.344.6328-2.25.6328-.75 0-1.417-.164-2-.4921-.583-.3334-1.042-.8334-1.375-1.5-.333-.6719-.5-1.5183-.5-2.5391v-7.625h1.844v7.5c0 .875.245 1.5729.734 2.0938.495.5208 1.125.7812 1.891.7812.458 0 .924-.1172 1.398-.3516.48-.2343.881-.5937 1.203-1.0781.329-.4844.493-1.1015.493-1.8515z"/><path d="m956.673 98.875c-1.083 0-2.034-.2578-2.851-.7734-.813-.5157-1.448-1.237-1.907-2.1641-.453-.9271-.679-2.0104-.679-3.25 0-1.25.226-2.3411.679-3.2734.459-.9323 1.094-1.6563 1.907-2.1719.817-.5156 1.768-.7734 2.851-.7734 1.084 0 2.031.2578 2.844.7734.818.5156 1.453 1.2396 1.906 2.1719.459.9323.688 2.0234.688 3.2734 0 1.2396-.229 2.3229-.688 3.25-.453.9271-1.088 1.6484-1.906 2.1641-.813.5156-1.76.7734-2.844.7734zm0-1.6562c.823 0 1.5-.211 2.031-.6329.532-.4218.925-.9765 1.18-1.664s.383-1.4323.383-2.2344-.128-1.5495-.383-2.2422-.648-1.2526-1.18-1.6797c-.531-.4271-1.208-.6406-2.031-.6406s-1.5.2135-2.031.6406-.925.987-1.18 1.6797-.383 1.4401-.383 2.2422.128 1.5469.383 2.2344.649 1.2422 1.18 1.664c.531.4219 1.208.6329 2.031.6329z"/><path d="m947.649 86.625c-.094-.7917-.474-1.4062-1.141-1.8438-.666-.4375-1.484-.6562-2.453-.6562-.708 0-1.328.1146-1.859.3438-.526.2291-.938.5442-1.235.9453-.291.401-.437.8567-.437 1.3671 0 .4271.101.7943.305 1.1016.208.3021.474.5547.796.7578.323.1979.662.362 1.016.4922.354.125.68.2266.977.3047l1.625.4375c.416.1094.88.2604 1.39.4531.516.1927 1.008.4558 1.477.7891.474.3281.864.75 1.172 1.2656.307.5156.461 1.1485.461 1.8984 0 .8646-.227 1.6459-.68 2.3438-.448.6979-1.104 1.2526-1.969 1.6641-.859.4114-1.903.6171-3.133.6171-1.145 0-2.138-.1848-2.976-.5546-.834-.3698-1.49-.8855-1.969-1.5469-.474-.6615-.742-1.4297-.805-2.3047h2c.052.6042.256 1.1042.61 1.5.359.3906.812.6823 1.359.875.552.1875 1.146.2812 1.781.2812.74 0 1.404-.1197 1.993-.3593.588-.2448 1.054-.5834 1.398-1.0157.344-.4374.516-.9479.516-1.5312 0-.5313-.149-.9635-.446-1.2969-.297-.3333-.687-.6041-1.172-.8125-.484-.2083-1.007-.3906-1.57-.5468l-1.969-.5626c-1.25-.3593-2.239-.8723-2.968-1.539-.73-.6667-1.094-1.5391-1.094-2.6172 0-.8958.242-1.6771.726-2.3438.49-.6718 1.146-1.1927 1.969-1.5624.828-.3751 1.753-.5626 2.774-.5626 1.031 0 1.948.1849 2.75.5547.802.3646 1.437.8646 1.906 1.5.474.6355.724 1.3568.75 2.1641z"/><path d="m923.196 91.4062v7.2188h-1.844v-12h1.781v1.875h.157c.281-.6094.708-1.099 1.281-1.4688.573-.375 1.312-.5624 2.219-.5624.812 0 1.523.1666 2.133.5.609.3281 1.083.8281 1.421 1.5.339.6666.508 1.5104.508 2.5312v7.625h-1.844v-7.5c0-.9427-.244-1.6771-.734-2.2031-.489-.5313-1.161-.7969-2.016-.7969-.588 0-1.114.1276-1.578.3828-.458.2552-.82.6276-1.086 1.1172-.265.4896-.398 1.0833-.398 1.7812z"/><path d="m914.459 98.875c-1.156 0-2.154-.2552-2.992-.7656-.834-.5156-1.477-1.2344-1.93-2.1563-.448-.9271-.672-2.0052-.672-3.2343 0-1.2292.224-2.3126.672-3.25.453-.9428 1.083-1.6771 1.891-2.2032.812-.5312 1.76-.7968 2.843-.7968.625 0 1.243.1041 1.852.3124.609.2084 1.164.5469 1.664 1.0157.5.4635.898 1.0781 1.195 1.8437s.446 1.7084.446 2.8282v.7812h-9.25v-1.5938h7.375c0-.677-.136-1.2812-.407-1.8124-.265-.5313-.646-.9506-1.14-1.2579-.49-.3073-1.068-.4609-1.735-.4609-.734 0-1.369.1823-1.906.5469-.531.3594-.94.8281-1.226 1.4062-.287.5782-.43 1.1979-.43 1.8594v1.0625c0 .9062.156 1.6745.469 2.3047.317.625.757 1.1015 1.32 1.4297.562.3229 1.216.4844 1.961.4844.484 0 .922-.0678 1.312-.2032.396-.1406.737-.3489 1.024-.625.286-.2812.508-.6302.664-1.0468l1.781.5c-.187.6041-.503 1.1354-.945 1.5937-.443.4531-.99.8073-1.641 1.0625-.651.25-1.383.375-2.195.375z"/><path d="m896.901 103.125v-16.5h1.782v1.9062h.218c.136-.2083.323-.4739.563-.7968.245-.3281.594-.6198 1.047-.875.458-.2604 1.078-.3906 1.859-.3906 1.01 0 1.901.2526 2.672.7578s1.372 1.2213 1.805 2.1484c.432.9271.648 2.0208.648 3.2812 0 1.2709-.216 2.3724-.648 3.3047-.433.9271-1.032 1.6459-1.797 2.1563-.766.5052-1.649.7578-2.649.7578-.771 0-1.388-.1276-1.851-.3828-.464-.2604-.821-.5547-1.071-.8828-.25-.3334-.442-.6094-.578-.8282h-.156v6.3438zm1.813-10.5c0 .9063.133 1.7057.398 2.3984.266.6875.654 1.2266 1.164 1.6172.511.3854 1.136.5782 1.875.5782.771 0 1.414-.2032 1.93-.6094.521-.4115.911-.9636 1.172-1.6563.266-.6979.398-1.4739.398-2.3281 0-.8437-.13-1.6042-.39-2.2812-.256-.6823-.644-1.2214-1.164-1.6172-.516-.4011-1.164-.6016-1.946-.6016-.75 0-1.38.1901-1.89.5703-.511.375-.896.9011-1.157 1.5781-.26.6719-.39 1.4558-.39 2.3516z"/><path d="m894.773 90.625c0 1.6875-.304 3.1458-.914 4.375-.609 1.2292-1.445 2.1771-2.507 2.8438-1.063.6666-2.276 1-3.641 1s-2.578-.3334-3.641-1c-1.062-.6667-1.898-1.6146-2.507-2.8438-.61-1.2292-.915-2.6875-.915-4.375s.305-3.1458.915-4.375c.609-1.2292 1.445-2.1771 2.507-2.8438 1.063-.6666 2.276-1 3.641-1s2.578.3334 3.641 1c1.062.6667 1.898 1.6146 2.507 2.8438.61 1.2292.914 2.6875.914 4.375zm-1.875 0c0-1.3854-.231-2.5547-.695-3.5078-.458-.9531-1.081-1.6745-1.867-2.1641-.781-.4896-1.656-.7343-2.625-.7343s-1.846.2447-2.633.7343c-.781.4896-1.403 1.211-1.867 2.1641-.458.9531-.688 2.1224-.688 3.5078s.23 2.5547.688 3.5078c.464.9531 1.086 1.6745 1.867 2.1641.787.4896 1.664.7343 2.633.7343s1.844-.2447 2.625-.7343c.786-.4896 1.409-1.211 1.867-2.1641.464-.9531.695-2.1224.695-3.5078z"/><path d="m867.463 98.875c-1 0-1.883-.2526-2.648-.7578-.766-.5104-1.365-1.2292-1.797-2.1563-.432-.9323-.649-2.0338-.649-3.3047 0-1.2604.217-2.3541.649-3.2812s1.034-1.6432 1.805-2.1484c.77-.5052 1.661-.7578 2.671-.7578.782 0 1.399.1302 1.852.3906.458.2552.807.5469 1.047.875.245.3229.435.5885.57.7968h.156v-5.9062h1.844v16h-1.781v-1.8438h-.219c-.135.2188-.328.4948-.578.8282-.25.3281-.607.6224-1.07.8828-.464.2552-1.081.3828-1.852.3828zm.25-1.6562c.74 0 1.365-.1928 1.875-.5782.511-.3906.899-.9297 1.164-1.6172.266-.6927.399-1.4921.399-2.3984 0-.8958-.131-1.6797-.391-2.3516-.26-.677-.646-1.2031-1.156-1.5781-.511-.3802-1.141-.5703-1.891-.5703-.781 0-1.432.2005-1.953.6016-.516.3958-.904.9349-1.164 1.6172-.255.677-.383 1.4375-.383 2.2812 0 .8542.13 1.6302.391 2.3281.265.6927.656 1.2448 1.172 1.6563.521.4062 1.166.6094 1.937.6094z"/><path d="m852.787 91.4062v7.2188h-1.844v-12h1.781v1.875h.156c.282-.6094.709-1.099 1.282-1.4688.572-.375 1.312-.5624 2.218-.5624.813 0 1.524.1666 2.133.5.609.3281 1.083.8281 1.422 1.5.339.6666.508 1.5104.508 2.5312v7.625h-1.844v-7.5c0-.9427-.245-1.6771-.734-2.2031-.49-.5313-1.162-.7969-2.016-.7969-.588 0-1.115.1276-1.578.3828-.458.2552-.82.6276-1.086 1.1172s-.398 1.0833-.398 1.7812z"/><path d="m842.958 98.9062c-.761 0-1.451-.1432-2.071-.4296-.62-.2917-1.112-.711-1.476-1.2578-.365-.5521-.547-1.2188-.547-2 0-.6876.135-1.2448.406-1.6719.271-.4323.633-.7709 1.086-1.0157.453-.2447.953-.427 1.5-.5468.552-.125 1.107-.224 1.664-.2969.729-.0938 1.32-.1641 1.774-.2109.458-.0521.791-.1381 1-.2578.213-.1198.32-.3282.32-.625v-.0626c0-.7708-.211-1.3697-.633-1.7968-.417-.4271-1.049-.6406-1.898-.6406-.881 0-1.571.1927-2.071.5781s-.851.7969-1.054 1.2343l-1.75-.625c.312-.7291.729-1.2968 1.25-1.7031.526-.4114 1.099-.6979 1.718-.8593.625-.1667 1.24-.25 1.844-.25.385 0 .828.0468 1.328.1406.505.0885.992.2734 1.461.5547.474.2812.867.7057 1.18 1.2734.312.5677.469 1.3281.469 2.2813v7.9062h-1.844v-1.625h-.094c-.125.2604-.333.5391-.625.8359-.292.2969-.68.5495-1.164.7579-.484.2083-1.076.3124-1.773.3124zm.281-1.6562c.729 0 1.344-.1432 1.844-.4297.505-.2864.885-.6562 1.14-1.1094.261-.4531.391-.9297.391-1.4297v-1.6874c-.078.0937-.25.1796-.516.2578-.26.0729-.562.138-.906.1953-.339.0521-.669.0989-.992.1406-.318.0365-.576.0677-.774.0937-.479.0625-.927.1641-1.343.3047-.412.1355-.745.3412-1 .6172-.25.2709-.375.6406-.375 1.1094 0 .6406.237 1.125.711 1.4531.479.3229 1.085.4844 1.82.4844z"/><path d="m827.225 98.875c-1.156 0-2.153-.2552-2.992-.7656-.833-.5156-1.476-1.2344-1.93-2.1563-.447-.9271-.671-2.0052-.671-3.2343 0-1.2292.224-2.3126.671-3.25.454-.9428 1.084-1.6771 1.891-2.2032.813-.5312 1.761-.7968 2.844-.7968.625 0 1.242.1041 1.851.3124.61.2084 1.164.5469 1.664 1.0157.5.4635.899 1.0781 1.196 1.8437s.445 1.7084.445 2.8282v.7812h-9.25v-1.5938h7.375c0-.677-.135-1.2812-.406-1.8124-.266-.5313-.646-.9506-1.141-1.2579-.489-.3073-1.067-.4609-1.734-.4609-.735 0-1.37.1823-1.906.5469-.532.3594-.94.8281-1.227 1.4062-.286.5782-.43 1.1979-.43 1.8594v1.0625c0 .9062.157 1.6745.469 2.3047.318.625.758 1.1015 1.32 1.4297.563.3229 1.217.4844 1.961.4844.485 0 .922-.0678 1.313-.2032.396-.1406.737-.3489 1.023-.625.287-.2812.508-.6302.664-1.0468l1.782.5c-.188.6041-.503 1.1354-.946 1.5937-.442.4531-.989.8073-1.64 1.0625-.651.25-1.383.375-2.196.375z"/><path d="m815.301 98.875c-1.157 0-2.154-.2552-2.992-.7656-.834-.5156-1.477-1.2344-1.93-2.1563-.448-.9271-.672-2.0052-.672-3.2343 0-1.2292.224-2.3126.672-3.25.453-.9428 1.083-1.6771 1.89-2.2032.813-.5312 1.761-.7968 2.844-.7968.625 0 1.242.1041 1.852.3124.609.2084 1.164.5469 1.664 1.0157.5.4635.898 1.0781 1.195 1.8437s.445 1.7084.445 2.8282v.7812h-9.25v-1.5938h7.375c0-.677-.135-1.2812-.406-1.8124-.265-.5313-.646-.9506-1.14-1.2579-.49-.3073-1.068-.4609-1.735-.4609-.734 0-1.37.1823-1.906.5469-.531.3594-.94.8281-1.227 1.4062-.286.5782-.429 1.1979-.429 1.8594v1.0625c0 .9062.156 1.6745.468 2.3047.318.625.758 1.1015 1.321 1.4297.562.3229 1.216.4844 1.961.4844.484 0 .922-.0678 1.312-.2032.396-.1406.737-.3489 1.024-.625.286-.2812.507-.6302.664-1.0468l1.781.5c-.188.6041-.503 1.1354-.945 1.5937-.443.4531-.99.8073-1.641 1.0625-.651.25-1.383.375-2.195.375z"/><path d="m803.329 98.625v-12h1.781v1.8125h.125c.219-.5937.615-1.0755 1.188-1.4453s1.219-.5547 1.937-.5547c.136 0 .305.0026.508.0078s.357.013.461.0235v1.875c-.062-.0157-.206-.0391-.43-.0704-.218-.0364-.45-.0546-.695-.0546-.583 0-1.104.1223-1.562.3671-.453.2396-.813.573-1.078 1-.261.4219-.391.9037-.391 1.4453v7.5938z"/><path d="m801.625 86.625v1.5625h-6.469v-1.5625zm-4.531 12v-13.6562c0-.6876.161-1.2605.484-1.7188s.742-.8021 1.258-1.0312c.516-.2292 1.06-.3438 1.633-.3438.453 0 .823.0365 1.109.1094.287.0729.5.1406.641.2031l-.531 1.5937c-.094-.0312-.224-.0703-.391-.1171-.161-.0469-.375-.0703-.641-.0703-.609 0-1.049.1536-1.32.4609-.266.3073-.398.7578-.398 1.3515v13.2188z"/><path d="m782.104 95.625v-.8438c0-.5833.12-1.1171.359-1.6015.245-.4896.599-.8802 1.063-1.1719.469-.2969 1.036-.4453 1.703-.4453.677 0 1.245.1484 1.703.4453.458.2917.805.6823 1.039 1.1719.234.4844.352 1.0182.352 1.6015v.8438c0 .5833-.12 1.1198-.36 1.6094-.234.4843-.583.875-1.047 1.1718-.458.2917-1.02.4376-1.687.4376-.677 0-1.247-.1459-1.711-.4376-.464-.2968-.815-.6875-1.055-1.1718-.239-.4896-.359-1.0261-.359-1.6094zm1.594-.8438v.8438c0 .4844.114.9193.343 1.3047.23.3802.625.5703 1.188.5703.547 0 .932-.1901 1.156-.5703.229-.3854.344-.8203.344-1.3047v-.8438c0-.4843-.109-.9166-.328-1.2968-.219-.3854-.61-.5782-1.172-.5782-.547 0-.94.1928-1.18.5782-.234.3802-.351.8125-.351 1.2968zm-9.563-8.3124v-.8438c0-.5833.12-1.1172.36-1.6016.244-.4895.598-.8802 1.062-1.1718.469-.2969 1.036-.4454 1.703-.4454.677 0 1.245.1485 1.703.4454.459.2916.805.6823 1.039 1.1718.235.4844.352 1.0183.352 1.6016v.8438c0 .5833-.12 1.1197-.359 1.6093-.235.4844-.584.875-1.047 1.1719-.459.2917-1.021.4375-1.688.4375-.677 0-1.247-.1458-1.711-.4375-.463-.2969-.815-.6875-1.054-1.1719-.24-.4896-.36-1.026-.36-1.6093zm1.594-.8438v.8438c0 .4843.114.9192.344 1.3046.229.3802.625.5704 1.187.5704.547 0 .932-.1902 1.156-.5704.23-.3854.344-.8203.344-1.3046v-.8438c0-.4844-.109-.9167-.328-1.2969-.219-.3854-.609-.5781-1.172-.5781-.547 0-.94.1927-1.18.5781-.234.3802-.351.8125-.351 1.2969zm-1 13 11-16h1.781l-11 16z"/><path d="m766.296 98.8438c-1.177 0-2.179-.3204-3.007-.961-.829-.6458-1.461-1.5807-1.899-2.8047-.437-1.2291-.656-2.7135-.656-4.4531 0-1.7292.219-3.2057.656-4.4297.443-1.2292 1.078-2.1667 1.906-2.8125.834-.651 1.834-.9766 3-.9766 1.167 0 2.164.3256 2.993.9766.833.6458 1.468 1.5833 1.906 2.8125.443 1.224.664 2.7005.664 4.4297 0 1.7396-.219 3.224-.656 4.4531-.438 1.224-1.071 2.1589-1.899 2.8047-.828.6406-1.831.961-3.008.961zm0-1.7188c1.167 0 2.073-.5625 2.719-1.6875s.969-2.7292.969-4.8125c0-1.3854-.149-2.5651-.445-3.5391-.292-.9739-.714-1.7161-1.266-2.2265-.547-.5104-1.206-.7656-1.977-.7656-1.156 0-2.06.5703-2.711 1.7109-.651 1.1354-.976 2.7422-.976 4.8203 0 1.3854.146 2.5625.437 3.5312.292.9688.711 1.7058 1.258 2.211.552.5052 1.216.7578 1.992.7578z"/><path d="m753.426 98.8438c-1.177 0-2.179-.3204-3.007-.961-.829-.6458-1.461-1.5807-1.899-2.8047-.437-1.2291-.656-2.7135-.656-4.4531 0-1.7292.219-3.2057.656-4.4297.443-1.2292 1.078-2.1667 1.906-2.8125.834-.651 1.834-.9766 3-.9766 1.167 0 2.164.3256 2.993.9766.833.6458 1.468 1.5833 1.906 2.8125.443 1.224.664 2.7005.664 4.4297 0 1.7396-.219 3.224-.656 4.4531-.438 1.224-1.071 2.1589-1.899 2.8047-.828.6406-1.831.961-3.008.961zm0-1.7188c1.167 0 2.073-.5625 2.719-1.6875s.969-2.7292.969-4.8125c0-1.3854-.149-2.5651-.445-3.5391-.292-.9739-.714-1.7161-1.266-2.2265-.547-.5104-1.206-.7656-1.977-.7656-1.156 0-2.059.5703-2.711 1.7109-.651 1.1354-.976 2.7422-.976 4.8203 0 1.3854.146 2.5625.437 3.5312.292.9688.711 1.7058 1.258 2.211.552.5052 1.216.7578 1.992.7578z"/><path d="m744.486 82.625v16h-1.937v-13.9688h-.094l-3.906 2.5938v-1.9688l4-2.6562z"/><path d="m1318.63 69.75c-.39 0-.72-.138-.99-.4141-.28-.276-.42-.6067-.42-.9921 0-.3855.14-.7162.42-.9922.27-.2761.6-.4141.99-.4141.38 0 .71.138.99.4141.28.276.41.6067.41.9922 0 .2552-.06.4895-.19.7031-.13.2135-.3.3854-.51.5156-.21.125-.44.1875-.7.1875z"/><path d="m1315.17 60.3125-1.66.4687c-.1-.276-.25-.5442-.46-.8046-.2-.2657-.47-.4844-.81-.6563s-.78-.2578-1.32-.2578c-.74 0-1.35.1693-1.84.5078-.48.3333-.72.7578-.72 1.2735 0 .4583.16.8203.5 1.0859.33.2656.85.487 1.56.6641l1.78.4374c1.07.2605 1.87.6589 2.4 1.1954.53.5312.79 1.2161.79 2.0546 0 .6876-.2 1.3021-.6 1.8438-.39.5417-.93.9688-1.64 1.2812-.7.3126-1.52.4688-2.45.4688-1.22 0-2.24-.2656-3.04-.7969-.8-.5312-1.31-1.3073-1.52-2.3281l1.75-.4375c.16.6458.48 1.1302.94 1.4531.47.3229 1.08.4844 1.84.4844.86 0 1.54-.1823 2.05-.5469.51-.3698.76-.8125.76-1.3281 0-.4167-.14-.7656-.44-1.0469-.29-.2864-.74-.5-1.34-.6406l-2-.4687c-1.1-.2605-1.91-.6641-2.42-1.211-.51-.5521-.77-1.2422-.77-2.0703 0-.6771.19-1.276.57-1.7969.39-.5208.91-.9297 1.57-1.2265.67-.2969 1.43-.4453 2.27-.4453 1.19 0 2.12.2604 2.8.7812s1.16 1.2083 1.45 2.0625z"/><path d="m1298.42 69.875c-1 0-1.89-.2526-2.65-.7578-.77-.5104-1.37-1.2292-1.8-2.1563-.43-.9323-.65-2.0338-.65-3.3047 0-1.2604.22-2.3541.65-3.2812s1.04-1.6432 1.81-2.1484 1.66-.7578 2.67-.7578c.78 0 1.4.1302 1.85.3906.46.2552.81.5468 1.05.875.24.3229.43.5885.57.7968h.15v-5.9062h1.85v16h-1.78v-1.8438h-.22c-.14.2188-.33.4948-.58.8282-.25.3281-.61.6224-1.07.8828-.47.2552-1.08.3828-1.85.3828zm.25-1.6562c.74 0 1.36-.1928 1.87-.5782.51-.3906.9-.9297 1.17-1.6172.26-.6927.39-1.4921.39-2.3984 0-.8958-.13-1.6797-.39-2.3516-.26-.677-.64-1.2031-1.15-1.5781-.51-.3802-1.14-.5703-1.89-.5703-.78 0-1.44.2005-1.96.6016-.51.3958-.9.9349-1.16 1.6172-.26.677-.38 1.4375-.38 2.2812 0 .8542.13 1.6302.39 2.3281.26.6927.65 1.2448 1.17 1.6563.52.4062 1.17.6094 1.94.6094z"/><path d="m1283.74 62.4062v7.2188h-1.84v-12h1.78v1.875h.15c.28-.6094.71-1.099 1.28-1.4688.58-.375 1.32-.5624 2.22-.5624.82 0 1.53.1666 2.14.5.61.3281 1.08.8281 1.42 1.5.34.6666.51 1.5104.51 2.5312v7.625h-1.85v-7.5c0-.9427-.24-1.6771-.73-2.2031-.49-.5313-1.16-.7969-2.02-.7969-.59 0-1.11.1276-1.58.3828-.45.2552-.82.6276-1.08 1.1172-.27.4896-.4 1.0833-.4 1.7812z"/><path d="m1275 69.875c-1.15 0-2.15-.2552-2.99-.7656-.83-.5156-1.48-1.2344-1.93-2.1563-.45-.9271-.67-2.0052-.67-3.2343 0-1.2292.22-2.3126.67-3.25.45-.9428 1.08-1.6771 1.89-2.2032.81-.5312 1.76-.7968 2.85-.7968.62 0 1.24.1041 1.85.3124.61.2084 1.16.5469 1.66 1.0157.5.4635.9 1.0781 1.2 1.8437.29.7656.44 1.7084.44 2.8282v.7812h-9.25v-1.5938h7.38c0-.677-.14-1.2812-.41-1.8124-.27-.5313-.65-.9506-1.14-1.2579s-1.07-.4609-1.73-.4609c-.74 0-1.37.1823-1.91.5469-.53.3594-.94.8281-1.23 1.4062-.28.5781-.43 1.1979-.43 1.8594v1.0625c0 .9062.16 1.6745.47 2.3047.32.625.76 1.1015 1.32 1.4297.56.3229 1.22.4844 1.96.4844.49 0 .92-.0678 1.32-.2032.39-.1406.73-.3489 1.02-.625.29-.2812.51-.6302.66-1.0468l1.78.5c-.18.6041-.5 1.1354-.94 1.5937-.44.4531-.99.8073-1.64 1.0625-.65.25-1.38.375-2.2.375z"/><path d="m1265.63 69.625v-12h1.84v12zm.94-14c-.36 0-.67-.1224-.93-.3672s-.38-.539-.38-.8828.12-.638.38-.8828.57-.3672.93-.3672.66.1224.92.3672.39.539.39.8828-.13.638-.39.8828-.56.3672-.92.3672z"/><path d="m1258.33 69.625v-12h1.78v1.8125h.12c.22-.5937.62-1.0755 1.19-1.4453s1.22-.5547 1.94-.5547c.13 0 .3.0026.5.0078.21.0052.36.013.47.0235v1.875c-.07-.0157-.21-.0391-.43-.0704-.22-.0364-.46-.0546-.7-.0546-.58 0-1.1.1223-1.56.3671-.46.2396-.81.573-1.08 1-.26.4219-.39.9037-.39 1.4454v7.5937z"/><path d="m1256.62 57.625v1.5625h-6.47v-1.5625zm-4.53 12v-13.6562c0-.6875.16-1.2605.48-1.7188.33-.4583.75-.8021 1.26-1.0312.52-.2292 1.06-.3438 1.63-.3438.46 0 .83.0365 1.11.1094.29.0729.5.1406.64.2031l-.53 1.5937c-.09-.0312-.22-.0703-.39-.1171-.16-.0469-.37-.0703-.64-.0703-.61 0-1.05.1536-1.32.4609-.26.3073-.4.7578-.4 1.3515v13.2188z"/><path d="m1238.66 69.625v-12h1.79v1.8125h.12c.22-.5937.62-1.0755 1.19-1.4453s1.22-.5547 1.94-.5547c.13 0 .3.0026.5.0078.21.0052.36.013.46.0235v1.875c-.06-.0157-.2-.0391-.43-.0704-.21-.0364-.45-.0546-.69-.0546-.58 0-1.1.1223-1.56.3671-.46.2396-.82.573-1.08 1-.26.4219-.39.9037-.39 1.4454v7.5937z"/><path d="m1234.32 64.7188v-7.0938h1.85v12h-1.85v-2.0312h-.12c-.28.6093-.72 1.1276-1.31 1.5546-.6.4219-1.35.6328-2.25.6328-.75 0-1.42-.164-2-.4921-.59-.3334-1.05-.8334-1.38-1.5-.33-.6719-.5-1.5183-.5-2.5391v-7.625h1.84v7.5c0 .875.25 1.5729.74 2.0938.49.5208 1.12.7812 1.89.7812.46 0 .92-.1172 1.4-.3516.48-.2343.88-.5937 1.2-1.0781.33-.4844.49-1.1015.49-1.8515z"/><path d="m1219.39 69.875c-1.08 0-2.03-.2578-2.85-.7734-.81-.5157-1.45-1.237-1.91-2.1641-.45-.9271-.68-2.0104-.68-3.25 0-1.25.23-2.3411.68-3.2734.46-.9323 1.1-1.6563 1.91-2.1719.82-.5156 1.77-.7734 2.85-.7734s2.03.2578 2.84.7734c.82.5156 1.46 1.2396 1.91 2.1719.46.9323.69 2.0234.69 3.2734 0 1.2396-.23 2.3229-.69 3.25-.45.9271-1.09 1.6484-1.91 2.1641-.81.5156-1.76.7734-2.84.7734zm0-1.6562c.82 0 1.5-.211 2.03-.6329.53-.4218.93-.9765 1.18-1.664.26-.6875.38-1.4323.38-2.2344s-.12-1.5495-.38-2.2422c-.25-.6927-.65-1.2526-1.18-1.6797s-1.21-.6406-2.03-.6406-1.5.2135-2.03.6406-.93.987-1.18 1.6797c-.26.6927-.38 1.4401-.38 2.2422s.12 1.5469.38 2.2344c.25.6875.65 1.2422 1.18 1.664.53.4219 1.21.6329 2.03.6329z"/><path d="m1204.77 74.125c-.32 0-.6-.026-.84-.0781-.25-.0469-.41-.0938-.51-.1407l.47-1.625c.45.1146.84.1563 1.19.125.34-.0312.65-.1848.91-.4609.27-.2708.52-.7109.74-1.3203l.35-.9375-4.44-12.0625h2l3.31 9.5625h.13l3.31-9.5625h2l-5.09 13.75c-.23.6198-.52 1.1328-.85 1.5391-.34.4114-.74.7161-1.18.914-.45.1979-.95.2969-1.5.2969z"/><path d="m1188 62.4062v7.2188h-1.85v-16h1.85v5.875h.15c.28-.6198.71-1.112 1.27-1.4766.57-.3698 1.32-.5546 2.26-.5546.82 0 1.54.164 2.15.4921.62.323 1.09.8204 1.43 1.4922.35.6667.52 1.5156.52 2.5469v7.625h-1.85v-7.5c0-.9531-.24-1.6901-.74-2.2109-.49-.5261-1.17-.7891-2.04-.7891-.6 0-1.14.1276-1.62.3828s-.85.6276-1.13 1.1172c-.27.4896-.4 1.0833-.4 1.7812z"/><path d="m1184 57.625v1.5625h-6.22v-1.5625zm-4.41-2.875h1.85v11.4375c0 .5208.07.9115.23 1.1719.15.2552.35.4271.59.5156.24.0833.5.125.77.125.21 0 .37-.0104.5-.0312.13-.0261.24-.0469.31-.0626l.38 1.6563c-.13.0469-.3.0937-.52.1406-.23.0521-.51.0781-.86.0781-.52 0-1.03-.1119-1.53-.3359-.49-.2239-.9-.5651-1.23-1.0234-.32-.4584-.49-1.0365-.49-1.7344z"/><path d="m1174.44 69.625v-12h1.85v12zm.94-14c-.36 0-.67-.1224-.93-.3672s-.38-.539-.38-.8828.12-.638.38-.8828.57-.3672.93-.3672.67.1224.92.3672c.26.2448.39.539.39.8828s-.13.638-.39.8828c-.25.2448-.56.3672-.92.3672z"/><path d="m1160.17 69.625-3.66-12h1.94l2.59 9.1875h.13l2.56-9.1875h1.97l2.53 9.1562h.12l2.6-9.1562h1.93l-3.65 12h-1.81l-2.63-9.2188h-.19l-2.62 9.2188z"/><path d="m1150.02 60.3125-1.65.4687c-.11-.276-.26-.5442-.46-.8046-.2-.2657-.47-.4844-.81-.6563-.35-.1719-.79-.2578-1.33-.2578-.73 0-1.34.1693-1.83.5078-.49.3333-.73.7578-.73 1.2735 0 .4583.17.8203.5 1.0859.34.2656.86.487 1.56.6641l1.79.4374c1.07.2605 1.87.6589 2.39 1.1954.53.5312.79 1.2161.79 2.0546 0 .6876-.19 1.3021-.59 1.8438-.39.5417-.94.9688-1.64 1.2812-.7.3126-1.52.4688-2.45.4688-1.23 0-2.24-.2656-3.04-.7969-.8-.5312-1.31-1.3073-1.53-2.3281l1.75-.4375c.17.6458.49 1.1302.95 1.4531.47.3229 1.08.4844 1.83.4844.86 0 1.55-.1823 2.05-.5469.51-.3698.77-.8125.77-1.3281 0-.4167-.15-.7656-.44-1.0469-.29-.2864-.74-.5-1.34-.6406l-2-.4687c-1.1-.2605-1.91-.6641-2.43-1.211-.51-.5521-.76-1.2422-.76-2.0703 0-.6771.19-1.276.57-1.7969.38-.5208.91-.9297 1.57-1.2265.67-.2969 1.42-.4453 2.26-.4453 1.19 0 2.12.2604 2.8.7812s1.17 1.2083 1.45 2.0625z"/><path d="m1139.85 57.625v1.5625h-6.22v-1.5625zm-4.41-2.875h1.84v11.4375c0 .5208.08.9115.23 1.1719.16.2552.35.4271.59.5156.25.0833.51.125.78.125.2 0 .37-.0104.5-.0312.13-.0261.23-.0469.31-.0626l.38 1.6563c-.13.0469-.3.0937-.53.1406-.22.0521-.51.0781-.85.0781-.52 0-1.03-.1119-1.53-.3359-.5-.2239-.91-.5651-1.24-1.0234-.32-.4584-.48-1.0365-.48-1.7344z"/><path d="m1127.73 69.875c-1.15 0-2.15-.2552-2.99-.7656-.83-.5156-1.47-1.2344-1.93-2.1563-.45-.9271-.67-2.0052-.67-3.2343 0-1.2292.22-2.3126.67-3.25.46-.9428 1.09-1.6771 1.89-2.2032.82-.5312 1.76-.7968 2.85-.7968.62 0 1.24.1041 1.85.3124.61.2084 1.16.5469 1.66 1.0157.5.4635.9 1.0781 1.2 1.8437.29.7656.44 1.7084.44 2.8282v.7812h-9.25v-1.5938h7.38c0-.677-.14-1.2812-.41-1.8124-.26-.5313-.64-.9506-1.14-1.2579-.49-.3073-1.07-.4609-1.73-.4609-.74 0-1.37.1823-1.91.5469-.53.3594-.94.8281-1.23 1.4062-.28.5781-.43 1.1979-.43 1.8594v1.0625c0 .9062.16 1.6745.47 2.3047.32.625.76 1.1015 1.32 1.4297.57.3229 1.22.4844 1.96.4844.49 0 .93-.0678 1.32-.2032.39-.1406.73-.3489 1.02-.625.29-.2812.51-.6302.66-1.0468l1.79.5c-.19.6041-.51 1.1354-.95 1.5937-.44.4531-.99.8073-1.64 1.0625-.65.25-1.38.375-2.2.375z"/><path d="m1115.76 69.625v-12h1.78v1.8125h.13c.22-.5937.61-1.0755 1.19-1.4453.57-.3698 1.22-.5547 1.93-.5547.14 0 .31.0026.51.0078s.36.013.46.0235v1.875c-.06-.0157-.2-.0391-.43-.0704-.22-.0364-.45-.0546-.69-.0546-.59 0-1.11.1223-1.56.3671-.46.2396-.82.573-1.08 1-.26.4219-.39.9037-.39 1.4454v7.5937z"/><path d="m1109.23 69.875c-1.13 0-2.1-.2656-2.91-.7969-.81-.5312-1.44-1.263-1.87-2.1953-.44-.9323-.66-1.9974-.66-3.1953 0-1.2187.23-2.2943.67-3.2266.46-.9375 1.09-1.6692 1.89-2.1953.82-.5312 1.76-.7968 2.85-.7968.84 0 1.6.1562 2.28.4687s1.23.75 1.66 1.3125.7 1.2187.81 1.9688h-1.85c-.14-.5469-.45-1.0313-.93-1.4532-.48-.4271-1.13-.6406-1.94-.6406-.72 0-1.35.1875-1.89.5625-.54.3698-.96.8932-1.26 1.5703-.3.6719-.45 1.4609-.45 2.3672 0 .9271.15 1.7344.44 2.4219.3.6875.72 1.2213 1.25 1.6015.54.3802 1.18.5704 1.91.5704.48 0 .91-.0834 1.3-.25.39-.1667.72-.4063 1-.7188.27-.3125.46-.6875.57-1.125h1.85c-.11.7083-.36 1.3464-.78 1.9141-.4.5625-.94 1.0104-1.61 1.3437-.67.3281-1.45.4922-2.33.4922z"/><path d="m1097.46 69.875c-1.16 0-2.15-.2552-2.99-.7656-.84-.5156-1.48-1.2344-1.93-2.1563-.45-.9271-.67-2.0052-.67-3.2343 0-1.2292.22-2.3126.67-3.25.45-.9428 1.08-1.6771 1.89-2.2032.81-.5312 1.76-.7968 2.84-.7968.63 0 1.24.1041 1.85.3124.61.2084 1.17.5469 1.67 1.0157.5.4635.9 1.0781 1.19 1.8437.3.7656.45 1.7084.45 2.8282v.7812h-9.25v-1.5938h7.37c0-.677-.13-1.2812-.4-1.8124-.27-.5313-.65-.9506-1.14-1.2579s-1.07-.4609-1.74-.4609c-.73 0-1.37.1823-1.9.5469-.53.3594-.94.8281-1.23 1.4062s-.43 1.1979-.43 1.8594v1.0625c0 .9062.16 1.6745.47 2.3047.32.625.76 1.1015 1.32 1.4297.56.3229 1.22.4844 1.96.4844.48 0 .92-.0678 1.31-.2032.4-.1406.74-.3489 1.03-.625.28-.2812.5-.6302.66-1.0468l1.78.5c-.19.6041-.5 1.1354-.94 1.5937-.45.4531-.99.8073-1.64 1.0625-.66.25-1.39.375-2.2.375z"/><path d="m1090.31 60.3125-1.65.4687c-.11-.276-.26-.5442-.46-.8046-.2-.2657-.47-.4844-.81-.6563-.35-.1719-.79-.2578-1.33-.2578-.73 0-1.34.1693-1.83.5078-.49.3333-.73.7578-.73 1.2735 0 .4583.17.8203.5 1.0859.34.2656.86.487 1.56.6641l1.79.4374c1.07.2605 1.87.6589 2.39 1.1954.53.5312.79 1.2161.79 2.0546 0 .6876-.19 1.3021-.59 1.8438-.39.5417-.94.9688-1.64 1.2812-.7.3126-1.52.4688-2.45.4688-1.23 0-2.24-.2656-3.04-.7969-.81-.5312-1.31-1.3073-1.53-2.3281l1.75-.4375c.17.6458.49 1.1302.95 1.4531.47.3229 1.08.4844 1.83.4844.86 0 1.55-.1823 2.05-.5469.51-.3698.77-.8125.77-1.3281 0-.4167-.15-.7656-.44-1.0469-.29-.2864-.74-.5-1.34-.6406l-2-.4687c-1.1-.2605-1.91-.6641-2.43-1.211-.51-.5521-.76-1.2422-.76-2.0703 0-.6771.19-1.276.57-1.7969.38-.5208.91-.9297 1.57-1.2265.67-.2969 1.42-.4453 2.26-.4453 1.19 0 2.12.2604 2.8.7812s1.17 1.2083 1.45 2.0625z"/><path d="m1068.82 74.375c-.89 0-1.65-.1146-2.29-.3438-.64-.2239-1.18-.5208-1.6-.8906-.43-.3646-.76-.7552-1.01-1.1718l1.47-1.0313c.16.2188.37.4688.63.75.26.2865.6.5339 1.05.7422.44.2135 1.03.3203 1.75.3203.97 0 1.77-.2344 2.4-.7031.63-.4688.95-1.2031.95-2.2031v-2.4376h-.16c-.13.2188-.33.4896-.58.8126-.24.3177-.59.6015-1.06.8515-.46.2448-1.08.3672-1.86.3672-.97 0-1.84-.2292-2.61-.6875-.76-.4583-1.37-1.125-1.82-2-.44-.875-.66-1.9375-.66-3.1875 0-1.2292.21-2.2995.65-3.2109.43-.9167 1.03-1.625 1.8-2.125.77-.5052 1.66-.7578 2.67-.7578.78 0 1.4.1302 1.86.3906.47.2552.82.5468 1.07.875.25.3229.44.5885.57.7968h.19v-1.9062h1.78v12.3438c0 1.0312-.23 1.8697-.7 2.5156-.46.651-1.09 1.1276-1.88 1.4297-.78.3073-1.65.4609-2.61.4609zm-.06-6.5938c.74 0 1.37-.1692 1.88-.5078.51-.3385.9-.8255 1.16-1.4609.27-.6354.4-1.3958.4-2.2813 0-.8645-.13-1.6276-.39-2.289-.26-.6615-.65-1.1797-1.16-1.5547s-1.14-.5625-1.89-.5625c-.78 0-1.43.1979-1.95.5938-.52.3958-.9.927-1.16 1.5937s-.39 1.4063-.39 2.2187c0 .8334.13 1.5704.39 2.211.27.6354.66 1.1354 1.17 1.5.53.3594 1.17.539 1.94.539z"/><path d="m1053.84 62.4062v7.2188h-1.85v-12h1.78v1.875h.16c.28-.6094.71-1.099 1.28-1.4688.57-.375 1.31-.5624 2.22-.5624.81 0 1.52.1666 2.13.5.61.3281 1.09.8281 1.42 1.5.34.6666.51 1.5104.51 2.5312v7.625h-1.84v-7.5c0-.9427-.25-1.6771-.74-2.2031-.49-.5313-1.16-.7969-2.01-.7969-.59 0-1.12.1276-1.58.3828s-.82.6276-1.09 1.1172c-.26.4896-.39 1.0833-.39 1.7812z"/><path d="m1047.65 69.625v-12h1.84v12zm.94-14c-.36 0-.67-.1224-.93-.3672s-.38-.539-.38-.8828.12-.638.38-.8828.57-.3672.93-.3672.67.1224.92.3672c.26.2448.39.539.39.8828s-.13.638-.39.8828c-.25.2448-.56.3672-.92.3672z"/><path d="m1040.35 69.625v-12h1.78v1.8125h.12c.22-.5937.62-1.0755 1.19-1.4453s1.22-.5547 1.94-.5547c.13 0 .3.0026.5.0078.21.0052.36.013.47.0235v1.875c-.07-.0157-.21-.0391-.43-.0704-.22-.0364-.45-.0546-.7-.0546-.58 0-1.1.1223-1.56.3671-.46.2396-.81.573-1.08 1-.26.4219-.39.9037-.39 1.4454v7.5937z"/><path d="m1032.36 69.9062c-.76 0-1.45-.1432-2.07-.4296-.62-.2917-1.11-.711-1.48-1.2578-.36-.5521-.54-1.2188-.54-2 0-.6876.13-1.2448.4-1.6719.27-.4323.64-.7709 1.09-1.0157.45-.2447.95-.427 1.5-.5468.55-.125 1.11-.224 1.66-.2969.73-.0938 1.32-.1641 1.78-.2109.45-.0521.79-.1381 1-.2578.21-.1198.32-.3282.32-.6251v-.0625c0-.7708-.21-1.3697-.64-1.7968-.41-.4271-1.05-.6406-1.89-.6406-.88 0-1.57.1927-2.07.5781s-.86.7968-1.06 1.2343l-1.75-.625c.31-.7291.73-1.2968 1.25-1.7031.53-.4114 1.1-.6979 1.72-.8593.62-.1667 1.24-.25 1.84-.25.39 0 .83.0468 1.33.1406.51.0885.99.2734 1.46.5547.48.2812.87.7057 1.18 1.2734s.47 1.3281.47 2.2813v7.9062h-1.84v-1.625h-.1c-.12.2604-.33.5391-.62.8359-.29.2969-.68.5495-1.17.7579-.48.2083-1.07.3124-1.77.3124zm.28-1.6562c.73 0 1.35-.1432 1.85-.4297.5-.2864.88-.6562 1.14-1.1094.26-.4531.39-.9297.39-1.4297v-1.6874c-.08.0937-.25.1796-.52.2578-.26.0729-.56.138-.91.1953-.33.0521-.66.0989-.99.1406-.32.0365-.57.0677-.77.0937-.48.0625-.93.1641-1.34.3047-.42.1355-.75.3412-1 .6172-.25.2709-.38.6406-.38 1.1094 0 .6406.24 1.125.71 1.4531.48.3229 1.09.4844 1.82.4844z"/><path d="m1018.55 62.4062v7.2188h-1.84v-16h1.84v5.875h.16c.28-.6198.7-1.112 1.27-1.4766.56-.3698 1.32-.5546 2.26-.5546.82 0 1.54.164 2.15.4921.62.323 1.09.8204 1.43 1.4922.34.6667.52 1.5156.52 2.5469v7.625h-1.85v-7.5c0-.9531-.25-1.6901-.74-2.2109-.49-.5261-1.17-.7891-2.04-.7891-.6 0-1.14.1276-1.62.3828s-.85.6276-1.13 1.1172c-.27.4896-.41 1.0833-.41 1.7812z"/><path d="m1014.6 60.3125-1.66.4687c-.1-.276-.26-.5442-.46-.8046-.2-.2657-.47-.4844-.81-.6563-.35-.1719-.79-.2578-1.32-.2578-.74 0-1.35.1693-1.84.5078-.48.3333-.73.7578-.73 1.2735 0 .4583.17.8203.5 1.0859.34.2656.86.487 1.57.6641l1.78.4374c1.07.2605 1.87.6589 2.4 1.1954.52.5312.79 1.2161.79 2.0546 0 .6876-.2 1.3021-.6 1.8438-.39.5417-.94.9688-1.64 1.2812-.7.3126-1.52.4688-2.45.4688-1.23 0-2.24-.2656-3.04-.7969-.8-.5312-1.31-1.3073-1.52-2.3281l1.75-.4375c.16.6458.48 1.1302.94 1.4531.47.3229 1.08.4844 1.84.4844.86 0 1.54-.1823 2.04-.5469.51-.3698.77-.8125.77-1.3281 0-.4167-.15-.7656-.44-1.0469-.29-.2864-.74-.5-1.34-.6406l-2-.4687c-1.1-.2605-1.91-.6641-2.42-1.211-.51-.5521-.77-1.2422-.77-2.0703 0-.6771.19-1.276.57-1.7969.39-.5208.91-.9297 1.57-1.2265.67-.2969 1.42-.4453 2.27-.4453 1.18 0 2.12.2604 2.79.7812.69.5208 1.17 1.2083 1.46 2.0625z"/><path d="m993.484 69.625v-12h1.781v1.8125h.125c.219-.5937.615-1.0755 1.188-1.4453s1.218-.5547 1.937-.5547c.136 0 .305.0026.508.0078s.357.013.461.0235v1.875c-.063-.0157-.206-.0391-.43-.0704-.219-.0364-.45-.0546-.695-.0546-.583 0-1.104.1223-1.563.3671-.453.2396-.812.573-1.078 1-.26.4219-.39.9037-.39 1.4454v7.5937z"/><path d="m986.112 69.875c-1.083 0-2.034-.2578-2.852-.7734-.812-.5157-1.448-1.237-1.906-2.1641-.453-.9271-.68-2.0104-.68-3.25 0-1.25.227-2.3411.68-3.2734.458-.9323 1.094-1.6563 1.906-2.1719.818-.5156 1.769-.7734 2.852-.7734s2.031.2578 2.844.7734c.817.5156 1.453 1.2396 1.906 2.1719.458.9323.687 2.0234.687 3.2734 0 1.2396-.229 2.3229-.687 3.25-.453.9271-1.089 1.6484-1.906 2.1641-.813.5156-1.761.7734-2.844.7734zm0-1.6562c.823 0 1.5-.211 2.031-.6329.531-.4218.925-.9765 1.18-1.664s.383-1.4323.383-2.2344-.128-1.5495-.383-2.2422-.649-1.2526-1.18-1.6797-1.208-.6406-2.031-.6406-1.5.2135-2.031.6406c-.532.4271-.925.987-1.18 1.6797s-.383 1.4401-.383 2.2422.128 1.5469.383 2.2344.648 1.2422 1.18 1.664c.531.4219 1.208.6329 2.031.6329z"/><path d="m980.027 57.625v1.5625h-6.469v-1.5625zm-4.531 12v-13.6562c0-.6875.161-1.2605.484-1.7188s.742-.8021 1.258-1.0312c.516-.2292 1.06-.3438 1.633-.3438.453 0 .823.0365 1.109.1094.287.0729.5.1406.641.2031l-.531 1.5937c-.094-.0312-.224-.0703-.391-.1171-.161-.0469-.375-.0703-.641-.0703-.609 0-1.049.1536-1.32.4609-.266.3073-.398.7578-.398 1.3515v13.2188z"/><path d="m966.879 53.625v16h-1.844v-16z"/><path d="m957.663 69.875c-1.083 0-2.034-.2578-2.851-.7734-.813-.5157-1.448-1.237-1.907-2.1641-.453-.9271-.679-2.0104-.679-3.25 0-1.25.226-2.3411.679-3.2734.459-.9323 1.094-1.6563 1.907-2.1719.817-.5156 1.768-.7734 2.851-.7734 1.084 0 2.031.2578 2.844.7734.818.5156 1.453 1.2396 1.906 2.1719.459.9323.688 2.0234.688 3.2734 0 1.2396-.229 2.3229-.688 3.25-.453.9271-1.088 1.6484-1.906 2.1641-.813.5156-1.76.7734-2.844.7734zm0-1.6562c.823 0 1.5-.211 2.031-.6329.532-.4218.925-.9765 1.18-1.664s.383-1.4323.383-2.2344-.128-1.5495-.383-2.2422-.648-1.2526-1.18-1.6797c-.531-.4271-1.208-.6406-2.031-.6406s-1.5.2135-2.031.6406-.925.987-1.18 1.6797-.383 1.4401-.383 2.2422.128 1.5469.383 2.2344.649 1.2422 1.18 1.664c.531.4219 1.208.6329 2.031.6329z"/><path d="m945.416 69.875c-1.083 0-2.034-.2578-2.851-.7734-.813-.5157-1.448-1.237-1.907-2.1641-.453-.9271-.679-2.0104-.679-3.25 0-1.25.226-2.3411.679-3.2734.459-.9323 1.094-1.6563 1.907-2.1719.817-.5156 1.768-.7734 2.851-.7734 1.084 0 2.032.2578 2.844.7734.818.5156 1.453 1.2396 1.906 2.1719.459.9323.688 2.0234.688 3.2734 0 1.2396-.229 2.3229-.688 3.25-.453.9271-1.088 1.6484-1.906 2.1641-.812.5156-1.76.7734-2.844.7734zm0-1.6562c.823 0 1.5-.211 2.032-.6329.531-.4218.924-.9765 1.179-1.664s.383-1.4323.383-2.2344-.128-1.5495-.383-2.2422-.648-1.2526-1.179-1.6797c-.532-.4271-1.209-.6406-2.032-.6406s-1.5.2135-2.031.6406-.924.987-1.18 1.6797c-.255.6927-.382 1.4401-.382 2.2422s.127 1.5469.382 2.2344c.256.6875.649 1.2422 1.18 1.664.531.4219 1.208.6329 2.031.6329z"/><path d="m938.777 57.625v1.5625h-6.219v-1.5625zm-4.407-2.875h1.844v11.4375c0 .5208.076.9115.227 1.1719.156.2552.354.4271.594.5156.244.0833.502.125.773.125.203 0 .37-.0104.5-.0312.13-.0261.234-.0469.312-.0626l.375 1.6563c-.125.0469-.299.0937-.523.1406-.224.0521-.508.0781-.852.0781-.52 0-1.031-.1119-1.531-.3359-.495-.2239-.906-.5651-1.234-1.0234-.323-.4584-.485-1.0365-.485-1.7344z"/><path d="m919.998 69.875c-1 0-1.883-.2526-2.649-.7578-.765-.5104-1.364-1.2292-1.797-2.1563-.432-.9323-.648-2.0338-.648-3.3047 0-1.2604.216-2.3541.648-3.2812.433-.9271 1.034-1.6432 1.805-2.1484s1.661-.7578 2.672-.7578c.781 0 1.398.1302 1.851.3906.459.2552.808.5468 1.047.875.245.3229.435.5885.571.7968h.156v-5.9062h1.844v16h-1.782v-1.8438h-.218c-.136.2188-.328.4948-.578.8282-.25.3281-.607.6224-1.071.8828-.463.2552-1.081.3828-1.851.3828zm.25-1.6562c.739 0 1.364-.1928 1.875-.5782.51-.3906.898-.9297 1.164-1.6172.265-.6927.398-1.4921.398-2.3984 0-.8958-.13-1.6797-.39-2.3516-.261-.677-.646-1.2031-1.157-1.5781-.51-.3802-1.14-.5703-1.89-.5703-.782 0-1.433.2005-1.953.6016-.516.3958-.904.9349-1.165 1.6172-.255.677-.382 1.4375-.382 2.2812 0 .8542.13 1.6302.39 2.3281.266.6927.657 1.2448 1.172 1.6563.521.4062 1.167.6094 1.938.6094z"/><path d="m908.573 69.875c-1.156 0-2.154-.2552-2.992-.7656-.834-.5156-1.477-1.2344-1.93-2.1563-.448-.9271-.672-2.0052-.672-3.2343 0-1.2292.224-2.3126.672-3.25.453-.9428 1.083-1.6771 1.891-2.2032.812-.5312 1.76-.7968 2.843-.7968.625 0 1.243.1041 1.852.3124.609.2084 1.164.5469 1.664 1.0157.5.4635.899 1.0781 1.195 1.8437.297.7656.446 1.7084.446 2.8282v.7812h-9.25v-1.5938h7.375c0-.677-.136-1.2812-.407-1.8124-.265-.5313-.645-.9506-1.14-1.2579-.49-.3073-1.068-.4609-1.735-.4609-.734 0-1.369.1823-1.906.5469-.531.3594-.94.8281-1.226 1.4062-.287.5781-.43 1.1979-.43 1.8594v1.0625c0 .9062.156 1.6745.469 2.3047.317.625.758 1.1015 1.32 1.4297.563.3229 1.216.4844 1.961.4844.484 0 .922-.0678 1.312-.2032.396-.1406.737-.3489 1.024-.625.286-.2812.508-.6302.664-1.0468l1.781.5c-.187.6041-.502 1.1354-.945 1.5937-.443.4531-.99.8073-1.641 1.0625-.651.25-1.383.375-2.195.375z"/><path d="m901.777 57.625v1.5625h-6.219v-1.5625zm-4.406-2.875h1.844v11.4375c0 .5208.075.9115.226 1.1719.156.2552.354.4271.594.5156.245.0833.503.125.773.125.204 0 .37-.0104.5-.0312.131-.0261.235-.0469.313-.0626l.375 1.6563c-.125.0469-.3.0937-.524.1406-.223.0521-.507.0781-.851.0781-.521 0-1.031-.1119-1.531-.3359-.495-.2239-.907-.5651-1.235-1.0234-.323-.4584-.484-1.0365-.484-1.7344z"/><path d="m894.444 60.3125-1.656.4687c-.104-.276-.258-.5442-.461-.8046-.198-.2657-.469-.4844-.812-.6563-.344-.1719-.784-.2578-1.321-.2578-.734 0-1.346.1693-1.836.5078-.484.3333-.726.7578-.726 1.2735 0 .4583.166.8203.5 1.0859.333.2656.854.487 1.562.6641l1.782.4374c1.072.2605 1.872.6589 2.398 1.1954.526.5312.789 1.2161.789 2.0546 0 .6876-.198 1.3021-.594 1.8438-.39.5417-.937.9688-1.64 1.2812-.703.3126-1.521.4688-2.453.4688-1.224 0-2.237-.2656-3.04-.7969-.802-.5312-1.309-1.3073-1.523-2.3281l1.75-.4375c.167.6458.482 1.1302.945 1.4531.469.3229 1.081.4844 1.836.4844.86 0 1.542-.1823 2.047-.5469.511-.3698.766-.8125.766-1.3281 0-.4167-.146-.7656-.438-1.0469-.291-.2864-.739-.5-1.343-.6406l-2-.4687c-1.099-.2605-1.907-.6641-2.422-1.211-.511-.5521-.766-1.2422-.766-2.0703 0-.6771.19-1.276.57-1.7969.386-.5208.909-.9297 1.571-1.2265.666-.2969 1.422-.4453 2.265-.4453 1.188 0 2.12.2604 2.797.7812.682.5208 1.167 1.2083 1.453 2.0625z"/><path d="m878.572 69.875c-1.083 0-2.034-.2578-2.851-.7734-.813-.5157-1.448-1.237-1.906-2.1641-.454-.9271-.68-2.0104-.68-3.25 0-1.25.226-2.3411.68-3.2734.458-.9323 1.093-1.6563 1.906-2.1719.817-.5156 1.768-.7734 2.851-.7734 1.084 0 2.032.2578 2.844.7734.818.5156 1.453 1.2396 1.906 2.1719.459.9323.688 2.0234.688 3.2734 0 1.2396-.229 2.3229-.688 3.25-.453.9271-1.088 1.6484-1.906 2.1641-.812.5156-1.76.7734-2.844.7734zm0-1.6562c.823 0 1.5-.211 2.032-.6329.531-.4218.924-.9765 1.179-1.664s.383-1.4323.383-2.2344-.128-1.5495-.383-2.2422-.648-1.2526-1.179-1.6797c-.532-.4271-1.209-.6406-2.032-.6406s-1.5.2135-2.031.6406-.924.987-1.18 1.6797c-.255.6927-.382 1.4401-.382 2.2422s.127 1.5469.382 2.2344c.256.6875.649 1.2422 1.18 1.664.531.4219 1.208.6329 2.031.6329z"/><path d="m863.423 62.4062v7.2188h-1.844v-16h1.844v5.875h.156c.282-.6198.703-1.112 1.266-1.4766.568-.3698 1.323-.5546 2.266-.5546.817 0 1.533.164 2.148.4921.615.323 1.091.8204 1.43 1.4922.343.6667.515 1.5156.515 2.5469v7.625h-1.843v-7.5c0-.9531-.248-1.6901-.743-2.2109-.489-.5261-1.169-.7891-2.039-.7891-.604 0-1.146.1276-1.625.3828-.474.2552-.849.6276-1.125 1.1172-.271.4896-.406 1.0833-.406 1.7812z"/><path d="m859.215 61.9062v1.7188h-7v-1.7188z"/><path d="m851.259 57.625v1.5625h-6.469v-1.5625zm-4.531 12v-13.6562c0-.6875.161-1.2605.484-1.7188s.743-.8021 1.258-1.0312c.516-.2292 1.06-.3438 1.633-.3438.453 0 .823.0365 1.109.1094.287.0729.5.1406.641.2031l-.531 1.5937c-.094-.0312-.224-.0703-.391-.1171-.161-.0469-.375-.0703-.641-.0703-.609 0-1.049.1536-1.32.4609-.265.3073-.398.7578-.398 1.3515v13.2188z"/><path d="m843.419 53.625v16h-1.844v-16z"/><path d="m834.681 69.875c-1.156 0-2.153-.2552-2.992-.7656-.833-.5156-1.476-1.2344-1.93-2.1563-.447-.9271-.671-2.0052-.671-3.2343 0-1.2292.224-2.3126.671-3.25.454-.9428 1.084-1.6771 1.891-2.2032.813-.5312 1.76-.7968 2.844-.7968.625 0 1.242.1041 1.851.3124.61.2084 1.164.5469 1.664 1.0157.5.4635.899 1.0781 1.196 1.8437s.445 1.7084.445 2.8282v.7812h-9.25v-1.5938h7.375c0-.677-.135-1.2812-.406-1.8124-.266-.5313-.646-.9506-1.141-1.2579-.489-.3073-1.068-.4609-1.734-.4609-.735 0-1.37.1823-1.906.5469-.532.3594-.941.8281-1.227 1.4062s-.43 1.1979-.43 1.8594v1.0625c0 .9062.157 1.6745.469 2.3047.318.625.758 1.1015 1.32 1.4297.563.3229 1.217.4844 1.961.4844.485 0 .922-.0678 1.313-.2032.396-.1406.737-.3489 1.023-.625.287-.2812.508-.6302.664-1.0468l1.782.5c-.188.6041-.503 1.1354-.946 1.5937-.442.4531-.989.8073-1.64 1.0625-.651.25-1.383.375-2.196.375z"/><path d="m827.536 60.3125-1.656.4687c-.104-.276-.258-.5442-.461-.8046-.198-.2657-.469-.4844-.813-.6563s-.784-.2578-1.32-.2578c-.734 0-1.346.1693-1.836.5078-.484.3333-.727.7578-.727 1.2735 0 .4583.167.8203.5 1.0859.334.2656.855.487 1.563.6641l1.781.4374c1.073.2605 1.873.6589 2.399 1.1954.526.5312.789 1.2161.789 2.0546 0 .6876-.198 1.3021-.594 1.8438-.391.5417-.938.9688-1.641 1.2812-.703.3126-1.521.4688-2.453.4688-1.224 0-2.237-.2656-3.039-.7969-.802-.5312-1.31-1.3073-1.523-2.3281l1.75-.4375c.166.6458.481 1.1302.945 1.4531.469.3229 1.081.4844 1.836.4844.859 0 1.542-.1823 2.047-.5469.51-.3698.765-.8125.765-1.3281 0-.4167-.145-.7656-.437-1.0469-.292-.2864-.74-.5-1.344-.6406l-2-.4687c-1.099-.2605-1.906-.6641-2.422-1.211-.51-.5521-.765-1.2422-.765-2.0703 0-.6771.19-1.276.57-1.7969.385-.5208.909-.9297 1.57-1.2265.667-.2969 1.422-.4453 2.266-.4453 1.187 0 2.12.2604 2.797.7812.682.5208 1.166 1.2083 1.453 2.0625z"/><path d="m811.835 57.625v1.5625h-6.219v-1.5625zm-4.406-2.875h1.843v11.4375c0 .5208.076.9115.227 1.1719.156.2552.354.4271.594.5156.245.0833.502.125.773.125.203 0 .37-.0104.5-.0312.13-.0261.235-.0469.313-.0626l.375 1.6563c-.125.0469-.3.0937-.524.1406-.224.0521-.508.0781-.851.0781-.521 0-1.032-.1119-1.532-.3359-.494-.2239-.906-.5651-1.234-1.0234-.323-.4584-.484-1.0365-.484-1.7344z"/><path d="m798.559 69.625v-12h1.781v1.8125h.125c.219-.5937.615-1.0755 1.187-1.4453.573-.3698 1.219-.5547 1.938-.5547.135 0 .305.0026.508.0078s.357.013.461.0235v1.875c-.063-.0157-.206-.0391-.43-.0704-.219-.0364-.45-.0546-.695-.0546-.584 0-1.104.1223-1.563.3671-.453.2396-.812.573-1.078 1-.26.4219-.391.9037-.391 1.4454v7.5937z"/><path d="m790.574 69.9062c-.761 0-1.451-.1432-2.071-.4296-.62-.2917-1.112-.711-1.476-1.2578-.365-.5521-.547-1.2188-.547-2 0-.6876.135-1.2448.406-1.6719.271-.4323.633-.7709 1.086-1.0157.453-.2447.953-.427 1.5-.5468.552-.125 1.107-.224 1.664-.2969.729-.0938 1.32-.1641 1.773-.2109.459-.0521.792-.1381 1-.2578.214-.1198.321-.3282.321-.6251v-.0625c0-.7708-.211-1.3697-.633-1.7968-.417-.4271-1.05-.6406-1.898-.6406-.881 0-1.571.1927-2.071.5781s-.851.7968-1.054 1.2343l-1.75-.625c.312-.7291.729-1.2968 1.25-1.7031.526-.4114 1.098-.6979 1.718-.8593.625-.1667 1.24-.25 1.844-.25.385 0 .828.0468 1.328.1406.505.0885.992.2734 1.461.5547.474.2812.867.7057 1.18 1.2734.312.5677.469 1.3281.469 2.2813v7.9062h-1.844v-1.625h-.094c-.125.2604-.333.5391-.625.8359-.292.2969-.68.5495-1.164.7579-.484.2083-1.076.3124-1.773.3124zm.281-1.6562c.729 0 1.344-.1432 1.844-.4297.505-.2864.885-.6562 1.14-1.1094.261-.4531.391-.9297.391-1.4297v-1.6874c-.078.0937-.25.1796-.516.2578-.26.0729-.562.138-.906.1953-.339.0521-.669.0989-.992.1406-.318.0365-.576.0677-.774.0937-.479.0625-.927.1641-1.343.3047-.412.1355-.745.3412-1 .6172-.25.2709-.375.6406-.375 1.1094 0 .6406.236 1.125.71 1.4531.48.3229 1.086.4844 1.821.4844z"/><path d="m768.801 69.625v-12h1.781v1.875h.157c.25-.6406.653-1.138 1.211-1.4922.557-.3594 1.226-.539 2.007-.539.792 0 1.451.1796 1.977.539.531.3542.945.8516 1.242 1.4922h.125c.307-.6198.768-1.112 1.383-1.4766.615-.3698 1.352-.5546 2.211-.5546 1.073 0 1.95.3359 2.633 1.0078.682.6666 1.023 1.7057 1.023 3.1171v8.0313h-1.844v-8.0313c0-.8854-.242-1.5182-.726-1.8984-.485-.3802-1.055-.5703-1.711-.5703-.844 0-1.497.2552-1.961.7656-.464.5052-.695 1.1459-.695 1.9219v7.8125h-1.875v-8.2188c0-.6822-.222-1.2317-.664-1.6484-.443-.4219-1.013-.6328-1.711-.6328-.48 0-.927.1276-1.344.3828-.412.2552-.745.6094-1 1.0625-.25.4479-.375.9662-.375 1.5547v7.5z"/><path d="m766.687 60.3125-1.656.4687c-.104-.276-.258-.5442-.461-.8046-.198-.2657-.469-.4844-.813-.6563-.343-.1719-.784-.2578-1.32-.2578-.734 0-1.346.1693-1.836.5078-.484.3333-.726.7578-.726 1.2735 0 .4583.166.8203.5 1.0859.333.2656.854.487 1.562.6641l1.781.4374c1.073.2605 1.873.6589 2.399 1.1954.526.5312.789 1.2161.789 2.0546 0 .6876-.198 1.3021-.594 1.8438-.391.5417-.937.9688-1.641 1.2812-.703.3126-1.52.4688-2.453.4688-1.224 0-2.237-.2656-3.039-.7969-.802-.5312-1.31-1.3073-1.523-2.3281l1.75-.4375c.166.6458.482 1.1302.945 1.4531.469.3229 1.081.4844 1.836.4844.859 0 1.542-.1823 2.047-.5469.51-.3698.766-.8125.766-1.3281 0-.4167-.146-.7656-.438-1.0469-.292-.2864-.74-.5-1.344-.6406l-2-.4687c-1.099-.2605-1.906-.6641-2.422-1.211-.51-.5521-.765-1.2422-.765-2.0703 0-.6771.19-1.276.57-1.7969.385-.5208.909-.9297 1.57-1.2265.667-.2969 1.422-.4453 2.266-.4453 1.188 0 2.12.2604 2.797.7812.682.5208 1.167 1.2083 1.453 2.0625z"/><path d="m739.799 69.625h-2.032l5.875-16h2l5.875 16h-2.031l-4.781-13.4688h-.125zm.75-6.25h8.187v1.7188h-8.187z"/></g></svg>